<?xml version="1.0" encoding="UTF-8"?>
<svg width="44px" height="45px" viewBox="0 0 44 45" version="1.1" xmlns="http://www.w3.org/2000/svg" xmlns:xlink="http://www.w3.org/1999/xlink">
    <!-- Generator: Sketch 44.1 (41455) - http://www.bohemiancoding.com/sketch -->
    <title>Group 20</title>
    <desc>Created with Sketch.</desc>
    <defs></defs>
    <g id="Icons" stroke="none" stroke-width="1" fill="none" fill-rule="evenodd">
        <g id="Artboard" transform="translate(-2989.000000, -168.000000)" fill="#003058">
            <g id="Group" transform="translate(2944.000000, 121.000000)">
                <g id="Group-20" transform="translate(45.000000, 47.000000)">
                    <g id="Group-17">
                        <path d="M38.5711489,4.14629787 L37.102766,4.14629787 C36.646383,1.91680851 34.6696596,0.234042553 32.307234,0.234042553 L11.5186383,0.234042553 C9.15621277,0.234042553 7.17995745,1.91680851 6.72357447,4.14629787 L5.42885106,4.14629787 C2.44808511,4.14629787 0.0224680851,6.39778723 0.0224680851,9.16651064 L0.0224680851,12.1486809 C0.0224680851,16.0422128 3.04770213,19.3787234 7.21506383,20.0808511 C7.25110638,20.0869362 7.28574468,20.0869362 7.32131915,20.0897447 C8.96055319,25.3177872 13.3380851,29.3428511 18.7650638,30.4840426 L18.7585106,30.4905957 C18.7762979,30.4905957 18.7926809,30.4952766 18.8104681,30.4957447 C18.9462128,30.5238298 19.0866383,30.5369362 19.2233191,30.5617447 C19.9511915,30.7653617 20.4899574,31.4253617 20.5302128,32.2070638 L20.5302128,36.7278298 C20.5278723,36.7385957 20.5185106,36.745617 20.5185106,36.7568511 C20.5185106,39.143617 18.5151064,41.7719149 15.7875745,41.9994043 L12.5311064,41.9994043 C11.7845106,41.9994043 11.1797447,42.6037021 11.1797447,43.350766 C11.1797447,44.0978298 11.7849787,44.7021277 12.5311064,44.7021277 L31.2320426,44.7021277 C31.9791064,44.7021277 32.5834043,44.0978298 32.5834043,43.350766 C32.5834043,42.6037021 31.9791064,41.9994043 31.2320426,41.9994043 L28.2522128,41.9994043 C25.3805106,41.9413617 23.2422979,39.193234 23.2422979,36.7240851 C23.2422979,36.7156596 23.2343404,36.7100426 23.2329362,36.7020851 L23.2329362,32.2730638 C23.2446383,31.4824681 23.7693617,30.8065532 24.4888085,30.5790638 C30.1657447,29.6091915 34.7880851,25.514383 36.492383,20.1211064 C36.5185957,20.118766 36.5438723,20.119234 36.5705532,20.1154894 C40.7926809,19.5022979 43.9761277,16.0782553 43.9761277,12.1486809 L43.9761277,9.16651064 C43.9775319,6.39778723 41.5528511,4.14629787 38.5711489,4.14629787 Z M2.72565957,12.1482128 L2.72565957,9.16604255 C2.72565957,7.8886383 3.938,6.84902128 5.42885106,6.84902128 L6.62387234,6.84902128 L6.62387234,15.5231064 C6.62387234,16.0824681 6.65851064,16.6338723 6.71748936,17.1777872 C4.35740426,16.4148085 2.72565957,14.4235745 2.72565957,12.1482128 Z M34.4992766,15.5231064 C34.4992766,22.4634043 28.852766,28.1099149 21.9129362,28.1099149 C14.9731064,28.1099149 9.32659574,22.4634043 9.32659574,15.5231064 L9.32659574,5.1292766 C9.32659574,3.92021277 10.3100426,2.93676596 11.5181702,2.93676596 L32.307234,2.93676596 C33.5162979,2.93676596 34.4997447,3.92021277 34.4997447,5.1292766 L34.4997447,15.5231064 L34.4992766,15.5231064 Z M41.2743404,12.1482128 C41.2743404,14.4605532 39.5330638,16.5098298 37.1013617,17.2288085 C37.1640851,16.6680426 37.2024681,16.1002553 37.2024681,15.5231064 L37.2024681,6.84902128 L38.5711489,6.84902128 C40.0610638,6.84902128 41.2743404,7.8886383 41.2743404,9.16604255 L41.2743404,12.1482128 Z" id="Shape"></path>
                        <path d="M15.7248511,4.24834043 L13.8740426,4.24834043 C11.9993617,4.24834043 10.4734043,5.7733617 10.4734043,7.64851064 L10.4734043,11.5130213 C10.4734043,12.259617 11.0786383,12.864383 11.824766,12.864383 C12.5708936,12.864383 13.1761277,12.2591489 13.1761277,11.5130213 L13.1761277,7.64851064 C13.1761277,7.26421277 13.4888085,6.95153191 13.8735745,6.95153191 L15.7248511,6.95153191 C16.4714468,6.95153191 17.0762128,6.34629787 17.0762128,5.60017021 C17.0762128,4.85404255 16.4714468,4.24834043 15.7248511,4.24834043 Z" id="Shape"></path>
                    </g>
                </g>
            </g>
        </g>
    </g>
</svg>