<?xml version="1.0" encoding="UTF-8"?>
<svg width="14px" height="12px" viewBox="0 0 14 12" version="1.1" xmlns="http://www.w3.org/2000/svg" xmlns:xlink="http://www.w3.org/1999/xlink">
    <!-- Generator: Sketch 44.1 (41455) - http://www.bohemiancoding.com/sketch -->
    <title>Shape</title>
    <desc>Created with Sketch.</desc>
    <defs></defs>
    <g id="Page-1" stroke="none" stroke-width="1" fill="none" fill-rule="evenodd" opacity="0.699999988">
        <g id="1.-Calenar-without-comment" transform="translate(-20.000000, -95.000000)" fill="#00305A">
            <g id="Group-6" transform="translate(20.000000, 84.000000)">
                <path d="M13.7576324,16.3490666 L8.98490725,11.2778195 C8.66149546,10.9871904 8.04133949,10.867216 7.67986523,11.2032457 C7.32381993,11.5342043 7.33440942,12.1760762 7.68911238,12.5083473 L11.0449347,16.0694267 L0.894885957,16.0694267 C0.400670273,16.0694267 0,16.470085 0,16.9643305 C0,17.4585761 0.400670273,17.8592463 0.894885957,17.8592463 L11.0449347,17.8592463 L7.68911238,21.4203257 C7.38374746,21.7262275 7.32730999,22.3906804 7.67986523,22.7254274 C8.03233098,23.0601445 8.6747696,22.9532057 8.98490725,22.6508237 L13.7576324,17.5795945 C13.920949,17.4060463 14.0005342,17.2024299 13.9999973,16.9643305 C13.991645,16.7510494 13.9038567,16.5045381 13.7576324,16.3490666 Z" id="Shape" transform="translate(7.000000, 16.965901) scale(-1, 1) translate(-7.000000, -16.965901) "></path>
            </g>
        </g>
    </g>
</svg>