<?xml version="1.0" encoding="UTF-8"?>
<svg width="14px" height="12px" viewBox="0 0 14 12" version="1.1" xmlns="http://www.w3.org/2000/svg" xmlns:xlink="http://www.w3.org/1999/xlink">
    <!-- Generator: Sketch 44.1 (41455) - http://www.bohemiancoding.com/sketch -->
    <title>Shape</title>
    <desc>Created with Sketch.</desc>
    <defs></defs>
    <g id="Page-1" stroke="none" stroke-width="1" fill="none" fill-rule="evenodd" opacity="0.699999988">
        <g id="1.-Calenar-without-comment" transform="translate(-341.000000, -95.000000)" fill="#00305A">
            <g id="Group-6" transform="translate(20.000000, 84.000000)">
                <path d="M334.757632,16.3490666 L329.984907,11.2778195 C329.661495,10.9871904 329.041339,10.867216 328.679865,11.2032457 C328.32382,11.5342043 328.334409,12.1760762 328.689112,12.5083473 L332.044935,16.0694267 L321.894886,16.0694267 C321.40067,16.0694267 321,16.470085 321,16.9643305 C321,17.4585761 321.40067,17.8592463 321.894886,17.8592463 L332.044935,17.8592463 L328.689112,21.4203257 C328.383747,21.7262275 328.32731,22.3906804 328.679865,22.7254274 C329.032331,23.0601445 329.67477,22.9532057 329.984907,22.6508237 L334.757632,17.5795945 C334.920949,17.4060463 335.000534,17.2024299 334.999997,16.9643305 C334.991645,16.7510494 334.903857,16.5045381 334.757632,16.3490666 Z" id="Shape" transform="translate(328.000000, 16.965901) scale(-1, 1) rotate(-180.000000) translate(-328.000000, -16.965901) "></path>
            </g>
        </g>
    </g>
</svg>