<?xml version="1.0" encoding="utf-8"?>
<svg xmlns="http://www.w3.org/2000/svg" viewBox="0 0 50 50" fill="#022246"><path style="line-height:normal;text-indent:0;text-align:start;text-decoration-line:none;text-decoration-style:solid;text-decoration-color:#000;text-transform:none;block-progression:tb;isolation:auto;mix-blend-mode:normal" d="M 0 5 L 0 6 L 0 45 L 50 45 L 50 5 L 0 5 z M 2 7 L 48 7 L 48 33 L 37.320312 33 L 30.320312 28 L 24.414062 28 L 20.328125 23.914062 L 15.460938 24.888672 L 11.15625 18.429688 L 2 27.585938 L 2 7 z M 37.5 13 C 35.026563 13 33 15.026563 33 17.5 C 33 19.973437 35.026563 22 37.5 22 C 39.973437 22 42 19.973437 42 17.5 C 42 15.026563 39.973437 13 37.5 13 z M 37.5 15 C 38.892557 15 40 16.107443 40 17.5 C 40 18.892557 38.892557 20 37.5 20 C 36.107443 20 35 18.892557 35 17.5 C 35 16.107443 36.107443 15 37.5 15 z M 10.84375 21.570312 L 14.539062 27.111328 L 19.671875 26.085938 L 23.585938 30 L 29.679688 30 L 36.679688 35 L 48 35 L 48 43 L 2 43 L 2 30.414062 L 10.84375 21.570312 z" font-weight="400" font-family="sans-serif" white-space="normal" overflow="visible" fill="#022246"/></svg>
