<?xml version="1.0" encoding="UTF-8"?>
<svg width="43px" height="52px" viewBox="0 0 43 52" version="1.1" xmlns="http://www.w3.org/2000/svg" xmlns:xlink="http://www.w3.org/1999/xlink">
    <!-- Generator: Sketch 44.1 (41455) - http://www.bohemiancoding.com/sketch -->
    <title>Shape</title>
    <desc>Created with Sketch.</desc>
    <defs></defs>
    <g id="Icons" stroke="none" stroke-width="1" fill="none" fill-rule="evenodd">
        <g id="Artboard" transform="translate(-2408.000000, -540.000000)" fill="#003057">
            <g id="Group-35" transform="translate(2380.000000, 516.000000)">
                <path d="M70.683523,56.0202005 C70.5031975,58.9790232 71.284418,64.5913706 68.371818,68.9254609 C65.4586473,73.2589806 58.7004338,74.6850361 57.9283437,74.7506609 C60.265728,73.114606 59.9010824,72.2420814 59.1335575,71.8369196 C58.5138311,72.3927331 57.8638602,72.8983295 57.1859274,73.3411542 C54.842266,74.8699268 52.1921652,75.6785386 49.521521,75.6785386 C46.8388931,75.6785386 44.17795,74.8636497 41.8262994,73.3206108 C41.160921,72.8840632 40.5223631,72.3858853 39.9129084,71.8397728 C40.1662772,72.7140094 40.7266559,73.7406096 41.0193996,73.9688697 C38.5325049,73.5043603 31.0729619,71.4112143 29.5812816,63.6674875 C28.0896013,55.9237606 28.9170445,49.1353026 30.5279907,42.9032288 C32.138937,36.671155 34.8147171,29.882697 41.2208393,26.4924626 C47.6269614,23.1022282 54.4137075,24.565376 55.674845,25.0692603 C56.5171251,25.4065148 56.8332655,26.1169746 56.9502488,26.5529515 C58.412826,26.1221104 60.8152644,25.9326545 63.8271576,28.5993041 C66.8390508,31.2659538 68.4591275,36.0696894 69.7328193,41.2209512 C71.0059405,46.372213 70.8638486,53.0613778 70.683523,56.0202005 Z M62.6128134,45.4911287 C62.193956,43.4482 61.1656438,38.294085 59.069074,36.2511563 C58.5366571,35.7330057 57.777692,35.2353984 56.8595154,34.7948563 C55.967018,36.7293614 53.4664277,41.5022819 49.2630163,44.69393 C47.1898432,46.267784 44.9831378,47.2869657 42.9887144,48.2479411 C44.0364287,48.4282667 44.9643063,48.8106025 45.6017229,49.3470139 C45.7249834,49.4508723 45.7409616,49.6351924 45.6371032,49.7578823 C45.5332449,49.8811428 45.3494954,49.897121 45.2262349,49.7932626 C44.4963729,49.1792427 43.3139852,48.791771 42.0106195,48.7261462 C39.2783451,50.0900008 37.1001722,51.5023607 36.4975653,54.4086836 C36.3063974,53.4311593 35.3437101,52.3143964 35.2175963,51.4378772 C35.053249,53.8648537 34.9665101,57.2619359 35.4783836,59.759673 C36.0929741,62.7590119 36.6847387,64.962864 37.9955228,67.2859821 C39.2732092,69.2467371 40.8561936,70.8770855 42.6548839,72.0571907 C44.7109375,73.4056377 47.0460392,74.1674561 49.5220916,74.1674561 C51.986731,74.1674561 54.311561,73.4124855 56.3607669,72.0754515 C58.0573107,70.9683896 59.5615454,69.4601604 60.8015688,67.6523397 C61.4812135,66.4402781 62.029038,65.0872658 62.3868358,63.5602052 C63.1863171,60.149998 62.9506385,55.4107458 63.051073,53.6925172 C63.1515075,51.9748593 63.0316709,47.5340574 62.6128134,45.4911287 Z" id="Shape" style="mix-blend-mode: multiply;"></path>
            </g>
        </g>
    </g>
</svg>