<?xml version="1.0" encoding="UTF-8"?>
<svg width="46px" height="55px" viewBox="0 0 46 55" version="1.1" xmlns="http://www.w3.org/2000/svg" xmlns:xlink="http://www.w3.org/1999/xlink">
    <!-- Generator: Sketch 44.1 (41455) - http://www.bohemiancoding.com/sketch -->
    <title>Shape Copy</title>
    <desc>Created with Sketch.</desc>
    <defs></defs>
    <g id="Icons" stroke="none" stroke-width="1" fill="none" fill-rule="evenodd">
        <g id="Artboard" transform="translate(-2279.000000, -539.000000)" fill="#003057">
            <g id="Bitmap" transform="translate(2252.000000, 516.000000)">
                <path d="M71.8391546,48.8692622 C71.0625849,47.8997688 69.9384516,47.5601048 69.0207918,47.5783112 C68.625051,47.581156 68.2637224,47.6420338 67.9195999,47.7165664 L67.920747,47.7114459 C67.920747,44.4069754 68.7225523,41.3664985 68.7225523,38.5609985 C68.7225523,35.762326 67.0438083,30.9381861 61.8722215,30.4295434 C61.8722215,30.4295434 58.4774536,20.8740026 38.4678805,23.4365603 C38.4678805,23.4365603 40.4041428,24.6381859 40.8882083,25.1149672 L41.3717004,25.5974381 C41.3717004,25.5974381 36.4496023,25.3562027 33.5452089,27.4379963 C33.5452089,27.4379963 35.563487,28.0001204 35.9661103,29.1175412 C35.9661103,29.1175412 30.2783398,29.4788254 28.0587501,31.6800988 C28.0587501,31.6800988 30.8822747,31.9987117 30.8822747,39.282998 C30.8822747,41.4950815 31.5401221,44.9560136 32.587975,47.5589668 C32.580519,47.6517059 32.5679012,47.7393245 32.5627393,47.826943 C32.1033359,47.6915326 31.5659313,47.5822939 30.9809232,47.5771733 C30.0626898,47.5589668 28.9379829,47.8986309 28.1648545,48.8681243 C27.3888584,49.8330661 27,51.2139114 27,53.2035349 C27,59.8989564 31.7144775,61.9727847 33.4373839,62.5041854 C36.4518965,70.9770115 42.5967763,77.0164319 50.0063061,77.05 C57.403218,77.0158629 63.5492449,70.9764425 66.563184,62.5041854 C68.287811,61.9727847 72.9999943,59.8989564 72.9999943,53.2035349 C73.0017149,51.2144804 72.6134301,49.8177044 71.8391546,48.8692622 Z M65.5961999,60.6511103 L64.9888238,60.7523837 L64.7961152,61.3332832 C61.9892231,69.6172173 56.2756435,75.0239636 50.0080267,74.9977919 C43.7404099,75.0245326 38.0142124,69.6172173 35.2239529,61.3332832 L35.0163324,60.7523837 L34.4089562,60.6511103 C34.4215741,60.5873877 29.0698965,59.8858705 29.0698965,53.2041038 C29.2258987,49.7192758 30.1676471,49.6288125 30.9826438,49.6288125 C33.2268956,49.6288125 34.5271049,50.9209014 34.5271049,50.9209014 L34.5500464,49.3682327 C34.6223122,47.4002294 34.8431241,45.4987934 35.1671727,43.6713211 C37.1189205,38.2372651 39.5208952,37.4828354 40.5263062,37.4828354 C41.5340115,37.4828354 45.0027657,38.0808035 47.42252,38.0808035 C53.3930445,38.0808035 54.927257,36.560565 58.7183393,36.560565 C62.3213013,36.560565 64.8569102,44.517921 65.1006636,45.3099015 C65.2801808,46.6275932 65.4143885,47.9788531 65.4648598,49.3682327 L65.5296696,50.9209014 C65.5296696,50.9209014 67.3684305,49.6282435 69.0207918,49.6282435 C69.837509,49.6282435 70.7781104,49.7027762 70.9352596,53.2035349 C70.9346861,59.8858705 65.5961999,60.5868188 65.5961999,60.6511103 Z" id="Shape-Copy"></path>
            </g>
        </g>
    </g>
</svg>