<?xml version="1.0" encoding="UTF-8"?>
<svg width="38px" height="39px" viewBox="0 0 38 39" version="1.1" xmlns="http://www.w3.org/2000/svg" xmlns:xlink="http://www.w3.org/1999/xlink">
    <!-- Generator: Sketch 44.1 (41455) - http://www.bohemiancoding.com/sketch -->
    <title>Shape</title>
    <desc>Created with Sketch.</desc>
    <defs></defs>
    <g id="Page-1" stroke="none" stroke-width="1" fill="none" fill-rule="evenodd">
        <g id="Progress-2-Copy-5" transform="translate(-303.000000, -451.000000)" fill="#EB7702">
            <path d="M313.496174,451 C312.801438,451 312.238203,451.563194 312.238203,452.257971 L312.238203,457.093276 C310.779502,457.616759 309.722261,459.015623 309.722261,460.644444 C309.722261,462.713806 311.426854,464.418357 313.496174,464.418357 C315.565536,464.418357 317.270087,462.713806 317.270087,460.644444 C317.270087,459.017384 316.210414,457.618101 314.754145,457.093276 L314.754145,452.257971 C314.754145,451.563194 314.190909,451 313.496174,451 Z M330.269119,451 C329.574384,451 329.011149,451.563194 329.011149,452.257971 L329.011149,457.093276 C327.552447,457.616759 326.495207,459.015623 326.495207,460.644444 C326.495207,462.713806 328.199799,464.418357 330.269119,464.418357 C332.338482,464.418357 334.043032,462.713806 334.043032,460.644444 C334.043032,459.017384 332.983359,457.618101 331.52709,457.093276 L331.52709,452.257971 C331.52709,451.563194 330.963855,451 330.269119,451 Z M307.625643,453.515942 C305.085045,453.515942 303,455.601029 303,458.141585 L303,484.952099 C303,487.492697 305.085087,489.577784 307.625643,489.577784 L336.113485,489.577784 C338.654041,489.577784 340.739128,487.492697 340.739128,484.952099 L340.739128,458.141585 C340.739128,455.601029 338.653999,453.515942 336.113485,453.515942 L333.610626,453.515942 C332.946039,453.506717 332.326447,454.109243 332.326447,454.773913 C332.326447,455.438583 332.946039,456.041277 333.610626,456.031884 L336.113485,456.031884 C337.301303,456.031884 338.223186,456.953683 338.223186,458.141585 L338.223186,465.257004 L305.515942,465.257004 L305.515942,458.141585 C305.515942,456.953683 306.437783,456.031884 307.625643,456.031884 L310.128502,456.031884 C310.793088,456.041109 311.399556,455.438583 311.399556,454.773913 C311.399556,454.109243 310.793088,453.506549 310.128502,453.515942 L307.625643,453.515942 Z M316.83768,453.515942 C316.142903,453.515942 315.579709,454.079135 315.579709,454.773913 C315.579709,455.468648 316.142903,456.031884 316.83768,456.031884 L326.901448,456.031884 C327.596225,456.031884 328.159418,455.468648 328.159418,454.773913 C328.159418,454.079135 327.596225,453.515942 326.901448,453.515942 L316.83768,453.515942 Z M313.496174,459.386473 C314.205837,459.386473 314.754145,459.93478 314.754145,460.644444 C314.754145,461.354107 314.205837,461.902415 313.496174,461.902415 C312.786552,461.902415 312.238203,461.354107 312.238203,460.644444 C312.238203,459.93478 312.786552,459.386473 313.496174,459.386473 Z M330.269119,459.386473 C330.978783,459.386473 331.52709,459.93478 331.52709,460.644444 C331.52709,461.354107 330.978783,461.902415 330.269119,461.902415 C329.559498,461.902415 329.011149,461.354107 329.011149,460.644444 C329.011149,459.93478 329.559498,459.386473 330.269119,459.386473 Z M305.515942,467.772946 L338.223186,467.772946 L338.223186,484.952099 C338.223186,486.140001 337.301303,487.061842 336.113485,487.061842 L307.625643,487.061842 C306.437741,487.061842 305.515942,486.140001 305.515942,484.952099 L305.515942,467.772946 L305.515942,467.772946 Z" id="Shape"></path>
        </g>
    </g>
</svg>