<?xml version="1.0" encoding="UTF-8"?>
<svg width="24px" height="21px" viewBox="0 0 24 21" version="1.1" xmlns="http://www.w3.org/2000/svg" xmlns:xlink="http://www.w3.org/1999/xlink">
    <!-- Generator: Sketch 44.1 (41455) - http://www.bohemiancoding.com/sketch -->
    <title>Group 2</title>
    <desc>Created with Sketch.</desc>
    <defs></defs>
    <g id="Workbook" stroke="none" stroke-width="1" fill="none" fill-rule="evenodd">
        <g id="7.-Opened-workbook-(Chapters)" transform="translate(-20.000000, -98.000000)" fill-rule="nonzero" fill="#003057">
            <g id="Group-3" transform="translate(20.000000, 98.000000)">
                <g id="Group-2">
                    <path d="M1,1 L1,4 L23,4 L23,1 L1,1 Z M0,0 L24,0 L24,5 L0,5 L0,0 Z" id="Rectangle"></path>
                    <path d="M1,12 L23,12 L23,9 L1,9 L1,12 Z M0,8 L24,8 L24,13 L0,13 L0,8 Z" id="Rectangle"></path>
                    <path d="M1,20 L23,20 L23,17 L1,17 L1,20 Z M0,16 L24,16 L24,21 L0,21 L0,16 Z" id="Rectangle"></path>
                </g>
            </g>
        </g>
    </g>
</svg>