<?xml version="1.0" encoding="UTF-8"?>
<svg width="12px" height="24px" viewBox="0 0 12 24" version="1.1" xmlns="http://www.w3.org/2000/svg" xmlns:xlink="http://www.w3.org/1999/xlink">
    <!-- Generator: Sketch 44.1 (41455) - http://www.bohemiancoding.com/sketch -->
    <title>icon_ collapse</title>
    <desc>Created with Sketch.</desc>
    <defs></defs>
    <g id="Icons" stroke="none" stroke-width="1" fill="none" fill-rule="evenodd">
        <g id="Artboard" transform="translate(-1706.000000, -734.000000)" fill="#003057">
            <path d="M1711.94245,754.194369 C1712.50014,754.194369 1712.95197,753.749322 1712.95197,753.200465 C1712.95197,752.651397 1712.50014,752.20635 1711.94245,752.20635 C1711.38475,752.20635 1710.93293,752.651397 1710.93293,753.200465 C1710.93293,753.749322 1711.38475,754.194369 1711.94245,754.194369 L1711.94245,754.194369 Z M1711.94245,758 C1712.50014,758 1712.95197,757.554953 1712.95197,757.006096 C1712.95197,756.457028 1712.50014,756.011981 1711.94245,756.011981 C1711.38475,756.011981 1710.93293,756.457028 1710.93293,757.006096 C1710.93293,757.554953 1711.38475,758 1711.94245,758 L1711.94245,758 Z M1711.94245,735.988019 C1712.50014,735.988019 1712.95197,735.542972 1712.95197,734.994115 C1712.95197,734.445047 1712.50014,734 1711.94245,734 C1711.38475,734 1710.93293,734.445047 1710.93293,734.994115 C1710.93293,735.542972 1711.38475,735.988019 1711.94245,735.988019 L1711.94245,735.988019 Z M1711.94245,739.79365 C1712.50014,739.79365 1712.95197,739.348603 1712.95197,738.799746 C1712.95197,738.250678 1712.50014,737.805631 1711.94245,737.805631 C1711.38475,737.805631 1710.93293,738.250678 1710.93293,738.799746 C1710.93293,739.348603 1711.38475,739.79365 1711.94245,739.79365 L1711.94245,739.79365 Z M1713.14782,743.95997 L1718,739.182846 L1716.85218,738.052786 L1712.00021,742.830121 L1707.14803,738.052786 L1706,739.182846 L1710.8524,743.95997 L1710.85111,743.961239 L1711.99893,745.091088 L1712.00021,745.090031 L1712.00129,745.091088 L1713.14911,743.961239 L1713.14782,743.95997 Z M1710.85111,748.038761 L1711.99893,746.908912 L1712.00021,746.909969 L1712.00129,746.908912 L1713.14911,748.038761 L1713.14782,748.04003 L1718,752.817154 L1716.85218,753.947214 L1712.00021,749.170091 L1707.14803,753.947214 L1706,752.817154 L1710.8524,748.04003 L1710.85111,748.038761 Z" id="icon_-collapse"></path>
        </g>
    </g>
</svg>