<?xml version="1.0" encoding="UTF-8"?>
<svg width="30px" height="28px" viewBox="0 0 30 28" version="1.1" xmlns="http://www.w3.org/2000/svg" xmlns:xlink="http://www.w3.org/1999/xlink">
    <!-- Generator: Sketch 44.1 (41455) - http://www.bohemiancoding.com/sketch -->
    <title>Group 2</title>
    <desc>Created with Sketch.</desc>
    <defs></defs>
    <g id="Icons" stroke="none" stroke-width="1" fill="none" fill-rule="evenodd">
        <g id="Artboard" transform="translate(-225.000000, -264.000000)" fill="#003057">
            <g id="Group-20" transform="translate(225.000000, 264.000000)">
                <g id="Group-2">
                    <path d="M14.375,21.7777778 L14.1875,21.7777778 C11.79125,21.7777778 9.66875,19.6933333 9.40375,17.1994667 C8.29625,16.8311111 7.50125,15.4896 7.50125,14.3111111 L7.50125,13.0666667 C7.50125,12.2552889 8.02375,11.5633778 8.75125,11.3070222 L8.75125,9.70666667 C8.75125,7.55502222 9.95875,6.09653333 11.7675,6.03804444 C12.1075,5.91982222 12.4625,5.78915556 12.82375,5.65102222 C14.14375,5.15573333 15.51,4.64177778 16.74125,4.64177778 C18.90375,4.64177778 20.00125,6.22097778 20.00125,9.33333333 L20.00125,11.4439111 C20.49625,11.7276444 21.25125,12.2888889 21.25125,13.0666667 L21.25125,14.3111111 C21.25125,15.4398222 20.32125,16.8261333 19.16,17.2019556 C18.8925,19.6933333 16.77125,21.7777778 14.375,21.7777778 L14.375,21.7777778 Z M16.73875,5.88622222 C15.73625,5.88622222 14.47875,6.35911111 13.2625,6.81208889 C12.855,6.96515556 12.45625,7.11448889 12.07625,7.2464 C12.01125,7.2688 11.94375,7.27751111 11.875,7.27751111 C10.4925,7.27751111 10,8.5344 10,9.70417778 L10,11.8197333 C10,12.1619556 9.72,12.4419556 9.375,12.4419556 C9.03,12.4419556 8.75,12.7219556 8.75,13.0641778 L8.75,14.3086222 C8.75,15.0540444 9.36875,16.0483556 10,16.0483556 C10.345,16.0483556 10.625,16.3296 10.625,16.6705778 C10.625,18.7251556 12.29,20.5308444 14.1875,20.5308444 L14.375,20.5308444 C16.2725,20.5308444 17.9375,18.7288889 17.9375,16.6705778 C17.9375,16.3296 18.21875,16.0483556 18.5625,16.0483556 C19.195,16.0483556 20,15.0739556 20,14.3086222 L20,13.0641778 C19.97375,12.9173333 19.52,12.5664 19.12,12.3872 C18.895,12.2876444 18.75,12.0648889 18.75,11.8197333 L18.75,9.33084444 C18.75,5.88622222 17.34125,5.88622222 16.73875,5.88622222 L16.73875,5.88622222 Z" id="Shape"></path>
                    <path d="M25.05875,28 L3.75,28 C3.405,28 3.125,27.7212444 3.125,27.3777778 C3.125,23.4752 6.10625,20.5333333 10.05875,20.5333333 C10.40375,20.5333333 10.68375,20.8120889 10.68375,21.1555556 C10.68375,21.4990222 10.40375,21.7777778 10.05875,21.7777778 C6.98,21.7777778 4.69,23.8360889 4.405,26.7555556 L24.405,26.7555556 C24.11875,23.8360889 21.82875,21.7777778 18.75125,21.7777778 C18.4075,21.7777778 18.12625,21.4990222 18.12625,21.1555556 C18.12625,20.8120889 18.4075,20.5333333 18.75125,20.5333333 C22.70375,20.5333333 25.685,23.4752 25.685,27.3777778 C25.68375,27.7212444 25.40375,28 25.05875,28 L25.05875,28 Z" id="Shape"></path>
                    <path d="M0.625,12.4419556 C0.28,12.4419556 0,12.1632 0,11.8197333 C0,9.76142222 1.6825,8.0864 3.75,8.0864 C4.095,8.0864 4.375,8.36515556 4.375,8.70862222 C4.375,9.05208889 4.095,9.33084444 3.75,9.33084444 C2.37125,9.33084444 1.25,10.4458667 1.25,11.8197333 C1.25,12.1632 0.97,12.4419556 0.625,12.4419556 L0.625,12.4419556 Z" id="Shape"></path>
                    <path d="M29.375,12.4419556 C29.03125,12.4419556 28.75,12.1632 28.75,11.8197333 C28.75,10.4458667 27.63,9.33084444 26.25,9.33084444 C25.90625,9.33084444 25.625,9.05208889 25.625,8.70862222 C25.625,8.36515556 25.90625,8.0864 26.25,8.0864 C28.3175,8.0864 30,9.76142222 30,11.8197333 C30,12.1632 29.71875,12.4419556 29.375,12.4419556 L29.375,12.4419556 Z" id="Shape"></path>
                    <path d="M6.25,8.71111111 C4.23375,8.71111111 3.125,4.50488889 3.125,3.11111111 C3.125,1.39502222 4.5275,0 6.25,0 C7.9725,0 9.375,1.39502222 9.375,3.11111111 C9.375,4.50488889 8.26625,8.71111111 6.25,8.71111111 L6.25,8.71111111 Z M6.25,1.24444444 C5.21625,1.24444444 4.375,2.08195556 4.375,3.11111111 C4.375,4.57333333 5.515,7.46666667 6.25,7.46666667 C6.985,7.46666667 8.125,4.57333333 8.125,3.11111111 C8.125,2.08195556 7.28375,1.24444444 6.25,1.24444444 L6.25,1.24444444 Z" id="Shape"></path>
                    <path d="M23.75,8.71111111 C21.73375,8.71111111 20.625,4.50488889 20.625,3.11111111 C20.625,1.39502222 22.0275,0 23.75,0 C25.4725,0 26.875,1.39502222 26.875,3.11111111 C26.875,4.50488889 25.76625,8.71111111 23.75,8.71111111 L23.75,8.71111111 Z M23.75,1.24444444 C22.71625,1.24444444 21.875,2.08195556 21.875,3.11111111 C21.875,4.57333333 23.015,7.46666667 23.75,7.46666667 C24.485,7.46666667 25.625,4.57333333 25.625,3.11111111 C25.625,2.08195556 24.78375,1.24444444 23.75,1.24444444 L23.75,1.24444444 Z" id="Shape"></path>
                </g>
            </g>
        </g>
    </g>
</svg>