<?xml version="1.0" encoding="UTF-8"?>
<svg width="21px" height="22px" viewBox="0 0 21 22" version="1.1" xmlns="http://www.w3.org/2000/svg" xmlns:xlink="http://www.w3.org/1999/xlink">
    <!-- Generator: Sketch 44.1 (41455) - http://www.bohemiancoding.com/sketch -->
    <title>Page 1</title>
    <desc>Created with Sketch.</desc>
    <defs></defs>
    <g id="Icons" stroke="none" stroke-width="1" fill="none" fill-rule="evenodd">
        <g id="Artboard" transform="translate(-610.000000, -575.000000)" fill="#ED0014">
            <path d="M630.098074,579.615488 L625.667003,579.615488 L625.667003,577.294451 C625.667003,576.028431 624.63815,575 623.37213,575 L617.43787,575 C616.171849,575 615.142997,576.028431 615.142997,577.294451 L615.142997,579.615488 L610.711925,579.615488 C610.318193,579.615488 610,579.933682 610,580.327836 C610,580.721568 610.318193,581.039761 610.711925,581.039761 L612.703376,581.039761 L612.703376,594.570565 C612.703376,595.836586 613.732228,596.865016 614.998249,596.865016 L625.811751,596.865016 C627.077771,596.865016 628.106624,595.836586 628.106624,594.570565 L628.106624,581.039761 L630.098074,581.039761 C630.491806,581.039761 630.809999,580.721568 630.809999,580.327836 C630.809999,579.933682 630.491806,579.615488 630.098074,579.615488 Z M616.56727,577.294451 C616.56727,576.815051 616.958048,576.424273 617.43787,576.424273 L623.37213,576.424273 C623.851951,576.424273 624.24273,576.815051 624.24273,577.294451 L624.24273,579.615488 L616.56727,579.615488 L616.56727,577.294451 Z M622.02213,581.039761 L622.02213,595.440744 L618.78787,595.440744 L618.78787,581.039761 L622.02213,581.039761 Z M614.127649,594.570565 L614.127649,581.039761 L617.363597,581.039761 L617.363597,595.440744 L614.998249,595.440744 C614.518427,595.440744 614.127649,595.049965 614.127649,594.570565 Z M626.682351,594.570565 C626.682351,595.049965 626.291573,595.440744 625.811751,595.440744 L623.446403,595.440744 L623.446403,581.039761 L626.682351,581.039761 L626.682351,594.570565 Z" id="Page-1"></path>
        </g>
    </g>
</svg>