<?xml version="1.0" encoding="UTF-8"?>
<svg width="20px" height="16px" viewBox="0 0 20 16" version="1.1" xmlns="http://www.w3.org/2000/svg" xmlns:xlink="http://www.w3.org/1999/xlink">
    <!-- Generator: Sketch 44.1 (41455) - http://www.bohemiancoding.com/sketch -->
    <title>Group 12</title>
    <desc>Created with Sketch.</desc>
    <defs></defs>
    <g id="Icons" stroke="none" stroke-width="1" fill="none" fill-rule="evenodd">
        <g id="Artboard" transform="translate(-1702.000000, -323.000000)">
            <g id="Group-12" transform="translate(1702.000000, 323.000000)">
                <path d="M1,3.00335124 L1,10.9966488 C1,12.1051188 1.89262061,13 2.99420208,13 L17.0057979,13 C18.1048161,13 19,12.1026525 19,10.9966488 L19,3.00335124 C19,1.89488124 18.1073794,1 17.0057979,1 L2.99420208,1 C1.8951839,1 1,1.89734747 1,3.00335124 Z M0,3.00335124 C0,1.34464615 1.34331197,0 2.99420208,0 L17.0057979,0 C18.6594501,0 20,1.34237885 20,3.00335124 L20,10.9966488 C20,12.6553538 18.656688,14 17.0057979,14 L2.99420208,14 C1.34054993,14 0,12.6576211 0,10.9966488 L0,3.00335124 Z" id="Rectangle-6" fill="#003058" fill-rule="nonzero"></path>
                <rect id="Rectangle-3" fill="#003059" x="4" y="15" width="12" height="1"></rect>
            </g>
        </g>
    </g>
</svg>