<?xml version="1.0" encoding="UTF-8"?>
<svg width="20px" height="27px" viewBox="0 0 20 27" version="1.1" xmlns="http://www.w3.org/2000/svg" xmlns:xlink="http://www.w3.org/1999/xlink">
    <!-- Generator: Sketch 44.1 (41455) - http://www.bohemiancoding.com/sketch -->
    <title>Group 28</title>
    <desc>Created with Sketch.</desc>
    <defs></defs>
    <g id="Icons" stroke="none" stroke-width="1" fill="none" fill-rule="evenodd">
        <g id="Artboard" transform="translate(-1704.000000, -523.000000)" fill="#03335A">
            <g id="Group-28" transform="translate(1704.000000, 523.000000)">
                <g id="noun_766317_cc" transform="translate(5.000000, 7.000000)">
                    <g id="icon_download">
                        <g id="Group">
                            <g id="Shape">
                                <path d="M5,10.610684 C4.58105888,10.610684 4.24144,10.2710652 4.24144,9.85212404 L4.24144,1.13612 C4.24144,0.71717888 4.58105888,0.37756 5,0.37756 C5.41894112,0.37756 5.75856,0.71717888 5.75856,1.13612 L5.75856,9.85212404 C5.75856,10.2710652 5.41894112,10.610684 5,10.610684 Z"></path>
                                <g transform="translate(0.000000, 4.929293)">
                                    <path d="M5,6.16832444 C4.69317498,6.16834545 4.41655261,5.983528 4.29913291,5.70005982 C4.18171322,5.41659164 4.24662256,5.0903031 4.46359111,4.87335556 L8.68984,0.647057778 C8.98607695,0.350820837 9.46637194,0.35082084 9.76260888,0.647057786 C10.0588458,0.943294731 10.0588458,1.42358972 9.76260889,1.71982667 L5.53640889,5.94622222 C5.39427926,6.08867803 5.20123222,6.16860992 5,6.16832444 L5,6.16832444 Z"></path>
                                    <path d="M5,6.16832444 C4.79878579,6.1685915 4.60576073,6.08866142 4.46364,5.94622222 L0.237342222,1.71992444 C0.0457105173,1.52829274 -0.0291301828,1.24898344 0.0410118894,0.987209667 C0.111153962,0.72543589 0.315622557,0.520967295 0.577396334,0.450825223 C0.839170111,0.380683151 1.11847941,0.455523851 1.31011111,0.647155556 L5.53640889,4.87345333 C5.75330752,5.09041004 5.81817239,5.41665317 5.70076157,5.70007853 C5.58335075,5.98350388 5.30678206,6.16830591 5,6.16832444 Z"></path>
                                </g>
                            </g>
                        </g>
                    </g>
                </g>
                <path d="M15.2,1.2 L14,1.2 L15.2,0 L15.2,1.2 Z M15.2,1.2 L18.8,1.2 L20,0 L14,0 L14,6 L15.2,4.8 L15.2,1.2 Z M15.2,1.2 L14,1.2 L15.2,0 L15.2,1.2 Z M14,1.2 L18.8,1.2 L20,0 L15.2,1.2 L14,6 L15.2,1.2 L14,1.2 Z" id="Rectangle-4" fill-rule="nonzero" transform="translate(17.000000, 3.000000) rotate(270.000000) translate(-17.000000, -3.000000) "></path>
                <path d="M18.8,20.1210044 L18.8,2.99994029 C18.8,2.00865726 17.9939256,1.2 17.0057979,1.2 L2.99420208,1.2 C2.00626361,1.2 1.2,2.00975608 1.2,3.00908811 L1.2,23.0009217 C1.2,24.0029551 2.00536642,24.8100098 3.00032973,24.8100098 L10,24.8100098 L14.8924955,24.8100098 L18.8,20.1210044 Z M-1.77635684e-15,3.00908811 C-2.31619835e-15,1.34721463 1.34331197,3.90199194e-14 2.99420208,4.26325641e-14 L17.0057979,7.32941552e-14 C18.6594501,7.6912844e-14 20,1.34870142 20,2.99994029 L20,20.5554643 L15.4545455,26.0100098 L3.00032973,26.0100098 C1.34329338,26.0100098 5.2587752e-15,24.6663693 4.71777266e-15,23.0009217 L-1.77635684e-15,3.00908811 Z" id="Rectangle-11" fill-rule="nonzero" transform="translate(10.000000, 13.005005) scale(-1, 1) rotate(180.000000) translate(-10.000000, -13.005005) "></path>
            </g>
        </g>
    </g>
</svg>