<?xml version="1.0" encoding="UTF-8"?>
<svg width="72px" height="44px" viewBox="0 0 72 44" version="1.1" xmlns="http://www.w3.org/2000/svg" xmlns:xlink="http://www.w3.org/1999/xlink">
    <!-- Generator: Sketch 44.1 (41455) - http://www.bohemiancoding.com/sketch -->
    <title>noun_717336_cc</title>
    <desc>Created with Sketch.</desc>
    <defs></defs>
    <g id="Icons" stroke="none" stroke-width="1" fill="none" fill-rule="evenodd">
        <g id="Artboard" transform="translate(-2265.000000, -339.000000)" fill="#003057">
            <g id="Group-28" transform="translate(2235.000000, 293.000000)">
                <g id="noun_717336_cc" transform="translate(30.000000, 46.000000)">
                    <g id="Group">
                        <g transform="translate(0.000000, 0.499163)" id="Shape">
                            <path d="M35.4130435,0.382844348 L1.76086957,13.6871922 C1.18205217,13.916653 0.772434783,14.519653 0.772434783,15.1423748 C0.772434783,15.7650183 1.18205217,16.3680183 1.76086957,16.5974791 L13.3043478,21.1708957 L13.3043478,33.1545913 C13.3043478,34.7240348 14.2817478,35.9069478 15.5299304,36.945313 C16.7779565,37.9836783 18.4269913,38.9157652 20.4456522,39.7333565 C24.4829739,41.3686957 29.9440957,42.5458957 36,42.5458957 C42.0559043,42.5458957 47.5170261,41.3686957 51.5543478,39.7333565 C53.5730087,38.9157652 55.2220435,37.9836783 56.4700696,36.945313 C57.7181739,35.9069478 58.6956522,34.7240348 58.6956522,33.1545913 L58.6956522,21.1708957 L70.2391304,16.5974791 C70.8179478,16.3680183 71.2275652,15.7650183 71.2275652,15.1423748 C71.2275652,14.519653 70.8179478,13.916653 70.2391304,13.6871922 L36.5869565,0.382844348 C36.0983739,0.210905217 35.7857217,0.291435652 35.4130435,0.382844348 L35.4130435,0.382844348 Z M36,3.51327913 L65.3967391,15.1545835 L36,26.7714 L6.60326087,15.1545835 L36,3.51327913 Z M16.4347826,22.3937217 L35.4130435,29.9018348 C35.7848609,30.0522522 36.2151391,30.0522522 36.5869565,29.9018348 L55.5652174,22.3937217 L55.5652174,33.1545913 C55.5652174,33.2234609 55.3493739,33.8124522 54.464713,34.5485739 C53.5798957,35.2847739 52.1565652,36.1181739 50.3560174,36.847487 C46.7546087,38.3061913 41.6503565,39.4154609 36,39.4154609 C30.3496435,39.4154609 25.2453913,38.3061913 21.6439826,36.847487 C19.8434348,36.1181739 18.4201043,35.2847739 17.535287,34.5485739 C16.6505478,33.8124522 16.4347826,33.2232261 16.4347826,33.1545913 L16.4347826,22.3937217 Z"></path>
                        </g>
                    </g>
                </g>
            </g>
        </g>
    </g>
</svg>