<?xml version="1.0" encoding="UTF-8"?>
<svg width="63px" height="59px" viewBox="0 0 63 59" version="1.1" xmlns="http://www.w3.org/2000/svg" xmlns:xlink="http://www.w3.org/1999/xlink">
    <!-- Generator: Sketch 44.1 (41455) - http://www.bohemiancoding.com/sketch -->
    <title>Page 1</title>
    <desc>Created with Sketch.</desc>
    <defs></defs>
    <g id="Icons" stroke="none" stroke-width="1" fill="none" fill-rule="evenodd">
        <g id="Artboard" transform="translate(-2446.000000, -154.000000)" fill="#003057">
            <g id="Group-2" transform="translate(2410.000000, 119.000000)">
                <path d="M54.82412,72.67164 L67.32692,83.05384 L67.2984,83.07868 L54.82412,72.67164 Z M67.3122,80.5956 L56.02104,71.22356 L67.28736,80.62044 L67.3122,80.5956 Z M98.1,56.09692 L98.1,94 L36,94 L36,56.09324 L42.6378,51.74164 L42.6378,41.35208 L58.48572,41.35208 L67.24412,35.61312 L75.89028,41.35208 L91.45484,41.35208 L91.45484,51.68368 L98.1,56.09692 Z M91.45852,60.19736 L95.59852,56.694 L91.45852,53.94412 L91.45852,60.19736 Z M61.92192,41.35208 L72.49088,41.35208 L67.24044,37.8662 L61.92192,41.35208 Z M44.52104,61.63164 L56.02104,71.22356 L67.28736,80.62044 L67.3122,80.59928 L89.57528,61.639 L89.57528,43.23532 L44.52104,43.23532 L44.52104,61.63164 Z M38.51896,56.69032 L42.6378,60.11088 L42.6378,53.99104 L38.51896,56.69032 Z M96.21676,58.6306 L67.34808,83.075 L67.32324,83.05384 L54.82412,72.67164 L37.88324,58.60576 L37.88324,92.11768 L96.22044,92.11768 L96.22044,58.6306 L96.21676,58.6306 Z M66.91016,70.6228 C62.03324,70.6228 57.9006,67.05412 57.9006,61.34368 C57.9006,55.21648 62.15192,49.92648 68.75384,49.92648 C73.92884,49.92648 77.40736,53.55312 77.40736,58.51928 C77.40736,62.97944 74.90956,65.59868 72.11368,65.59868 C70.92412,65.59868 69.82472,64.79736 69.91396,62.98312 L69.79528,62.98312 C68.75384,64.73664 67.38764,65.59868 65.60192,65.59868 C63.87692,65.59868 62.38928,64.2012 62.38928,61.8506 C62.38928,58.16324 65.30384,54.8034 69.43648,54.8034 C70.7116,54.8034 71.84412,55.06928 72.61692,55.429 L71.60676,60.81192 C71.16148,63.07236 71.5166,64.11472 72.49824,64.14324 C74.0144,64.17544 75.71088,62.15236 75.71088,58.70236 C75.71088,54.39032 73.12384,51.29912 68.5128,51.29912 C63.6644,51.29912 59.5934,55.13736 59.5934,61.17164 C59.5934,66.1378 62.83456,69.19956 67.23308,69.19956 C68.92956,69.19956 70.50368,68.84444 71.72176,68.15812 L72.19648,69.43692 C70.56808,70.2962 68.90472,70.6228 66.91016,70.6228 Z M70.56808,56.58544 C70.27,56.4962 69.76676,56.37752 69.08044,56.37752 C66.46396,56.37752 64.3544,58.84588 64.3544,61.73192 C64.3544,63.04016 65.00852,63.99236 66.31676,63.99236 C68.04176,63.99236 69.61588,61.79356 69.9434,59.9462 L70.56808,56.58544 Z" id="Page-1"></path>
            </g>
        </g>
    </g>
</svg>