<?xml version="1.0" encoding="UTF-8"?>
<svg width="12px" height="24px" viewBox="0 0 12 24" version="1.1" xmlns="http://www.w3.org/2000/svg" xmlns:xlink="http://www.w3.org/1999/xlink">
    <!-- Generator: Sketch 44.1 (41455) - http://www.bohemiancoding.com/sketch -->
    <title>icon_expand</title>
    <desc>Created with Sketch.</desc>
    <defs></defs>
    <g id="Icons" stroke="none" stroke-width="1" fill="none" fill-rule="evenodd">
        <g id="Artboard" transform="translate(-1706.000000, -682.000000)" fill="#003057">
            <path d="M1712,703.738619 L1716.85218,698.961728 L1718,700.091784 L1713.14782,704.868675 L1713.14911,704.869944 L1712.00129,706 L1712,705.998731 L1711.99893,706 L1710.85089,704.869944 L1710.8524,704.868675 L1706,700.091784 L1707.14782,698.961728 L1712,703.738619 Z M1712.00135,682 L1713.14917,683.130056 L1713.14788,683.131113 L1717.99985,687.908427 L1716.85225,689.038272 L1712.00006,684.261381 L1707.14767,689.038272 L1706.00006,687.908427 L1710.85225,683.131113 L1710.85096,683.130056 L1711.99878,682 L1712.00006,682.001057 L1712.00135,682 Z M1713.06731,688.291589 C1713.06731,688.840443 1712.61548,689.285489 1712.05779,689.285489 C1711.50009,689.285489 1711.04827,688.840443 1711.04827,688.291589 C1711.04827,687.742524 1711.50009,687.297478 1712.05779,687.297478 C1712.61548,687.297478 1713.06731,687.742524 1713.06731,688.291589 Z M1713.06731,692.097203 C1713.06731,692.646058 1712.61548,693.091103 1712.05779,693.091103 C1711.50009,693.091103 1711.04827,692.646058 1711.04827,692.097203 C1711.04827,691.548138 1711.50009,691.103093 1712.05779,691.103093 C1712.61548,691.103093 1713.06731,691.548138 1713.06731,692.097203 Z M1713.06731,695.902818 C1713.06731,696.451672 1712.61548,696.896717 1712.05779,696.896717 C1711.50009,696.896717 1711.04827,696.451672 1711.04827,695.902818 C1711.04827,695.353752 1711.50009,694.908707 1712.05779,694.908707 C1712.61548,694.908707 1713.06731,695.353752 1713.06731,695.902818 Z M1713.06731,699.708432 C1713.06731,700.257286 1712.61548,700.702331 1712.05779,700.702331 C1711.50009,700.702331 1711.04827,700.257286 1711.04827,699.708432 C1711.04827,699.159366 1711.50009,698.714321 1712.05779,698.714321 C1712.61548,698.714321 1713.06731,699.159366 1713.06731,699.708432 Z" id="icon_expand"></path>
        </g>
    </g>
</svg>