<?xml version="1.0" encoding="UTF-8"?>
<svg width="66px" height="64px" viewBox="0 0 66 64" version="1.1" xmlns="http://www.w3.org/2000/svg" xmlns:xlink="http://www.w3.org/1999/xlink">
    <!-- Generator: Sketch 44.1 (41455) - http://www.bohemiancoding.com/sketch -->
    <title>noun_702407_cc</title>
    <desc>Created with Sketch.</desc>
    <defs></defs>
    <g id="Icons" stroke="none" stroke-width="1" fill="none" fill-rule="evenodd">
        <g id="Artboard" transform="translate(-2619.000000, -326.000000)" fill="#003057">
            <g id="Group-17" transform="translate(2585.000000, 293.000000)">
                <g id="noun_702407_cc" transform="translate(34.000000, 33.000000)">
                    <g id="Group">
                        <path d="M57.2,9.563 L44.7333333,9.563 L44.7333333,5.548 C44.7333333,2.701 42.46,0.438 39.6,0.438 L26.4,0.438 C23.54,0.438 21.2666667,2.701 21.2666667,5.548 L21.2666667,9.563 L8.8,9.563 C3.96,9.563 0,13.505 0,18.323 L0,37.522 C0,39.128 1.32,40.442 2.93333333,40.442 L3.3,40.442 L3.3,55.042 C3.3,59.86 7.26,63.802 12.1,63.802 L53.9733333,63.802 C58.8133333,63.802 62.7733333,59.86 62.7733333,55.042 L62.7733333,40.442 L63.0666667,40.442 C64.68,40.442 66,39.128 66,37.522 L66,18.323 C66,13.505 62.04,9.563 57.2,9.563 Z M59.84,55.042 C59.84,58.254 57.2,60.882 53.9733333,60.882 L12.0266667,60.882 C8.8,60.882 6.16,58.254 6.16,55.042 L6.16,40.588 L25.8866667,40.588 L25.8866667,41.026 C25.8866667,43.873 28.16,46.136 31.02,46.136 L34.8333333,46.136 C37.6933333,46.136 39.9666667,43.873 39.9666667,41.026 L39.9666667,40.588 L59.6933333,40.588 L59.6933333,55.042 L59.84,55.042 Z M40.04,37.522 L40.04,37.23 C40.04,34.383 37.7666667,32.12 34.9066667,32.12 L31.0933333,32.12 C28.2333333,32.12 25.96,34.383 25.96,37.23 L25.96,37.522 L2.93333333,37.522 L2.93333333,18.323 C2.93333333,15.111 5.57333333,12.483 8.8,12.483 L21.2666667,12.483 L44.7333333,12.483 L57.2,12.483 C60.4266667,12.483 63.0666667,15.111 63.0666667,18.323 L63.0666667,37.522 L40.04,37.522 L40.04,37.522 Z M24.2,5.548 C24.2,4.307 25.1533333,3.358 26.4,3.358 L39.6,3.358 C40.8466667,3.358 41.8,4.307 41.8,5.548 L41.8,9.563 L24.2,9.563 L24.2,5.548 Z M28,37.0003297 C28,35.3432934 29.3486445,34 31.0003297,34 L34.9996703,34 C36.6567066,34 38,35.3486445 38,37.0003297 L38,40.9996703 C38,42.6567066 36.6513555,44 34.9996703,44 L31.0003297,44 C29.3432934,44 28,42.6513555 28,40.9996703 L28,37.0003297 Z" id="Combined-Shape"></path>
                    </g>
                </g>
            </g>
        </g>
    </g>
</svg>