<?xml version="1.0" encoding="UTF-8"?>
<svg width="21px" height="9px" viewBox="0 0 21 9" version="1.1" xmlns="http://www.w3.org/2000/svg" xmlns:xlink="http://www.w3.org/1999/xlink">
    <!-- Generator: Sketch 44.1 (41455) - http://www.bohemiancoding.com/sketch -->
    <title>Group 4</title>
    <desc>Created with Sketch.</desc>
    <defs></defs>
    <g id="Controls" stroke="none" stroke-width="1" fill="none" fill-rule="evenodd">
        <g id="Artboard" transform="translate(-467.000000, -1959.000000)" fill="#0E3C61">
            <g id="Group-15" transform="translate(129.000000, 1807.000000)">
                <g id="Group-44" transform="translate(8.000000, 116.000000)">
                    <g id="Group-2-Copy" transform="translate(330.000000, 36.000000)">
                        <g id="Group-3">
                            <g id="Group-4">
                                <path d="M20.5794167,0.884916667 L19.8190417,0 C17.698625,1.82145833 14.3240417,3.99291667 10.2894167,3.99291667 C6.25479167,3.99291667 2.8805,1.82145833 0.760083333,0 L0,0.884916667 C0.603166667,1.40320833 1.3055,1.94745833 2.0895,2.46808333 L0.341541667,4.87375 L1.285375,5.55975 L3.08233333,3.08670833 C3.89375,3.55629167 4.77866667,3.98504167 5.72658333,4.3295 L4.75270833,7.32666667 L5.8625,7.68716667 L6.83958333,4.6795 C7.748125,4.928875 8.705375,5.093375 9.70608333,5.14004167 L9.70608333,8.29616667 L10.87275,8.29616667 L10.87275,5.14033333 C11.8734583,5.09366667 12.8307083,4.92916667 13.7389583,4.67979167 L14.716625,7.68775 L15.8264167,7.32725 L14.85225,4.3295 C15.8001667,3.98504167 16.6847917,3.556875 17.4962083,3.087 L19.29375,5.560625 L20.2375833,4.874625 L18.4890417,2.46808333 C19.273625,1.94745833 19.9759583,1.4035 20.5794167,0.884916667 Z" id="Shape"></path>
                            </g>
                        </g>
                    </g>
                </g>
            </g>
        </g>
    </g>
</svg>