<?xml version="1.0" encoding="UTF-8"?>
<svg width="22px" height="12px" viewBox="0 0 22 12" version="1.1" xmlns="http://www.w3.org/2000/svg" xmlns:xlink="http://www.w3.org/1999/xlink">
    <!-- Generator: Sketch 44.1 (41455) - http://www.bohemiancoding.com/sketch -->
    <title>Group 3</title>
    <desc>Created with Sketch.</desc>
    <defs></defs>
    <g id="Controls" stroke="none" stroke-width="1" fill="none" fill-rule="evenodd">
        <g id="Artboard" transform="translate(-426.000000, -1956.000000)">
            <g id="Group-15" transform="translate(129.000000, 1807.000000)">
                <g id="Group-44" transform="translate(8.000000, 116.000000)">
                    <g id="Group-2" transform="translate(283.000000, 22.000000)">
                        <g id="Group-3">
                            <rect id="Rectangle" fill="#D8D8D8" opacity="0" x="0" y="0" width="32" height="32"></rect>
                            <path d="M27.1009374,16.377707 C26.9261778,16.161885 22.8192052,11.1759817 16.9751467,11.0080658 C16.8759126,11.002933 16.7761897,11 16.6757334,11 L16.6752446,11 L16.6747558,11 C16.6676676,11 16.6608239,11.0004888 16.6539802,11.0004888 C16.5613454,11.0007333 16.468955,11.002933 16.3772978,11.0078214 C10.5310396,11.1745152 6.42357814,16.161885 6.24881855,16.377707 L6,16.6851861 L6.24881855,16.9926652 C6.42357814,17.2087317 10.531284,22.1961015 16.3772978,22.3625509 C16.468955,22.3674392 16.5611009,22.3693946 16.6539802,22.3698834 C16.6610683,22.3698834 16.667912,22.3703723 16.6747558,22.3703723 L16.6752446,22.3703723 L16.6757334,22.3703723 C16.7761897,22.3703723 16.8759126,22.3674392 16.9751467,22.3625509 C22.8192052,22.1943906 26.9261778,17.2087317 27.1009374,16.9929097 L27.3500004,16.6851861 L27.1009374,16.377707 Z M16.6764667,21.3926962 L16.6752446,21.3926962 C14.0792703,21.3924518 11.9672457,19.2806716 11.9672457,16.6849417 C11.9672457,14.5756057 13.3623894,12.7857253 15.2786344,12.1893429 C14.2584295,12.7016451 13.5569469,13.7546022 13.5569469,14.9742531 C13.5569469,16.696185 14.9525794,18.0920619 16.6747558,18.0920619 C18.39571,18.0920619 19.7923202,16.696185 19.7923202,14.9742531 C19.7923202,14.4350647 19.6552012,13.9281397 19.4144484,13.4857413 C19.3044599,13.9413383 18.8970134,14.2813252 18.4069533,14.2813252 C17.8325686,14.2813252 17.3676837,13.8159514 17.3676837,13.2423 C17.3676837,12.7522399 17.7074261,12.344549 18.1632675,12.2345604 C18.1300265,12.2164734 18.094097,12.2032748 18.0598783,12.1861654 C19.9815005,12.7788815 21.3822659,14.5709617 21.3822659,16.6849417 C21.3822659,19.2806716 19.2712189,21.3922074 16.6764667,21.3926962 Z M7.27953351,16.6851861 C7.95021927,15.9538845 9.82222445,14.0901895 12.403778,12.9392204 C11.5243584,13.9403607 10.9895696,15.2509354 10.9895696,16.6849417 C10.9895696,18.1191925 11.5246028,19.4297672 12.4040224,20.4311519 C9.82222445,19.2806716 7.95021927,17.4167322 7.27953351,16.6851861 Z M20.9464668,20.4309074 C21.8253975,19.4295228 22.3599419,18.118948 22.3599419,16.6851861 C22.3599419,15.2516687 21.8253975,13.9410939 20.9467112,12.9399537 C23.5277759,14.0909228 25.3992923,15.9541289 26.069978,16.6854306 C25.3992923,17.4167322 23.5277759,19.2799383 20.9464668,20.4309074 Z" id="Shape" fill="#003057"></path>
                        </g>
                    </g>
                </g>
            </g>
        </g>
    </g>
</svg>