<?xml version="1.0" encoding="UTF-8"?>
<svg width="24px" height="29px" viewBox="0 0 24 29" version="1.1" xmlns="http://www.w3.org/2000/svg" xmlns:xlink="http://www.w3.org/1999/xlink">
    <!-- Generator: Sketch 44.1 (41455) - http://www.bohemiancoding.com/sketch -->
    <title>Group 27</title>
    <desc>Created with Sketch.</desc>
    <defs></defs>
    <g id="Icons" stroke="none" stroke-width="1" fill="none" fill-rule="evenodd">
        <g id="Artboard" transform="translate(-228.000000, -785.000000)" fill="#023259">
            <g id="Group-27" transform="translate(228.000000, 785.000000)">
                <path d="M17.6856,27.7880417 L14.4,27.7880417 L14.4,26.5797083 L17.6856,26.5797083 C18.21,26.5797083 19.2,25.4922083 19.2,24.9158333 L19.2,16.9130417 L20.4,16.9130417 L20.4,24.9158333 C20.4,26.0758333 18.9708,27.7880417 17.6856,27.7880417 L17.6856,27.7880417 Z" id="Shape"></path>
                <path d="M19.7976,14.1822083 C19.5684,14.1822083 19.35,14.0505 19.2504,13.8269583 C18.9108,13.068125 18.702,12.5038333 18.6144,12.1026667 C18.1344,9.918 16.5312,4.84058333 12,4.84058333 C7.47,4.84058333 5.8656,9.918 5.3856,12.1026667 C5.31,12.444625 5.1492,12.9025833 4.8924,13.4995 C4.7604,13.804 4.4064,13.945375 4.104,13.8160833 C3.7992,13.6855833 3.6588,13.3303333 3.7908,13.0234167 C4.068,12.3769583 4.1736,12.024125 4.2132,11.8404583 C5.3604,6.62770833 8.1972,3.63345833 11.9988,3.63345833 C15.8004,3.63345833 18.6384,6.62770833 19.7844,11.8404583 C19.8324,12.0591667 19.9656,12.4905417 20.3424,13.3267083 C20.4792,13.6312083 20.3448,13.988875 20.0424,14.126625 C19.9644,14.1665 19.8792,14.1822083 19.7976,14.1822083 L19.7976,14.1822083 Z" id="Shape"></path>
                <path d="M19.8,10.2672083 C19.47,10.2672083 19.2,9.99533333 19.2,9.66304167 L19.2,8.33025 C19.2,4.47325 15.9024,1.21195833 12,1.21195833 C8.0976,1.21195833 4.8,4.469625 4.8,8.33025 L4.8,9.66425 C4.8,9.99654167 4.5312,10.2684167 4.2,10.2684167 C3.8688,10.2684167 3.6,9.99533333 3.6,9.66304167 L3.6,8.33025 C3.6,3.81833333 7.4472,0.003625 12,0.003625 C16.5528,0.003625 20.4,3.81470833 20.4,8.33025 L20.4,9.66425 C20.4,9.99533333 20.13,10.2672083 19.8,10.2672083 L19.8,10.2672083 Z" id="Shape"></path>
                <path d="M12,24.13525 C8.6916,24.13525 6,21.1893333 6,17.5643333 L6,13.2880417 C6,12.95575 6.2688,12.683875 6.6,12.683875 C6.9312,12.683875 7.2,12.95575 7.2,13.2880417 L7.2,17.5643333 C7.2,20.521125 9.3528,22.9269167 12,22.9269167 C14.6472,22.9269167 16.8,20.52475 16.8,17.5643333 L16.8,13.2880417 C16.8,12.95575 17.07,12.683875 17.4,12.683875 C17.73,12.683875 18,12.95575 18,13.2880417 L18,17.5643333 C18,21.1869167 15.3084,24.13525 12,24.13525 L12,24.13525 Z" id="Shape"></path>
                <path d="M4.2,18.121375 L2.4,18.121375 C1.0764,18.121375 0,17.0387083 0,15.7047083 L0,12.0797083 C0,10.7457083 1.0764,9.66304167 2.4,9.66304167 L4.2,9.66304167 C4.5312,9.66304167 4.8,9.93491667 4.8,10.2672083 L4.8,17.5172083 C4.8,17.8495 4.5312,18.121375 4.2,18.121375 L4.2,18.121375 Z M2.4,10.871375 C1.7388,10.871375 1.2,11.4127083 1.2,12.0797083 L1.2,15.7047083 C1.2,16.3717083 1.7388,16.9130417 2.4,16.9130417 L3.6,16.9130417 L3.6,10.871375 L2.4,10.871375 L2.4,10.871375 Z" id="Shape"></path>
                <path d="M21.6,18.121375 L19.8,18.121375 C19.47,18.121375 19.2,17.8495 19.2,17.5172083 L19.2,10.2672083 C19.2,9.93491667 19.47,9.66304167 19.8,9.66304167 L21.6,9.66304167 C22.9248,9.66304167 24,10.7457083 24,12.0797083 L24,15.7047083 C24,17.0387083 22.9248,18.121375 21.6,18.121375 L21.6,18.121375 Z M20.4,16.9130417 L21.6,16.9130417 C22.2612,16.9130417 22.8,16.3717083 22.8,15.7047083 L22.8,12.0797083 C22.8,11.4127083 22.2612,10.871375 21.6,10.871375 L20.4,10.871375 L20.4,16.9130417 L20.4,16.9130417 Z" id="Shape"></path>
                <path d="M13.8,28.996375 L10.2,28.996375 C9.2076,28.996375 8.4,28.1831667 8.4,27.183875 C8.4,26.1845833 9.2076,25.371375 10.2,25.371375 L13.8,25.371375 C14.7924,25.371375 15.6,26.1845833 15.6,27.183875 C15.6,28.1831667 14.7924,28.996375 13.8,28.996375 L13.8,28.996375 Z M10.2,26.5797083 C9.8688,26.5797083 9.6,26.8515833 9.6,27.183875 C9.6,27.5161667 9.8688,27.7880417 10.2,27.7880417 L13.8,27.7880417 C14.13,27.7880417 14.4,27.5161667 14.4,27.183875 C14.4,26.8515833 14.13,26.5797083 13.8,26.5797083 L10.2,26.5797083 L10.2,26.5797083 Z" id="Shape"></path>
                <path d="M19.05,13.8922083 C17.4684,13.8922083 14.7432,12.082125 13.4184,10.2672083 C11.628,13.7798333 4.8792,13.8922083 4.8,13.8922083 C4.4688,13.8922083 4.2,13.6203333 4.2,13.2880417 C4.2,12.95575 4.4688,12.683875 4.8,12.683875 C6.4584,12.683875 12.6504,11.9564583 12.6504,8.40395833 C12.6504,8.07045833 12.9192,7.79979167 13.2504,7.79979167 C13.5816,7.79979167 13.8504,8.07045833 13.8504,8.40395833 C13.8504,9.72466667 17.4468,12.683875 19.05,12.683875 C19.38,12.683875 19.65,12.95575 19.65,13.2880417 C19.65,13.6203333 19.38,13.8922083 19.05,13.8922083 L19.05,13.8922083 Z" id="Shape"></path>
            </g>
        </g>
    </g>
</svg>