<?xml version="1.0" encoding="UTF-8"?>
<svg width="22px" height="22px" viewBox="0 0 22 22" version="1.1" xmlns="http://www.w3.org/2000/svg" xmlns:xlink="http://www.w3.org/1999/xlink">
    <!-- Generator: Sketch 44.1 (41455) - http://www.bohemiancoding.com/sketch -->
    <title>Shape</title>
    <desc>Created with Sketch.</desc>
    <defs></defs>
    <g id="Videos" stroke="none" stroke-width="1" fill="none" fill-rule="evenodd">
        <g id="14.-Player-" transform="translate(-338.000000, -171.000000)" fill="#03335A">
            <g id="Group-19">
                <g id="Group-3" transform="translate(333.000000, 166.000000)">
                    <path d="M27,7.000905 L27,24.999095 C27,26.1041643 26.1034544,27 24.999095,27 L7.000905,27 C5.89583568,27 5,26.1034544 5,24.999095 L5,7.000905 C5,5.89583568 5.89654562,5 7.000905,5 L24.999095,5 C26.1041643,5 27,5.89654562 27,7.000905 Z M7,7 L25,7 L25,25 L7,25 L7,7 L7,7 L7,7 Z M17.8877863,23.398194 L23.4423881,23.4423881 L23.398194,17.8877863 L21.3799934,17.873055 L21.3990575,19.984844 L18.1642135,16.75 L16.75,18.1642135 L19.984844,21.3990575 L17.873055,21.3799934 L17.8877863,23.398194 L17.8877863,23.398194 L17.8877863,23.398194 Z M14.0546018,8.54419418 L8.5,8.5 L8.54419418,14.0546018 L10.5623948,14.0693332 L10.5433306,11.9575442 L13.7781746,15.1923882 L15.1923882,13.7781746 L11.9575442,10.5433306 L14.0693332,10.5623948 L14.0546018,8.54419418 L14.0546018,8.54419418 L14.0546018,8.54419418 Z" id="Shape"></path>
                </g>
            </g>
        </g>
    </g>
</svg>