<?xml version="1.0" encoding="UTF-8"?>
<svg width="100px" height="100px" viewBox="0 0 100 100" version="1.1" xmlns="http://www.w3.org/2000/svg" xmlns:xlink="http://www.w3.org/1999/xlink">
    <!-- Generator: Sketch 44.1 (41455) - http://www.bohemiancoding.com/sketch -->
    <title>Shape</title>
    <desc>Created with Sketch.</desc>
    <defs></defs>
    <g id="Icons" stroke="none" stroke-width="1" fill="none" fill-rule="evenodd">
        <g id="Artboard" transform="translate(-2521.000000, -521.000000)" fill="#002C4D">
            <path d="M2570.99914,521 C2543.38562,521 2521,543.386485 2521,570.999135 C2521,598.611785 2543.38562,621.000865 2570.99914,621.000865 C2598.61265,621.000865 2621,598.61265 2621,570.999135 C2621,543.385621 2598.61265,521 2570.99914,521 Z M2534.57679,589.833212 C2534.57679,574.213508 2548.2945,574.216966 2551.33856,570.132863 L2551.68697,568.270637 C2547.41007,566.102362 2544.39108,560.877926 2544.39108,554.765605 C2544.39108,546.714113 2549.62849,540.185946 2556.08749,540.185946 C2561.1736,540.185946 2565.4894,544.240654 2567.10004,549.892174 C2560.6298,551.948058 2555.84369,558.963828 2555.84369,567.303213 C2555.84369,573.044645 2558.10707,578.323547 2561.82287,581.67711 C2561.22634,581.983159 2560.56237,582.295259 2559.99177,582.562403 C2556.99526,583.96815 2552.842,585.922018 2549.84549,589.833212 L2534.57679,589.833212 L2534.57679,589.833212 Z M2571.1513,602.369091 L2570.84611,602.369091 L2549.48843,602.369091 C2549.48843,586.750251 2563.20614,586.754573 2566.2502,582.670471 L2566.59861,580.808244 C2562.32171,578.63997 2559.30273,573.415534 2559.30273,567.303213 C2559.30273,559.25172 2564.54013,552.723554 2570.99914,552.723554 C2577.45814,552.723554 2582.69554,559.25172 2582.69554,567.303213 C2582.69554,573.362797 2579.73016,578.556109 2575.51032,580.757236 L2575.90715,582.874503 C2579.24688,586.760625 2592.50811,587.013936 2592.50811,602.369955 L2571.1513,602.369955 L2571.1513,602.369091 Z M2592.15105,589.833212 C2589.15368,585.922883 2585.00041,583.969015 2582.00391,582.563267 C2581.41429,582.286613 2580.76069,581.979701 2580.17626,581.679704 C2583.88861,578.321818 2586.15458,573.031677 2586.15458,567.303213 C2586.15458,558.964692 2581.3702,551.950652 2574.90168,549.893903 C2576.51146,544.241519 2580.82726,540.186811 2585.91424,540.186811 C2592.37411,540.186811 2597.61064,546.714977 2597.61064,554.76647 C2597.61064,560.826054 2594.64526,566.018501 2590.42542,568.220493 L2590.82225,570.33776 C2594.16198,574.223018 2607.42321,574.476329 2607.42321,589.834077 L2592.15105,589.834077 L2592.15105,589.833212 Z" id="Shape"></path>
        </g>
    </g>
</svg>