<?xml version="1.0" encoding="UTF-8"?>
<svg width="27px" height="27px" viewBox="0 0 27 27" version="1.1" xmlns="http://www.w3.org/2000/svg" xmlns:xlink="http://www.w3.org/1999/xlink">
    <!-- Generator: Sketch 44.1 (41455) - http://www.bohemiancoding.com/sketch -->
    <title>Shape</title>
    <desc>Created with Sketch.</desc>
    <defs></defs>
    <g id="Icons" stroke="none" stroke-width="1" fill="none" fill-rule="evenodd">
        <g id="Artboard" transform="translate(-1699.000000, -423.000000)" fill-rule="nonzero" fill="#03335A">
            <path d="M1713.95244,427.950929 L1712.4995,430.513293 L1711.62987,428.977874 L1711.06549,427.980193 C1710.92901,427.757468 1710.92901,427.757468 1710.84193,427.615209 C1710.80761,427.559092 1710.80761,427.559092 1710.78532,427.52257 C1709.5771,425.707828 1708.33872,425 1706.25,425 C1703.34445,425 1701,427.242283 1701,429.980066 C1701,434.440466 1703.90206,438.257237 1712.5,446.534284 C1721.09794,438.257237 1724,434.440466 1724,429.980066 C1724,427.242283 1721.65555,425 1718.75,425 C1716.66888,425 1715.42042,425.71534 1714.22275,427.511734 L1713.95244,427.950929 Z M1712.52823,426.44925 C1714.10704,424.072026 1715.96986,423 1718.75,423 C1722.74068,423 1726,426.117288 1726,429.980066 C1726,433.021709 1724.58404,436.118399 1721.88078,439.567082 C1719.8874,442.110126 1717.91515,444.123001 1713.19133,448.642803 L1712.5,449.304277 L1711.80867,448.642803 C1707.08485,444.123001 1705.1126,442.110126 1703.11922,439.567082 C1700.41596,436.118399 1699,433.021709 1699,429.980066 C1699,426.117288 1702.25932,423 1706.25,423 C1709.04282,423 1710.89722,424.068278 1712.45427,426.419118 L1712.62056,426.67018 L1712.62056,426.971319 C1712.55385,426.729731 1712.51407,426.585668 1712.49283,426.506909 C1712.51475,426.517144 1712.51879,426.523743 1712.54797,426.571453 C1712.57994,426.623686 1712.60009,426.656609 1712.62056,426.690097 C1712.65547,426.747192 1712.6913,426.805932 1712.78822,426.964816 L1713.37013,427.992226 L1711.63011,427.991799 L1712.23033,426.934487 L1712.52823,426.44925 Z" id="Shape"></path>
        </g>
    </g>
</svg>