<?xml version="1.0" encoding="UTF-8"?>
<svg width="27px" height="27px" viewBox="0 0 27 27" version="1.1" xmlns="http://www.w3.org/2000/svg" xmlns:xlink="http://www.w3.org/1999/xlink">
    <!-- Generator: Sketch 44.1 (41455) - http://www.bohemiancoding.com/sketch -->
    <title>Group 29</title>
    <desc>Created with Sketch.</desc>
    <defs></defs>
    <g id="Icons" stroke="none" stroke-width="1" fill="none" fill-rule="evenodd">
        <g id="Artboard" transform="translate(-226.000000, -733.000000)" fill="#013158">
            <g id="Group-29" transform="translate(226.000000, 733.000000)">
                <g id="Group">
                    <path d="M24.9750435,11.256087 C24.0684348,6.6133913 20.3866087,2.93156522 15.743913,2.02495652 C15.6568696,1.17147826 14.9424348,0.5 14.0652174,0.5 L12.9347826,0.5 C12.0575652,0.5 11.3431304,1.17147826 11.256087,2.02495652 C6.6133913,2.93043478 2.93156522,6.6133913 2.02495652,11.256087 C1.17147826,11.3431304 0.5,12.0575652 0.5,12.9347826 L0.5,14.0652174 C0.5,14.9424348 1.17147826,15.6568696 2.02495652,15.743913 C2.93156522,20.3866087 6.6133913,24.0684348 11.256087,24.9750435 C11.3431304,25.8296522 12.0575652,26.5 12.9347826,26.5 L14.0652174,26.5 C14.9424348,26.5 15.6568696,25.8285217 15.743913,24.9750435 C20.3866087,24.0684348 24.0684348,20.3866087 24.9750435,15.743913 C25.8296522,15.6568696 26.5,14.9424348 26.5,14.0652174 L26.5,12.9347826 C26.5,12.0586957 25.8285217,11.3431304 24.9750435,11.256087 Z M15.7608696,3.17686957 C19.7682609,4.05408696 22.945913,7.23173913 23.8231304,11.2391304 L19.8813043,11.2391304 C19.2007826,9.32417391 17.6758261,7.79921739 15.7608696,7.11869565 L15.7608696,3.17686957 Z M12.3695652,2.19565217 C12.3695652,1.88365217 12.6227826,1.63043478 12.9347826,1.63043478 L14.0652174,1.63043478 C14.3772174,1.63043478 14.6304348,1.88365217 14.6304348,2.19565217 L14.6304348,7.2826087 C14.6304348,7.5946087 14.3772174,7.84782609 14.0652174,7.84782609 L12.9347826,7.84782609 C12.6227826,7.84782609 12.3695652,7.5946087 12.3695652,7.2826087 L12.3695652,2.19565217 Z M11.2391304,3.17686957 L11.2391304,7.11869565 C9.32417391,7.80034783 7.79921739,9.32417391 7.11869565,11.2391304 L3.17686957,11.2391304 C4.05408696,7.23173913 7.23173913,4.05408696 11.2391304,3.17686957 Z M1.63043478,14.0652174 L1.63043478,12.9347826 C1.63043478,12.6227826 1.88365217,12.3695652 2.19565217,12.3695652 L7.2826087,12.3695652 C7.5946087,12.3695652 7.84782609,12.6227826 7.84782609,12.9347826 L7.84782609,14.0652174 C7.84782609,14.3772174 7.5946087,14.6304348 7.2826087,14.6304348 L2.19565217,14.6304348 C1.88365217,14.6304348 1.63043478,14.3772174 1.63043478,14.0652174 Z M11.2391304,23.8231304 C7.23173913,22.945913 4.05408696,19.7682609 3.17686957,15.7608696 L7.11869565,15.7608696 C7.79921739,17.6758261 9.32417391,19.2007826 11.2391304,19.8813043 L11.2391304,23.8231304 Z M14.6304348,24.8043478 C14.6304348,25.1163478 14.3772174,25.3695652 14.0652174,25.3695652 L12.9347826,25.3695652 C12.6227826,25.3695652 12.3695652,25.1163478 12.3695652,24.8043478 L12.3695652,19.7173913 C12.3695652,19.4053913 12.6227826,19.1521739 12.9347826,19.1521739 L14.0652174,19.1521739 C14.3772174,19.1521739 14.6304348,19.4053913 14.6304348,19.7173913 L14.6304348,24.8043478 Z M15.4782609,18.7836522 C15.1753043,18.3258261 14.6553043,18.0217391 14.0652174,18.0217391 L12.9347826,18.0217391 C12.3446957,18.0217391 11.8246957,18.3258261 11.5217391,18.7847826 C10.0013043,18.2127826 8.78834783,16.9998261 8.21634783,15.4793913 C8.67417391,15.1753043 8.97826087,14.6553043 8.97826087,14.0652174 L8.97826087,12.9347826 C8.97826087,12.3446957 8.67417391,11.8246957 8.21521739,11.5217391 C8.78721739,10.0013043 10.0001739,8.78721739 11.5206087,8.21634783 C11.8246957,8.67417391 12.3446957,8.97826087 12.9347826,8.97826087 L14.0652174,8.97826087 C14.6553043,8.97826087 15.1753043,8.67417391 15.4782609,8.21521739 C16.9986957,8.78721739 18.2127826,10.0001739 18.7836522,11.5206087 C18.3258261,11.8246957 18.0217391,12.3446957 18.0217391,12.9347826 L18.0217391,14.0652174 C18.0217391,14.6553043 18.3258261,15.1753043 18.7847826,15.4782609 C18.2127826,16.9986957 16.9998261,18.2127826 15.4782609,18.7836522 Z M15.7608696,23.8231304 L15.7608696,19.8813043 C17.6758261,19.2007826 19.2007826,17.6758261 19.8813043,15.7608696 L23.8231304,15.7608696 C22.945913,19.7682609 19.7682609,22.945913 15.7608696,23.8231304 Z M25.3695652,14.0652174 C25.3695652,14.3772174 25.1163478,14.6304348 24.8043478,14.6304348 L19.7173913,14.6304348 C19.4053913,14.6304348 19.1521739,14.3772174 19.1521739,14.0652174 L19.1521739,12.9347826 C19.1521739,12.6227826 19.4053913,12.3695652 19.7173913,12.3695652 L24.8043478,12.3695652 C25.1163478,12.3695652 25.3695652,12.6227826 25.3695652,12.9347826 L25.3695652,14.0652174 Z" id="Shape"></path>
                </g>
            </g>
        </g>
    </g>
</svg>