<?xml version="1.0" encoding="UTF-8"?>
<svg width="30px" height="20px" viewBox="0 0 30 20" version="1.1" xmlns="http://www.w3.org/2000/svg" xmlns:xlink="http://www.w3.org/1999/xlink">
    <!-- Generator: Sketch 44.1 (41455) - http://www.bohemiancoding.com/sketch -->
    <title>Group 17</title>
    <desc>Created with Sketch.</desc>
    <defs></defs>
    <g id="Icons" stroke="none" stroke-width="1" fill="none" fill-rule="evenodd">
        <g id="Artboard" transform="translate(-225.000000, -478.000000)" fill="#003057">
            <g id="Group-17" transform="translate(225.000000, 478.000000)">
                <path d="M26.9277028,1.68492381 C26.5667749,1.10438492 26.0048572,0.702511902 25.3450718,0.553373481 C24.6857791,0.404735508 24.0085878,0.526181589 23.4394449,0.896692155 C22.7062178,1.37405192 22.2992092,2.17950789 22.2833427,3.00662982 C22.271725,3.01044585 21.1898035,3.45072954 21.1898035,3.45072954 C21.1216574,3.47908919 21.0479283,3.48526159 20.9760055,3.47008083 L18.8101098,3.00798522 C17.5613125,2.74157124 16.2916609,2.72689097 15.0371163,2.96344387 L12.9997951,3.34796747 C12.441921,3.45335697 11.9319749,3.71845719 11.5222158,4.10602527 L9.62549717,3.79988695 C9.60234391,3.79605005 5.41751831,0.125809918 5.41751831,0.125809918 C5.20766126,-0.0600292456 4.88877048,-0.0373415366 4.70600762,0.176356831 C4.52308058,0.38988837 4.54541277,0.713522101 4.75576246,0.899194471 L8.95076897,4.60396668 C8.98065472,4.63049129 9.0136604,4.65334583 9.048965,4.67202988 C9.18082353,4.74159445 9.32187769,4.78880494 9.46769388,4.81215993 L10.7745385,5.02314744 L9.45373626,6.76897632 C9.22827948,7.06675271 9.13123291,7.43592872 9.18049514,7.80810753 C9.22992158,8.18045317 9.4194169,8.51042612 9.7144976,8.73730338 C10.1370033,9.0622717 10.7136996,9.11131723 11.1833328,8.86141857 L14.8730732,6.90193304 C14.9899888,6.83937497 15.1323567,6.84621467 15.2436893,6.91961612 L23.1816393,12.1461342 C23.3573412,12.2619083 23.4777053,12.4400737 23.5205634,12.648267 C23.5634215,12.8564602 23.5235191,13.0686572 23.4082455,13.2461553 C23.1778625,13.6004842 22.7169323,13.7075836 22.357975,13.4893811 L21.9142045,13.219589 C21.9138145,13.2193596 21.4996629,12.9675634 21.4996629,12.9675634 C21.4996013,12.9675216 18.0651008,10.8796253 18.0651008,10.8796253 C17.8260148,10.7344906 17.5163197,10.8132303 17.373295,11.0561225 C17.2302704,11.2990146 17.3081047,11.6136399 17.5471907,11.7591083 L21.3955143,14.0986967 C21.5121221,14.1697835 21.5929737,14.2829927 21.623311,14.417576 C21.6535252,14.5523678 21.6290583,14.6901624 21.5541797,14.8056028 C21.2952246,15.2056408 20.7677905,15.3394317 20.3534952,15.1102189 L16.9977527,13.2521609 C16.7529195,13.1170355 16.4465084,13.2087873 16.3135005,13.4570177 C16.180164,13.7055818 16.2703139,14.0168707 16.5149829,14.1523298 L18.936919,15.4933454 L19.5344286,15.8639185 C19.6464181,15.9333163 19.7219535,16.0437521 19.746913,16.1748738 C19.7720367,16.3056619 19.7426436,16.4367836 19.6643167,16.5435494 C19.4145572,16.9382491 18.9546123,17.0657007 18.5743079,16.8698523 L15.9760542,15.5296082 C15.7274442,15.4018229 15.4239889,15.5019158 15.2978776,15.7548173 C15.1717663,16.0070514 15.2707834,16.3156712 15.5192292,16.4437901 L17.680486,17.558554 C17.2386654,17.8378341 16.7112723,17.9557352 16.1786861,17.8731168 L14.2260343,17.5697102 L14.364687,17.3676477 C14.804106,16.7273867 14.6858766,15.8388953 14.0967005,15.3397653 C13.9036952,15.1785949 13.6853609,15.0803787 13.4560658,15.0299986 C13.6365297,14.4012274 13.4461928,13.6960312 12.9227817,13.2658402 C12.6458254,13.0379412 12.3027141,12.9136383 11.9503455,12.9004594 C11.956647,12.7650003 11.952357,12.6284778 11.925386,12.4917884 C11.8381918,12.0493777 11.584984,11.6700256 11.2127258,11.423797 C10.4775077,10.9368659 9.48095353,11.1368223 8.9787457,11.8642892 C8.84967867,11.6672521 8.68091453,11.4959265 8.47095485,11.3644085 C7.82990966,10.9620559 7.01492782,11.0685923 6.49266615,11.5835077 L4.6524759,9.11849046 C4.59319704,9.03908341 4.51224278,8.97886085 4.41995824,8.94532974 L0.674059065,7.58873722 C0.411655648,7.49381579 0.123143227,7.63294491 0.0293807982,7.89935889 C-0.0640532033,8.16610648 0.0727315357,8.4592119 0.335134986,8.55430016 L3.93948746,9.85951169 L5.86629712,12.4406367 L5.33180202,13.2171283 C4.82423695,13.9548131 4.99829679,14.9794308 5.71916729,15.5009149 C6.01866105,15.7174283 6.33426769,15.8201904 6.65900835,15.8252784 C6.65896729,16.350933 6.90045479,16.8699356 7.35286672,17.1934859 C7.63234772,17.3933381 7.95780678,17.4974347 8.29196886,17.4974347 C8.39049332,17.4974347 8.48983878,17.4884264 8.58885585,17.470076 C8.68013462,17.4532062 8.76710298,17.4248465 8.85259346,17.3935883 C8.992375,17.7628269 9.25081694,18.0762637 9.5974177,18.2658146 C9.85177498,18.4029419 10.1151636,18.4660004 10.3754324,18.4660004 C10.6246376,18.4660004 10.8702098,18.4063826 11.0939219,18.2953629 C11.2550709,18.600688 11.5129792,18.8428919 11.8355646,18.9781425 C12.0175064,19.0545467 12.2084796,19.0909138 12.3978108,19.0909138 C12.8503458,19.0909138 13.2911606,18.879822 13.5778873,18.5055997 L16.0263017,18.886057 C16.1921512,18.9117475 16.3575081,18.9244259 16.5215513,18.9244259 C17.3666652,18.9244259 18.1716304,18.5865081 18.7777404,17.9773802 C18.8354183,17.9829478 18.8931372,17.9875563 18.9506713,17.9875563 C19.5521631,17.9875563 20.1349351,17.6852757 20.4846969,17.1404366 C20.6711544,16.8788813 20.7644242,16.5633176 20.7605038,16.2442089 C21.4134539,16.245606 22.0320232,15.9329825 22.3970563,15.3687922 C22.5446377,15.1410182 22.6205631,14.8837378 22.6355675,14.6198053 C22.6766194,14.6227038 22.7176507,14.6281047 22.758641,14.6281047 C23.3396068,14.6281047 23.9069434,14.3391698 24.250301,13.8106792 C24.5148392,13.4033011 24.6063027,12.9158486 24.5079425,12.4384054 C24.4947032,12.3740749 24.4702569,12.3146239 24.4506956,12.2529625 L26.830492,9.96811247 C26.8632718,9.93664574 26.8826689,9.89767207 26.9052884,9.8604292 C27.120318,9.91072588 27.3052156,9.9310781 27.4889636,9.9310781 C27.9648367,9.9310781 28.4315141,9.79328354 28.8421968,9.52603546 C30.0036358,8.76983353 30.3492924,7.1908679 29.6129864,6.00610151 L26.9277028,1.68492381 Z M6.30505934,14.6664736 C6.03280347,14.4692906 5.96712051,14.0825983 6.15858632,13.8043401 L7.11919963,12.4090449 C7.23644371,12.2388869 7.42380435,12.1458005 7.6180617,12.1458005 C7.73120061,12.1458005 7.84663841,12.177163 7.95189536,12.2432243 C8.09557684,12.3333079 8.19410126,12.4751062 8.22940586,12.6422614 C8.26163157,12.7949656 8.23422947,12.9491712 8.15717514,13.0827327 L7.14699173,14.5853984 C7.05581556,14.692894 6.93428157,14.7666917 6.79472578,14.7919234 C6.63166782,14.8219513 6.46778883,14.783916 6.33264616,14.6864922 L6.04019278,15.1038796 L6.30505934,14.6664736 Z M7.93153363,16.3540401 C7.65156002,16.1538543 7.58095082,15.7571527 7.77405874,15.4698861 L7.98050849,15.1627676 C7.99399403,15.1443964 8.01084583,15.129591 8.02365399,15.1105525 C8.32169044,14.6681419 8.6740795,14.1416532 8.97244437,13.6949051 C8.98034684,13.6830817 8.98465729,13.6697568 8.99223137,13.6577873 L9.79873604,12.4580904 C9.9197569,12.2779232 10.1191047,12.1804994 10.321244,12.1804994 C10.4389807,12.1804994 10.5575384,12.2135301 10.6623028,12.2825942 C10.8053274,12.3773488 10.9027024,12.5231508 10.9362007,12.6929751 C10.969699,12.8631331 10.9352155,13.0359601 10.8389899,13.1794266 L10.562752,13.5908919 C10.5564301,13.5998377 10.5479323,13.60674 10.5417746,13.6158317 L9.02433396,15.8562447 C8.99707552,15.8965112 8.97977218,15.941553 8.95629053,15.9837589 L8.81611898,16.1925568 C8.72038598,16.3353561 8.57555508,16.430778 8.40839194,16.4614731 C8.24139303,16.4925019 8.07242361,16.4544666 7.93153363,16.3540401 Z M9.76211776,16.9502602 C9.7304873,16.8172617 9.74105815,16.6824908 9.79066932,16.5596685 L11.3930257,14.1729113 C11.4935206,14.0392247 11.63634,13.9509345 11.8017379,13.9264534 C11.9762904,13.9020975 12.1498576,13.9491411 12.2881202,14.0625798 C12.5418207,14.2711067 12.5956807,14.6487906 12.4107832,14.9223779 L11.955395,15.5951899 C11.9444136,15.6100162 11.9302713,15.6217771 11.919803,15.6370413 L11.1811981,16.7143746 C11.1559102,16.751263 11.1406799,16.7925096 11.1189224,16.8310454 L10.8941635,17.1631245 C10.711565,17.432708 10.3598327,17.5187879 10.0767392,17.3639775 C9.9133528,17.2725594 9.80415486,17.127091 9.76211776,16.9502602 Z M11.9422994,17.7166382 C11.9120237,17.6120203 11.9177915,17.5025437 11.955785,17.4033057 L12.7831029,16.1810879 C12.8589667,16.0930061 12.9602416,16.0344935 13.07648,16.0180615 C13.0991406,16.0150587 13.121637,16.0133905 13.1441334,16.0133905 C13.2525103,16.0133905 13.3566178,16.0504249 13.4428267,16.1204899 C13.444633,16.1221582 13.4464393,16.1234927 13.4482455,16.125161 C13.6405324,16.2856433 13.6794496,16.5739108 13.5370818,16.7817704 L12.7979842,17.8587702 C12.6699025,18.0452766 12.4275323,18.1176772 12.2203026,18.0305963 C12.0849957,17.973877 11.9836797,17.8594374 11.9422994,17.7166382 Z M23.7304204,11.2860024 L15.7924704,6.0594844 C15.3758762,5.78522982 14.8443369,5.76054024 14.4055747,5.99375672 L10.7159986,7.95307543 C10.5907083,8.01997086 10.4361892,8.00662514 10.3232144,7.92004476 C10.2443949,7.85932172 10.1936548,7.77107313 10.1805182,7.67148069 C10.1672174,7.57205508 10.1931622,7.47329674 10.2535905,7.39355604 L11.9897554,5.09892609 C12.2845077,4.70939786 12.7086554,4.4454862 13.1842,4.35556944 L15.2213571,3.97104584 C16.3460136,3.7583484 17.483314,3.77202778 18.6028801,4.01091617 L20.76894,4.47317858 C21.0370907,4.53023154 21.3124665,4.50554196 21.5666595,4.40144534 L22.4744597,4.02953763 C22.5283197,4.16170197 22.5912316,4.29161421 22.6688196,4.41645927 L25.3541033,8.73763697 C25.5157244,8.99760745 25.7194442,9.21933409 25.9524135,9.40100273 L23.8708178,11.3996913 C23.8240392,11.3616977 23.7813658,11.3195544 23.7304204,11.2860024 Z M27.1557869,8.86859187 C26.7603755,8.77917552 26.4234218,8.53845209 26.2073249,8.1904624 L23.5220413,3.8692847 C23.0806518,3.1591255 23.2878815,2.21274706 23.9837925,1.75965982 C24.2299394,1.59934433 24.5097488,1.51676769 24.7949771,1.51676769 C24.904996,1.51676769 25.0160002,1.52911248 25.1260192,1.55396888 C25.5214306,1.64338523 25.8583842,1.88410866 26.0744811,2.23209835 L28.7597648,6.55327605 C29.2011543,7.26343524 28.9939245,8.20981372 28.2978494,8.66306776 C27.9569548,8.88494039 27.5515267,8.95817501 27.1557869,8.86859187 Z" id="Jobs-Icon"></path>
            </g>
        </g>
    </g>
</svg>