<?xml version="1.0" encoding="UTF-8"?>
<svg width="30px" height="27px" viewBox="0 0 30 27" version="1.1" xmlns="http://www.w3.org/2000/svg" xmlns:xlink="http://www.w3.org/1999/xlink">
    <!-- Generator: Sketch 44.1 (41455) - http://www.bohemiancoding.com/sketch -->
    <title>Group 26</title>
    <desc>Created with Sketch.</desc>
    <defs></defs>
    <g id="Icons" stroke="none" stroke-width="1" fill="none" fill-rule="evenodd">
        <g id="Artboard" transform="translate(-225.000000, -630.000000)" fill="#003057">
            <g id="Group-26" transform="translate(225.000000, 630.000000)">
                <g id="Group">
                    <path d="M29.1832895,0.900789474 C28.5351316,0.252631579 27.7069737,-0.0402631579 26.7852632,0.0552631579 C24.9663158,0.242763158 22.9077632,1.94565789 21.15,3.82618421 L19.0148684,1.69065789 L15.4421053,1.69065789 L0.290921053,16.8410526 L10.2540789,26.8042105 L25.4048684,11.6538158 L25.4048684,8.08105263 L23.9613158,6.63789474 C25.8311842,5.85157895 29.2953947,4.18065789 29.6715789,2.44618421 C29.7927632,1.88526316 29.6194737,1.33697368 29.1832895,0.900789474 Z M23.9960526,11.0703947 L10.2544737,24.8119737 L2.28355263,16.8410526 L16.0251316,3.09947368 L18.4310526,3.09947368 L20.2097368,4.87855263 C19.6322368,5.55276316 19.1068421,6.21671053 18.6548684,6.81355263 C18.3442105,6.69473684 18.0090789,6.62171053 17.6561842,6.62171053 L17.6561842,6.62171053 L17.6546053,6.62171053 C16.1013158,6.6225 14.8373684,7.88605263 14.8373684,9.43973684 C14.8373684,10.9942105 16.1013158,12.2577632 17.6561842,12.2577632 C19.2090789,12.2577632 20.4730263,10.995 20.4742105,9.44131579 C20.4734211,8.75289474 20.2156579,8.13 19.8051316,7.64052632 C20.2334211,7.07763158 20.7138158,6.48078947 21.2194737,5.8875 L23.9968421,8.66486842 L23.9968421,11.0703947 L23.9960526,11.0703947 Z M19.0646053,9.43973684 C19.0638158,10.2189474 18.4330263,10.8489474 17.6557895,10.8489474 C16.8769737,10.8489474 16.2461842,10.2185526 16.2461842,9.43973684 C16.2461842,8.6625 16.8773684,8.03131579 17.6557895,8.03131579 C17.6901316,8.03131579 17.7232895,8.03881579 17.7576316,8.04118421 C17.4086842,8.53618421 17.1659211,8.90092105 17.0656579,9.05407895 C16.8528947,9.38013158 16.9444737,9.81592105 17.2701316,10.0294737 C17.3893421,10.1072368 17.5227632,10.1443421 17.6546053,10.1443421 C17.8847368,10.1443421 18.1101316,10.0322368 18.2451316,9.82578947 C18.4278947,9.54631579 18.6572368,9.20960526 18.9232895,8.83578947 C19.0109211,9.01973684 19.0646053,9.22223684 19.0646053,9.43973684 Z M28.2943421,2.14736842 C28.1032895,3.02842105 25.4159211,4.55407895 22.8809211,5.55710526 L22.155,4.83118421 C23.7702632,3.09078947 25.5402632,1.60026316 26.9297368,1.45657895 C27.4357895,1.40684211 27.8348684,1.545 28.1873684,1.89671053 C28.3192105,2.03013158 28.3053947,2.09526316 28.2943421,2.14736842 Z" id="Shape"></path>
                </g>
            </g>
        </g>
    </g>
</svg>