<?xml version="1.0" encoding="UTF-8"?>
<svg width="26px" height="24px" viewBox="0 0 26 24" version="1.1" xmlns="http://www.w3.org/2000/svg" xmlns:xlink="http://www.w3.org/1999/xlink">
    <!-- Generator: Sketch 44.1 (41455) - http://www.bohemiancoding.com/sketch -->
    <title>Group 42</title>
    <desc>Created with Sketch.</desc>
    <defs></defs>
    <g id="Icons" stroke="none" stroke-width="1" fill="none" fill-rule="evenodd">
        <g id="Artboard" transform="translate(-695.000000, -473.000000)" fill="#DC001F">
            <g id="Group-42" transform="translate(695.000000, 473.000000)">
                <path d="M24.25,16.149338 L24.25,18.8133814 C24.25,20.4699855 22.9085213,21.8125 21.25356,21.8125 L13.74644,21.8125 C12.0891401,21.8125 10.75,20.4718406 10.75,18.8065991 L10.75,4.75590086 C10.75,3.09524794 12.0917827,1.75 13.74644,1.75 L21.25356,1.75 C22.9118423,1.75 24.25,3.08979241 24.25,4.75822401 L24.25,7.76472651 C24.25,8.17894007 24.5857864,8.51472651 25,8.51472651 C25.4142136,8.51472651 25.75,8.17894007 25.75,7.76472651 L25.75,4.75822401 C25.75,2.26177495 23.7406796,0.25 21.25356,0.25 L13.74644,0.25 C11.2624883,0.25 9.25,2.26768565 9.25,4.75590086 L9.25,18.8065991 C9.25,21.2998872 11.260332,23.3125 13.74644,23.3125 L21.25356,23.3125 C23.7372077,23.3125 25.75,21.2981536 25.75,18.8133814 L25.75,16.149338 C25.75,15.7351244 25.4142136,15.399338 25,15.399338 C24.5857864,15.399338 24.25,15.7351244 24.25,16.149338 Z" id="Rectangle-3" fill-rule="nonzero" transform="translate(17.500000, 11.781250) scale(-1, 1) translate(-17.500000, -11.781250) "></path>
                <path d="M13.7576476,11.4399788 L8.98492252,6.36873164 C8.66151074,6.07810252 8.04135477,5.95812814 7.6798805,6.29415781 C7.32383521,6.62511647 7.33442469,7.26698834 7.68912765,7.5992595 L11.04495,11.1603388 L0.89490123,11.1603388 C0.400685545,11.1603388 1.52727273e-05,11.5609972 1.52727273e-05,12.0552427 C1.52727273e-05,12.5494882 0.400685545,12.9501585 0.89490123,12.9501585 L11.04495,12.9501585 L7.68912765,16.5112378 C7.38376274,16.8171397 7.32732526,17.4815925 7.6798805,17.8163395 C8.03234625,18.1510567 8.67478488,18.0441178 8.98492252,17.7417359 L13.7576476,12.6705066 C13.9209643,12.4969584 14.0005495,12.293342 14.0000126,12.0552427 C13.9916603,11.8419615 13.903872,11.5954503 13.7576476,11.4399788 Z" id="Shape" transform="translate(7.000015, 12.056813) scale(-1, 1) translate(-7.000015, -12.056813) "></path>
            </g>
        </g>
    </g>
</svg>