<?xml version="1.0" encoding="UTF-8"?>
<svg width="25px" height="24px" viewBox="0 0 25 24" version="1.1" xmlns="http://www.w3.org/2000/svg" xmlns:xlink="http://www.w3.org/1999/xlink">
    <!-- Generator: Sketch 44.1 (41455) - http://www.bohemiancoding.com/sketch -->
    <title>Group 19</title>
    <desc>Created with Sketch.</desc>
    <defs></defs>
    <g id="Controls" stroke="none" stroke-width="1" fill="none" fill-rule="evenodd">
        <g id="Artboard" transform="translate(-307.000000, -851.000000)" fill="#7F7F7F">
            <g id="Group-3" transform="translate(139.000000, 752.000000)">
                <g id="Group-19" transform="translate(168.000000, 99.000000)">
                    <path d="M10,2.49141176 C10,1.11529412 8.94666667,0 7.647,0 L2.353,0 C1.05333333,0 0,1.11529412 0,2.49141176 L0,8.09682353 C0,9.47294118 1.05333333,10.5882353 2.353,10.5882353 L7.647,10.5882353 C8.94666667,10.5882353 10,9.47294118 10,8.09682353 L10,2.49141176 L10,2.49141176 Z M8.66666667,8.09647059 C8.66666667,8.69294118 8.21,9.17647059 7.647,9.17647059 L2.353,9.17647059 C1.79,9.17647059 1.33333333,8.69294118 1.33333333,8.09647059 L1.33333333,2.49176471 C1.33333333,1.89529412 1.79,1.41176471 2.353,1.41176471 L7.647,1.41176471 C8.21,1.41176471 8.66666667,1.89529412 8.66666667,2.49176471 L8.66666667,8.09647059 L8.66666667,8.09647059 Z" id="Shape"></path>
                    <path d="M10.5882353,15.9035294 C10.5882353,14.5274118 9.47294118,13.4117647 8.09682353,13.4117647 L2.49141176,13.4117647 C1.11529412,13.4117647 0,14.5274118 0,15.9035294 L0,21.5082353 C0,22.8843529 1.11529412,24 2.49141176,24 L8.09682353,24 C9.47294118,24 10.5882353,22.8843529 10.5882353,21.5082353 L10.5882353,15.9035294 L10.5882353,15.9035294 Z M9.17647059,21.5085882 C9.17647059,22.1047059 8.69294118,22.5882353 8.09682353,22.5882353 L2.49141176,22.5882353 C1.89529412,22.5882353 1.41176471,22.1047059 1.41176471,21.5085882 L1.41176471,15.9031765 C1.41176471,15.3070588 1.89529412,14.8235294 2.49141176,14.8235294 L8.09682353,14.8235294 C8.69294118,14.8235294 9.17647059,15.3070588 9.17647059,15.9031765 L9.17647059,21.5085882 L9.17647059,21.5085882 Z" id="Shape"></path>
                    <rect id="Rectangle-2" x="13" y="2" width="12" height="2" rx="1"></rect>
                    <rect id="Rectangle-2-Copy" x="13" y="6" width="12" height="2" rx="1"></rect>
                    <rect id="Rectangle-2-Copy-3" x="13" y="16" width="12" height="2" rx="1"></rect>
                    <rect id="Rectangle-2-Copy-2" x="13" y="20" width="12" height="2" rx="1"></rect>
                </g>
            </g>
        </g>
    </g>
</svg>