<?xml version="1.0" encoding="UTF-8"?>
<svg width="42px" height="32px" viewBox="0 0 42 32" version="1.1" xmlns="http://www.w3.org/2000/svg" xmlns:xlink="http://www.w3.org/1999/xlink">
    <!-- Generator: Sketch 44.1 (41455) - http://www.bohemiancoding.com/sketch -->
    <title>Group 7</title>
    <desc>Created with Sketch.</desc>
    <defs></defs>
    <g id="Controls" stroke="none" stroke-width="1" fill="none" fill-rule="evenodd">
        <g id="Artboard" transform="translate(-966.000000, -1593.000000)" fill="#003057">
            <g id="Group-14-Copy" transform="translate(796.000000, 1358.000000)">
                <g id="Group-9" transform="translate(1.000000, 0.000000)">
                    <g id="Group-7" transform="translate(169.000000, 235.000000)">
                        <g id="Group-6" fill-rule="nonzero">
                            <path d="M1,5 L1,27 C1,29.2096719 2.79191372,31 5.00365614,31 L36.9963439,31 C39.205769,31 41,29.2078323 41,27 L41,5 C41,2.79032807 39.2080863,1 36.9963439,1 L5.00365614,1 C2.79423102,1 1,2.7921677 1,5 Z M0,5 C0,2.23857625 2.24325385,0 5.00365614,0 L36.9963439,0 C39.7597868,0 42,2.23745928 42,5 L42,27 C42,29.7614237 39.7567461,32 36.9963439,32 L5.00365614,32 C2.24021316,32 0,29.7625407 0,27 L0,5 Z" id="Rectangle"></path>
                        </g>
                        <g id="Group-2" transform="translate(9.000000, 4.000000)">
                            <circle id="Oval-2" cx="12" cy="12" r="6"></circle>
                            <path d="M12,20 C16.418278,20 20,16.418278 20,12 C20,7.581722 16.418278,4 12,4 C7.581722,4 4,7.581722 4,12 C4,16.418278 7.581722,20 12,20 Z M12,21 C7.02943725,21 3,16.9705627 3,12 C3,7.02943725 7.02943725,3 12,3 C16.9705627,3 21,7.02943725 21,12 C21,16.9705627 16.9705627,21 12,21 Z" id="Oval-2" fill-rule="nonzero"></path>
                            <rect id="Rectangle-4" x="11" y="0" width="2" height="4"></rect>
                            <rect id="Rectangle-4" x="11" y="20" width="2" height="4"></rect>
                            <rect id="Rectangle-4" x="0" y="11" width="4" height="2"></rect>
                            <rect id="Rectangle-4" x="20" y="11" width="4" height="2"></rect>
                        </g>
                    </g>
                </g>
            </g>
        </g>
    </g>
</svg>