<?xml version="1.0" encoding="UTF-8"?>
<svg width="85px" height="66px" viewBox="0 0 85 66" version="1.1" xmlns="http://www.w3.org/2000/svg" xmlns:xlink="http://www.w3.org/1999/xlink">
    <!-- Generator: Sketch 44.1 (41455) - http://www.bohemiancoding.com/sketch -->
    <title>Group 20</title>
    <desc>Created with Sketch.</desc>
    <defs></defs>
    <g id="Icons" stroke="none" stroke-width="1" fill="none" fill-rule="evenodd">
        <g id="Artboard" transform="translate(-2820.000000, -487.000000)" fill="#003057">
            <g id="Group-22" transform="translate(2410.000000, 293.000000)">
                <g id="Group-20" transform="translate(410.000000, 192.000000)">
                    <g id="noun_758350_cc" transform="translate(0.000000, 21.000000)">
                        <g id="Group">
                            <g transform="translate(0.000000, 0.492861)" id="Group-17">
                                <g>
                                    <path d="M24.7727273,13.3172588 C24.7516031,12.4861868 25.3374901,11.7891671 26.0909092,11.7490406 C26.3708108,11.7343994 26.6481622,11.8136427 26.8863637,11.9763133 L42.8863637,22.1581388 C43.3316537,22.4257088 43.6087368,22.9400459 43.6087368,23.4990479 C43.6087368,24.0580498 43.3316537,24.5723869 42.8863637,24.8399569 L26.8863637,35.0217751 C26.4531746,35.3169238 25.9080042,35.3263604 25.4666202,35.0463502 C25.0252362,34.76634 24.7587868,34.2420187 24.7727273,33.6809024 L24.7727273,13.3172588 Z M27.5681819,15.9763133 L27.5681819,30.9990842 L39.3863637,23.4990842 L27.5681819,15.9763133 Z" id="Shape"></path>
                                    <path d="M36.8208008,0.507139091 L6.00190061,0.507139091 C2.68362749,0.507139091 0,3.18899796 0,6.49723852 L0,40.5170397 C0,43.8182834 2.68279952,46.5071391 5.99220045,46.5071391 L58.0077996,46.5071391 C61.311214,46.5071391 64,43.8198897 64,40.5049996 L64,28.0203227 L61,28.0203227 L61,40.5049996 C61,42.1616153 59.6557773,43.5071391 58.0077996,43.5071391 L5.99220045,43.5071391 C4.34237535,43.5071391 3,42.1641517 3,40.5170397 L3,6.49723852 C3,4.8456911 4.34064656,3.50713909 6.00190061,3.50713909 L36.8208008,3.50713909 L36.8208008,0.507139091 Z" id="Rectangle-3" fill-rule="nonzero"></path>
                                </g>
                            </g>
                        </g>
                    </g>
                    <g id="noun_757280_cc" transform="translate(62.322663, 24.840418) rotate(-2.000000) translate(-62.322663, -24.840418) translate(37.822663, 0.840418)">
                        <g id="Group" transform="translate(0.000000, -0.000000)">
                            <g transform="translate(24.011773, 23.888516) rotate(40.000000) translate(-24.011773, -23.888516) translate(6.511773, 7.388516)" id="Shape">
                                <path d="M2.69230769,0.162516667 C1.21630385,0.162516667 -9.23705556e-14,1.37882051 -9.23705556e-14,2.85482436 L-9.23705556e-14,29.7779103 C-9.23705556e-14,31.2539231 1.21630385,32.4702179 2.69230769,32.4702179 L32.3076923,32.4702179 C33.7836962,32.4702179 35,31.2539231 35,29.7779103 L35,2.85482436 C35,1.37882051 33.7836962,0.162516667 32.3076923,0.162516667 L2.69230769,0.162516667 L2.69230769,0.162516667 Z M2.69230769,1.95738846 L32.3076923,1.95738846 C32.820384,1.95738846 33.2051282,2.34213269 33.2051282,2.85482436 L33.2051282,22.2197949 L27.5540865,16.5687756 C27.3812558,16.3976031 27.146349,16.3039124 26.9031558,16.3091569 C26.6599625,16.3144014 26.4293131,16.418132 26.2640224,16.5965962 L20.6129808,22.6402436 L11.8489583,13.8762346 C11.6563171,13.6865826 11.3884557,13.5938613 11.1197917,13.6238308 C10.9321196,13.6436852 10.7554809,13.7221913 10.614984,13.8481897 L1.79487179,21.8970769 L1.79487179,2.8546 C1.79487179,2.34190833 2.17961603,1.9571641 2.69230769,1.9571641 L2.69230769,1.95738846 Z M20.1923077,4.64969615 C17.7247359,4.64969615 15.7051282,6.66930385 15.7051282,9.13687564 C15.7051282,11.6044429 17.7247359,13.6240551 20.1923077,13.6240551 C22.6598795,13.6240551 24.6794872,11.6044429 24.6794872,9.13687564 C24.6794872,6.66930385 22.6598795,4.64969615 20.1923077,4.64969615 Z M20.1923077,6.44456795 C21.689859,6.44456795 22.8846154,7.63932436 22.8846154,9.13687564 C22.8846154,10.6344224 21.689859,11.8291833 20.1923077,11.8291833 C18.6947564,11.8291833 17.5,10.6344224 17.5,9.13687564 C17.5,7.63932436 18.6947564,6.44456795 20.1923077,6.44456795 Z M11.1899038,15.7554744 L20.010016,24.5755641 C20.1828467,24.7467366 20.4177535,24.8404274 20.6609468,24.8351829 C20.9041401,24.8299384 21.1347894,24.7262078 21.3000801,24.5477436 L26.9511218,18.5038718 L33.2051282,24.7578782 L33.2051282,29.7779103 C33.2051282,30.2906154 32.820384,30.6753462 32.3076923,30.6753462 L2.69230769,30.6753462 C2.17961603,30.6753462 1.79487179,30.2906154 1.79487179,29.7779103 L1.79487179,24.3372051 L11.1899038,15.7554744 L11.1899038,15.7554744 Z"></path>
                            </g>
                        </g>
                    </g>
                </g>
            </g>
        </g>
    </g>
</svg>