<?xml version="1.0" encoding="UTF-8"?>
<svg width="30px" height="20px" viewBox="0 0 30 20" version="1.1" xmlns="http://www.w3.org/2000/svg" xmlns:xlink="http://www.w3.org/1999/xlink">
    <!-- Generator: Sketch 44.1 (41455) - http://www.bohemiancoding.com/sketch -->
    <title>Group 22</title>
    <desc>Created with Sketch.</desc>
    <defs></defs>
    <g id="Icons" stroke="none" stroke-width="1" fill="none" fill-rule="evenodd">
        <g id="Artboard" transform="translate(-225.000000, -372.000000)" fill="#003057">
            <g id="Group-22" transform="translate(225.000000, 372.000000)">
                <g id="Group-15">
                    <path d="M3.49826087,18.4464516 C3.23478261,18.4464516 2.9973913,18.2877419 2.89565217,18.0464516 C2.79391304,17.8051613 2.85,17.5290323 3.03652174,17.3432258 C3.53086957,16.8529032 4.41,15.6748387 5.03086957,14.3845161 C1.90956522,12.9780645 0,10.5548387 0,7.94709677 C0,3.71096774 4.97347826,0.263225806 11.0869565,0.263225806 C17.2017391,0.263225806 22.173913,3.71096774 22.173913,7.94709677 C22.173913,12.1832258 17.2004348,15.6296774 11.0869565,15.6296774 C10.7217391,15.6296774 10.3630435,15.6129032 10.0082609,15.5883871 C8.19913043,17.483871 6.00913043,18.4464516 3.49826087,18.4464516 L3.49826087,18.4464516 Z M11.0869565,1.55354839 C5.69217391,1.55354839 1.30434783,4.42193548 1.30434783,7.94709677 C1.30434783,10.1806452 3.15391304,12.2877419 6.13173913,13.4464516 C6.29347826,13.5109677 6.42391304,13.6348387 6.49173913,13.7935484 C6.55956522,13.9509677 6.56347826,14.1303226 6.49826087,14.2890323 C6.11086957,15.2451613 5.53695652,16.2270968 4.97608696,17.0180645 C6.59086957,16.7032258 8.02434783,15.8619355 9.25434783,14.4941935 C9.39,14.3432258 9.59086957,14.2658065 9.79695652,14.2812903 C10.2195652,14.3174194 10.6473913,14.3432258 11.0856522,14.3432258 C16.4804348,14.3432258 20.8682609,11.4748387 20.8682609,7.95096774 C20.8695652,4.42193548 16.4817391,1.55354839 11.0869565,1.55354839 L11.0869565,1.55354839 Z" id="Shape"></path>
                    <path d="M26.7182609,19.7367742 C24.3926087,19.7367742 22.3643478,18.8490323 20.6856522,17.0980645 C18.0208696,17.283871 15.21,16.6967742 13.1178261,15.4877419 C12.806087,15.3083871 12.7017391,14.916129 12.8830435,14.6051613 C13.0643478,14.2941935 13.4647826,14.1922581 13.7752174,14.3729032 C15.7213043,15.4954839 18.3952174,16.003871 20.8943478,15.7870968 C21.093913,15.7664516 21.3013043,15.8490323 21.4369565,16 C22.5352174,17.2167742 23.8082609,17.9845161 25.2404348,18.2890323 C24.7434783,17.5729032 24.2426087,16.7045161 23.9021739,15.8580645 C23.8369565,15.6993548 23.8395652,15.52 23.9086957,15.3625806 C23.9765217,15.2051613 24.1069565,15.08 24.2673913,15.0141935 C26.9986957,13.9574194 28.6956522,12.0283871 28.6956522,9.98580645 C28.6956522,6.75741935 24.6652174,4.13032258 19.71,4.13032258 C19.35,4.13032258 19.0578261,3.84 19.0578261,3.48516129 C19.0578261,3.13032258 19.35,2.84 19.71,2.84 C25.383913,2.84 30,6.04258065 30,9.98580645 C30,12.4012903 28.2417391,14.6412903 25.3708696,15.9548387 C25.9408696,17.1187097 26.7456522,18.1987097 27.1813043,18.6296774 C27.3691304,18.8154839 27.4252174,19.0890323 27.3221739,19.3329032 C27.2204348,19.5754839 26.9843478,19.7367742 26.7182609,19.7367742 L26.7182609,19.7367742 Z" id="Shape"></path>
                </g>
            </g>
        </g>
    </g>
</svg>