<?xml version="1.0" encoding="UTF-8"?>
<svg width="22px" height="27px" viewBox="0 0 22 27" version="1.1" xmlns="http://www.w3.org/2000/svg" xmlns:xlink="http://www.w3.org/1999/xlink">
    <!-- Generator: Sketch 44.1 (41455) - http://www.bohemiancoding.com/sketch -->
    <title>Group 19</title>
    <desc>Created with Sketch.</desc>
    <defs></defs>
    <g id="Icons" stroke="none" stroke-width="1" fill="none" fill-rule="evenodd">
        <g id="Artboard" transform="translate(-229.000000, -526.000000)" fill="#003057">
            <g id="Group-24" transform="translate(229.000000, 526.000000)">
                <g id="Group-19">
                    <path d="M9.98185629,6.6347049 L17.4728563,25.9948428 C17.5725045,26.2523789 17.8620596,26.3803724 18.1195957,26.2807242 C18.3771318,26.181076 18.5051252,25.8915209 18.405477,25.6339848 L10.914477,6.27384683 C10.8148288,6.01631072 10.5252737,5.88831729 10.2677376,5.98796549 C10.0102015,6.08761369 9.88220809,6.37716879 9.98185629,6.6347049 Z" id="Stroke-1" fill-rule="nonzero"></path>
                    <path d="M4.52713246,25.9912857 L12.0181325,6.63473397 C12.1177967,6.37720408 11.9898213,6.087641 11.7322914,5.98797674 C11.4747615,5.88831248 11.1851985,6.01628786 11.0855342,6.27381775 L3.59453421,25.6303695 C3.49486995,25.8878994 3.62284533,26.1774624 3.88037522,26.2771267 C4.13790512,26.376791 4.42746819,26.2488156 4.52713246,25.9912857 Z" id="Stroke-2" fill-rule="nonzero"></path>
                    <path d="M13.1981667,6.45427586 C13.1981667,7.64489655 12.2136667,8.60868966 11,8.60868966 C9.78633333,8.60868966 8.80183333,7.64489655 8.80183333,6.45427586 C8.80183333,5.26724138 9.78633333,4.30434483 11,4.30434483 C12.2136667,4.30434483 13.1981667,5.26724138 13.1981667,6.45427586 L13.1981667,6.45427586 Z" id="Fill-3"></path>
                    <path d="M15.6503464,2.69093286 C16.5554518,3.74479497 17.0590833,5.07548669 17.0590833,6.48206897 C17.0590833,7.89089278 16.5569722,9.21865479 15.6525994,10.2746812 C15.4586094,10.5012011 15.4849802,10.8420917 15.7115002,11.0360817 C15.9380201,11.2300716 16.2789107,11.2037008 16.4729006,10.9771809 C17.5430469,9.72758273 18.1390833,8.15144833 18.1390833,6.48206897 C18.1390833,4.81457854 17.541252,3.23499279 16.4696536,1.98727404 C16.2753436,1.76102861 15.934416,1.73513984 15.7081706,1.92944986 C15.4819252,2.12375988 15.4560364,2.46468743 15.6503464,2.69093286 Z" id="Stroke-4" fill-rule="nonzero"></path>
                    <path d="M18.84721,0.929557548 C20.1711594,2.47527611 20.9081667,4.42249427 20.9081667,6.48206897 C20.9081667,8.51666969 20.1878034,10.4433028 18.891018,11.9833549 C18.6989237,12.2114846 18.7281361,12.5521434 18.9562658,12.7442378 C19.1843955,12.9363321 19.5250544,12.9071196 19.7171487,12.6789899 C21.1759941,10.9464766 21.9881667,8.77429681 21.9881667,6.48206897 C21.9881667,4.1618107 21.1571539,1.96622415 19.6674567,0.226994176 C19.4734492,0.000489294421 19.1325565,-0.0258550242 18.9060516,0.168152494 C18.6795468,0.362160012 18.6532024,0.703052666 18.84721,0.929557548 Z" id="Stroke-5" fill-rule="nonzero"></path>
                    <path d="M5.53034641,1.98727404 C4.45874796,3.23499279 3.86091667,4.81457854 3.86091667,6.48206897 C3.86091667,8.15144833 4.45695312,9.72758273 5.52709936,10.9771809 C5.7210893,11.2037008 6.06197991,11.2300716 6.28849985,11.0360817 C6.51501979,10.8420917 6.54139057,10.5012011 6.34740064,10.2746812 C5.44302775,9.21865479 4.94091667,7.89089278 4.94091667,6.48206897 C4.94091667,5.07548669 5.44454817,3.74479497 6.34965359,2.69093286 C6.54396361,2.46468743 6.51807484,2.12375988 6.29182941,1.92944986 C6.06558398,1.73513984 5.72465643,1.76102861 5.53034641,1.98727404 Z" id="Stroke-6" fill-rule="nonzero"></path>
                    <path d="M2.3325433,0.226994176 C0.842846092,1.96622415 0.0118333333,4.1618107 0.0118333333,6.48206897 C0.0118333333,8.77429681 0.824005925,10.9464766 2.28285132,12.6789899 C2.47494563,12.9071196 2.81560449,12.9363321 3.04373418,12.7442378 C3.27186387,12.5521434 3.30107632,12.2114846 3.10898201,11.9833549 C1.81219662,10.4433028 1.09183333,8.51666969 1.09183333,6.48206897 C1.09183333,4.42249427 1.82884055,2.47527611 3.15279003,0.929557548 C3.34679755,0.703052666 3.32045323,0.362160012 3.09394835,0.168152494 C2.86744347,-0.0258550242 2.52655082,0.000489294421 2.3325433,0.226994176 Z" id="Stroke-7" fill-rule="nonzero"></path>
                    <path d="M13.5993559,15.7869425 C13.8580791,15.6904183 13.9895673,15.4024333 13.8930431,15.1437101 C13.7965188,14.884987 13.5085339,14.7534988 13.2498107,14.850023 L7.28047738,17.0770575 C6.84593704,17.2391755 6.84713733,17.8542348 7.28230711,18.0146556 L14.0328857,20.5031851 L5.03961637,22.9507201 C4.77316532,23.0232353 4.6159492,23.2980217 4.68846436,23.5644727 C4.76097951,23.8309238 5.03576591,23.9881399 5.30221696,23.9156247 L15.804467,21.0574178 C16.2741482,20.9295932 16.3028292,20.2741921 15.8461096,20.1058272 L8.89320168,17.5427111 L13.5993559,15.7869425 Z" id="Stroke-8" fill-rule="nonzero"></path>
                </g>
            </g>
        </g>
    </g>
</svg>