<?xml version="1.0" encoding="UTF-8"?>
<svg width="72px" height="78px" viewBox="0 0 72 78" version="1.1" xmlns="http://www.w3.org/2000/svg" xmlns:xlink="http://www.w3.org/1999/xlink">
    <!-- Generator: Sketch 44.1 (41455) - http://www.bohemiancoding.com/sketch -->
    <title>Group</title>
    <desc>Created with Sketch.</desc>
    <defs></defs>
    <g id="Page-1" stroke="none" stroke-width="1" fill="none" fill-rule="evenodd">
        <g id="5.-Calenar-(No-tasks)" transform="translate(-152.000000, -448.000000)" fill-rule="nonzero" fill="#FFFFFF">
            <g id="icon-no-assignments" transform="translate(152.000000, 448.000000)">
                <g id="Group">
                    <path d="M17.0349644,14.1058725 C16.9467392,13.7281091 16.8782642,13.3438568 16.8302388,12.9502801 C16.7758502,12.4789121 16.75,12.0779645 16.75,11.674 C16.75,11.2509162 16.7736619,10.8530158 16.8206453,10.4289606 C16.8276606,10.3708171 16.8276606,10.3708171 16.8345876,10.3242183 C16.8762244,9.96823469 16.9453696,9.58013863 17.0350203,9.1988852 C18.1821304,4.22882745 22.5548828,0.75 27.657,0.75 C32.7458559,0.75 37.1086517,4.21106796 38.2502069,9.0982921 C38.2730342,9.18177322 38.2730342,9.18177322 38.2831416,9.22696793 C38.3635577,9.58213879 38.4269123,9.94734334 38.4733473,10.3199566 C38.4801333,10.3571596 38.4801333,10.3571596 38.4912163,10.4367212 C38.5346551,10.8241482 38.5586785,11.1962314 38.5610765,11.5279586 C38.5629609,11.57495 38.5629609,11.57495 38.564,11.654 C38.5629474,11.7325162 38.5629474,11.7325162 38.5619513,11.742029 C38.5587381,12.1061941 38.5347247,12.4755035 38.4927965,12.8593796 C38.4847212,12.9401324 38.4726985,13.0192818 38.471475,13.0080187 C38.4295349,13.3458064 38.3697912,13.6914664 38.3019232,13.9958901 C38.2875277,14.0693834 38.2875277,14.0693834 38.278975,14.107135 C37.1311298,19.0800023 32.7593211,22.559 27.658,22.559 C22.5548425,22.559 18.1817695,19.0791238 17.0349644,14.1058725 Z M36.0086527,10.7310434 C36.0120954,10.7561444 36.012883,10.7618869 36.0102339,10.7452882 C36.0097105,10.7405406 36.0091834,10.7357924 36.0086527,10.7310434 Z M19.25,11.674 C19.25,11.9757855 19.2697754,12.2825095 19.3127862,12.6555087 C19.3488417,12.9508202 19.4015265,13.2464646 19.4702477,13.5407326 C20.3562406,17.3829203 23.7192027,20.059 27.658,20.059 C31.5909214,20.059 34.9499285,17.3892373 35.8422025,13.5485214 C35.8430941,13.543976 35.8448017,13.5354513 35.8534825,13.4921166 C35.9119261,13.2278121 35.9583076,12.9594617 36.0052742,12.6088548 C36.0409256,12.2827019 36.0596202,11.9951911 36.0629235,11.6829586 C36.0640391,11.65505 36.0640391,11.65505 36.0620492,11.5870942 C36.0596115,11.3124406 36.041637,11.0301615 36.0102339,10.7452882 C36.0018667,10.6938404 36.0018667,10.6938404 35.9925947,10.6295794 C35.9561181,10.3368767 35.9068166,10.0526809 35.8437662,9.77416307 C34.9389478,5.91122059 31.5843873,3.25 27.657,3.25 C23.7190449,3.25 20.3563031,5.92529405 19.4698189,9.76609731 C19.4008808,10.0593026 19.3490546,10.3501911 19.3119924,10.6644987 C19.2681328,11.0417496 19.25,11.3475425 19.25,11.674 Z" id="Shape"></path>
                    <path d="M45.398,61.203 L32.818,61.203 L14.256,35.151 C13.787,34.494 12.875,34.339 12.215,34.809 C11.557,35.278 11.404,36.191 11.873,36.85 L30.134,62.477 L26.152,75.919 C25.923,76.693 26.365,77.507 27.139,77.736 C27.278,77.777 27.417,77.797 27.555,77.797 C28.186,77.797 28.769,77.386 28.957,76.749 L32.695,64.129 L38.964,64.129 L42.702,76.749 C42.89,77.386 43.473,77.797 44.103,77.797 C44.241,77.797 44.381,77.777 44.519,77.736 C45.294,77.507 45.736,76.693 45.506,75.919 L42.014,64.129 L45.397,64.129 C46.205,64.129 46.86,63.474 46.86,62.666 C46.86,61.858 46.206,61.203 45.398,61.203 Z" id="Shape"></path>
                    <path d="M70.981,44.847 C70.836,44.44 70.521,44.118 70.117,43.965 C64.169,41.726 54.68,44.175 50.751,45.376 C50.075,42.423 47.006,30.868 39.454,26.179 L53.98,2.429 C54.272,1.952 54.266,1.351 53.965,0.88 C53.665,0.408 53.126,0.15 52.567,0.213 L39.233,1.725 C38.43,1.816 37.853,2.54 37.945,3.344 C38.035,4.146 38.745,4.723 39.563,4.633 L49.921,3.459 L36.816,24.885 C36.81,24.894 36.807,24.905 36.801,24.915 C35.488,24.455 34.071,24.186 32.529,24.186 C27.842,24.186 24.603,26.914 23.145,31.845 L4.372,26.076 C6.185,21.962 10.111,14.471 13.906,12.696 C14.637,12.354 14.953,11.483 14.611,10.751 C14.268,10.019 13.397,9.702 12.666,10.046 C6.433,12.962 1.255,25.913 1.038,26.463 C0.888,26.842 0.903,27.267 1.08,27.634 C1.257,28.001 1.579,28.279 1.969,28.399 L22.535,34.719 C22.366,35.927 22.269,37.219 22.269,38.612 C22.269,38.858 22.331,39.1 22.45,39.316 C22.733,39.832 29.437,52.004 33.847,56.671 C34.123,56.963 34.508,57.129 34.91,57.129 L49.461,57.129 L55.872,57.129 C56.009,57.396 56.176,57.744 56.353,58.151 C55.535,58.729 54.695,59.256 53.834,59.698 C53.115,60.067 52.831,60.949 53.2,61.668 C53.46,62.173 53.971,62.463 54.503,62.463 C54.729,62.463 54.956,62.411 55.17,62.302 C55.914,61.919 56.643,61.485 57.356,61.014 C58.347,64.651 58.773,70.032 55.474,75.587 C55.062,76.282 55.29,77.18 55.985,77.592 C56.219,77.731 56.477,77.797 56.731,77.797 C57.23,77.797 57.716,77.541 57.99,77.081 C62.178,70.028 61.241,63.31 59.876,59.145 C66.193,53.941 70.635,46.461 70.862,46.075 C71.081,45.703 71.125,45.254 70.981,44.847 Z M25.197,38.237 C25.258,33.072 26.611,27.112 32.53,27.112 C43.54,27.112 47.63,44.774 47.999,46.484 L47.999,54.204 L35.556,54.204 C31.784,49.928 26.266,40.155 25.197,38.237 Z M58.722,56.277 C58.327,55.464 58.025,54.971 57.969,54.883 C57.7,54.459 57.234,54.202 56.733,54.202 L50.924,54.202 L50.924,48.389 C53.686,47.512 61.758,45.201 67.304,46.218 C65.765,48.531 62.627,52.859 58.722,56.277 Z" id="Shape"></path>
                </g>
            </g>
        </g>
    </g>
</svg>