<?xml version="1.0" encoding="UTF-8"?>
<svg width="71px" height="88px" viewBox="0 0 71 88" version="1.1" xmlns="http://www.w3.org/2000/svg" xmlns:xlink="http://www.w3.org/1999/xlink">
    <!-- Generator: Sketch 44.1 (41455) - http://www.bohemiancoding.com/sketch -->
    <title>Group 44</title>
    <desc>Created with Sketch.</desc>
    <defs></defs>
    <g id="Icons" stroke="none" stroke-width="1" fill="none" fill-rule="evenodd">
        <g id="Artboard" transform="translate(-2792.000000, -111.000000)" fill="#003057">
            <g id="Group-34" transform="translate(2760.000000, 111.000000)">
                <g id="Group-5">
                    <g id="Group-3" transform="translate(32.000000, 0.000000)">
                        <g id="Group-44">
                            <g id="Group-2" transform="translate(0.000000, 47.000000)">
                                <path d="M20.3757609,29.8885939 L20.0564651,29.8885939 C15.9758647,29.8885939 12.3614362,26.2879284 11.9101648,21.9800279 C10.0241909,21.3437312 8.67037671,19.0264074 8.67037671,16.9906879 L8.67037671,14.8410369 C8.67037671,13.4394645 9.56014769,12.2442585 10.7990154,11.8014304 L10.7990154,9.03697923 C10.7990154,5.32023266 12.8552804,2.8008417 15.9354206,2.6998081 C16.5144103,2.49559126 17.1189437,2.2698779 17.7341203,2.03126664 C19.9819628,1.17570555 22.3085649,0.287899687 24.405274,0.287899687 C28.0878189,0.287899687 29.9567637,3.0158068 29.9567637,8.39208393 L29.9567637,12.037892 C30.7997046,12.5280124 32.0854024,13.497505 32.0854024,14.8410369 L32.0854024,16.9906879 C32.0854024,18.9404214 30.5016952,21.3351326 28.5241899,21.9843272 C28.0686612,26.2879284 24.4563613,29.8885939 20.3757609,29.8885939 L20.3757609,29.8885939 Z M24.4010167,2.43755068 C22.6938485,2.43755068 20.5524379,3.25441806 18.4812725,4.03689102 C17.7873363,4.30129809 17.1083005,4.55925621 16.4611943,4.78711921 C16.3505051,4.82581293 16.2355586,4.84086049 16.1184835,4.84086049 C13.7642091,4.84086049 12.9255255,7.01200799 12.9255255,9.03267992 L12.9255255,12.6870866 C12.9255255,13.2782406 12.4487104,13.7619121 11.8612061,13.7619121 C11.2737018,13.7619121 10.7968868,14.2455836 10.7968868,14.8367376 L10.7968868,16.9863886 C10.7968868,18.2740295 11.8505629,19.9916007 12.9255255,19.9916007 C13.5130298,19.9916007 13.9898448,20.4774218 13.9898448,21.0664262 C13.9898448,24.6155 16.8251916,27.7346436 20.0564651,27.7346436 L20.3757609,27.7346436 C23.6070345,27.7346436 26.4423812,24.6219489 26.4423812,21.0664262 C26.4423812,20.4774218 26.9213249,19.9916007 27.5067006,19.9916007 C28.5837917,19.9916007 29.9546351,18.308424 29.9546351,16.9863886 L29.9546351,14.8367376 C29.9099336,14.5830788 29.1372378,13.9768772 28.4560734,13.6673275 C28.0729185,13.4953554 27.8259964,13.1105679 27.8259964,12.6870866 L27.8259964,8.38778463 C27.8259964,2.43755068 25.4270205,2.43755068 24.4010167,2.43755068 L24.4010167,2.43755068 Z" id="Shape"></path>
                                <path d="M37.5070452,40.8241755 L1.22014127,40.8241755 C0.632636986,40.8241755 0.155821918,40.3426537 0.155821918,39.7493501 C0.155821918,33.0080445 5.23262521,27.9262696 11.9633808,27.9262696 C12.5508851,27.9262696 13.0277001,28.4077914 13.0277001,29.0010951 C13.0277001,29.5943988 12.5508851,30.0759206 11.9633808,30.0759206 C6.72054366,30.0759206 2.82087757,33.6314433 2.33554795,38.6745246 L36.3937671,38.6745246 C35.9063089,33.6314433 32.0066428,30.0759206 26.7659343,30.0759206 C26.1805586,30.0759206 25.7016149,29.5943988 25.7016149,29.0010951 C25.7016149,28.4077914 26.1805586,27.9262696 26.7659343,27.9262696 C33.4966899,27.9262696 38.5734932,33.0080445 38.5734932,39.7493501 C38.5713645,40.3426537 38.0945494,40.8241755 37.5070452,40.8241755 L37.5070452,40.8241755 Z" id="Shape"></path>
                            </g>
                            <g id="Group-41" transform="translate(34.000000, 0.000000)">
                                <g id="Group-4">
                                    <circle id="Oval" cx="14.767" cy="14.686" r="2.212"></circle>
                                    <circle id="Oval" cx="25.5" cy="14.686" r="2.211"></circle>
                                    <path d="M2.95473636,44.1504751 C3.79645943,43.4191778 4.82348844,42.4704724 6.48237749,40.9115318 C8.97113647,38.5725505 9.89647445,37.7222927 10.9939843,36.803002 C13.0068459,35.1169989 14.0667746,34.4568497 15.4055601,34.7106733 C16.4176907,34.9025655 17.4520796,35 18.5,35 C27.6126984,35 35,27.6126984 35,18.5 C35,9.38730163 27.6126984,2 18.5,2 C9.38730163,2 2,9.38730163 2,18.5 C2,22.5748572 3.47994588,26.4146894 6.11984554,29.4082197 C7.11911458,30.541347 6.98294726,31.8650155 6.28261408,34.3597266 C5.90510413,35.704484 5.49426218,36.9046655 4.42371591,39.8929329 C3.69569595,41.925209 3.26343553,43.1656553 2.95473636,44.1504751 Z M18.5,37 C17.3150146,37 16.1560508,36.8885885 15.0330119,36.6756689 C13.1004324,36.3092666 2.26162652,48.8258218 0.592285156,47.9086914 C-1.29393541,46.8724083 6.03271238,32.3332244 4.61980925,30.7310543 C1.7444696,27.4705452 0,23.188994 0,18.5 C0,8.28273213 8.28273213,0 18.5,0 C28.7172679,0 37,8.28273213 37,18.5 C37,28.7172679 28.7172679,37 18.5,37 Z" id="Oval-7" fill-rule="nonzero"></path>
                                </g>
                                <path d="M13,27.5 C13,25.0147186 16.3578644,23 20.5,23 C24.6421356,23 28,25.0147186 28,27.5 L26,27.5 C26,26.3912263 23.6812895,25 20.5,25 C17.3187105,25 15,26.3912263 15,27.5 L13,27.5 Z M15,27.5 L13,27.5 C13,25.0147186 16.3578644,23 20.5,23 C24.6421356,23 28,25.0147186 28,27.5 L26,27.5 C26,26.3912263 23.6812895,25 20.5,25 C17.3187105,25 15,26.3912263 15,27.5 Z" id="Oval-8" fill-rule="nonzero"></path>
                            </g>
                        </g>
                    </g>
                </g>
            </g>
        </g>
    </g>
</svg>