<?xml version="1.0" encoding="UTF-8"?>
<svg width="91px" height="60px" viewBox="0 0 91 60" version="1.1" xmlns="http://www.w3.org/2000/svg" xmlns:xlink="http://www.w3.org/1999/xlink">
    <!-- Generator: Sketch 44.1 (41455) - http://www.bohemiancoding.com/sketch -->
    <title>Group</title>
    <desc>Created with Sketch.</desc>
    <defs></defs>
    <g id="Messaging" stroke="none" stroke-width="1" fill="none" fill-rule="evenodd">
        <g id="0.-Empty-State" transform="translate(-134.000000, -243.000000)" fill="#003057">
            <g id="Group" transform="translate(120.000000, 215.000000)">
                <g id="Group-14" transform="translate(14.000000, 28.000000)">
                    <g id="Group-11">
                        <g id="Group-3">
                            <path d="M27.2969401,17.0993005 L28.5993741,17.0993005 L26.0220834,19.6765913 C25.5059949,20.1926798 25.3507744,20.9672064 25.6312744,21.6416671 C25.9094106,22.3161278 26.5681129,22.755 27.2969401,22.755 L32.9526396,22.755 C33.9493601,22.755 34.7561916,21.9481685 34.7561916,20.951448 C34.7561916,19.9547275 33.9493601,19.147896 32.9526396,19.147896 L31.6494177,19.147896 L34.2274964,16.5706053 C34.7435849,16.0545168 34.8980174,15.2799901 34.6183054,14.6055294 C34.3393812,13.9310687 33.6814669,13.4929845 32.9526396,13.4929845 L27.2969401,13.4929845 C26.3002196,13.4929845 25.4933881,14.299028 25.4933881,15.2957485 C25.4933881,16.293257 26.3002196,17.0993005 27.2969401,17.0993005 Z" id="Shape"></path>
                            <path d="M15.2944337,11.1535394 L18.4839393,11.1535394 L14.2032631,16.0466376 C13.6871746,16.5627261 13.5319541,17.3372528 13.8124541,18.0117134 C14.0905903,18.6845983 14.8729191,19.0394684 15.6025342,19.0394684 L23.1453054,19.0394684 C24.1428138,19.0394684 24.8244429,18.3190028 24.8244429,17.3214943 C24.8244429,16.3247738 24.1428138,15.8599187 23.1453054,15.8599187 L19.9003627,15.8599187 L24.2965356,11.0551558 C24.8118362,10.5390673 24.9670567,9.76454062 24.6865567,9.09007994 C24.4084204,8.4171951 23.7505061,7.97753499 23.0208909,7.97753499 L15.4781198,7.97753499 C14.4813993,7.97753499 13.620844,8.52122564 13.620844,9.51794615 C13.620844,10.5138787 14.2977131,11.1535394 15.2944337,11.1535394 Z" id="Shape"></path>
                            <path d="M2.22711296,4.07966706 L7.30132649,4.07966706 L0.808600018,10.8439929 C0.292511531,11.3600814 0.000192708322,11.7437203 0.280692711,12.418181 C0.558828949,13.0926417 1.21674328,13.5315138 1.94635846,13.5315138 L11.3738375,13.5315138 C12.370558,13.5315138 13.0009852,12.73509 13.0009852,11.7375816 C13.0009852,10.740861 12.5076563,10.3160856 11.5109358,10.3160856 L6.43672226,10.3160856 L12.7857925,3.96465153 C13.301881,3.44856304 13.4571015,2.67403635 13.1766015,1.99957567 C12.8992532,1.32511499 12.240551,0.886242794 11.5117237,0.886242794 L2.08424469,0.886242794 C1.08752418,0.886242794 0.280692711,1.69228634 0.280692711,2.68979478 C0.280692711,3.68572737 1.23039245,4.07966706 2.22711296,4.07966706 Z" id="Shape"></path>
                        </g>
                        <g id="Group-7" transform="translate(36.000000, 23.000000)">
                            <g id="Group-4">
                                <g id="Group-6">
                                    <path d="M6.41347826,33.808937 C5.93043478,33.808937 5.49521739,33.5180515 5.30869565,33.0758109 C5.12217391,32.6335703 5.225,32.1274768 5.56695652,31.7869279 C6.47326087,30.8882573 8.085,28.7290827 9.22326087,26.3641599 C3.50086957,23.786394 0,19.3450689 0,14.5655598 C0,6.8015181 9.11804348,0.48244426 20.326087,0.48244426 C31.5365217,0.48244426 40.6521739,6.8015181 40.6521739,14.5655598 C40.6521739,22.3296015 31.5341304,28.6463104 20.326087,28.6463104 C19.6565217,28.6463104 18.998913,28.6155664 18.3484783,28.5706329 C15.0317391,32.0447045 11.0167391,33.808937 6.41347826,33.808937 L6.41347826,33.808937 Z M20.326087,2.8473671 C10.4356522,2.8473671 2.39130435,8.10459058 2.39130435,14.5655598 C2.39130435,18.6592412 5.78217391,22.5211602 11.2415217,24.644861 C11.5380435,24.7631071 11.7771739,24.9901397 11.9015217,25.2810252 C12.0258696,25.5695458 12.0330435,25.8982701 11.9134783,26.1891556 C11.2032609,27.9415634 10.151087,29.7412697 9.12282609,31.1909674 C12.0832609,30.6139262 14.7113043,29.0719965 16.9663043,26.5651783 C17.215,26.2884823 17.5832609,26.146587 17.961087,26.174966 C18.7358696,26.2411839 19.5202174,26.2884823 20.3236957,26.2884823 C30.2141304,26.2884823 38.2584783,21.0312588 38.2584783,14.5726546 C38.2608696,8.10459058 30.2165217,2.8473671 20.326087,2.8473671 L20.326087,2.8473671 Z" id="Shape"></path>
                                    <path d="M48.9834783,36.1738598 C44.7197826,36.1738598 41.0013043,34.5467929 37.9236957,31.3375926 C33.0382609,31.6781415 27.885,30.6021016 24.0493478,28.3861689 C23.4778261,28.0574446 23.2865217,27.3385081 23.618913,26.7685617 C23.9513043,26.1986153 24.6854348,26.0117864 25.2545652,26.3428756 C28.8223913,28.4003584 33.7245652,29.332138 38.3063043,28.934831 C38.6721739,28.8969922 39.0523913,29.0483473 39.301087,29.3250433 C41.3145652,31.5551655 43.6484783,32.9622946 46.2741304,33.5204164 C45.3630435,32.2078842 44.4447826,30.6162911 43.8206522,29.0649017 C43.701087,28.7740162 43.7058696,28.445292 43.8326087,28.1567714 C43.9569565,27.8682508 44.196087,27.6388533 44.4902174,27.5182422 C49.4976087,25.5813704 52.6086957,22.0458107 52.6086957,18.3021379 C52.6086957,12.3851009 45.2195652,7.57011802 36.135,7.57011802 C35.475,7.57011802 34.9393478,7.03801038 34.9393478,6.3876566 C34.9393478,5.73730282 35.475,5.20519518 36.135,5.20519518 C46.5371739,5.20519518 55,11.0749337 55,18.3021379 C55,22.7292734 51.7765217,26.8347795 46.5132609,29.242271 C47.5582609,31.3754314 49.0336957,33.3548718 49.8323913,34.144756 C50.1767391,34.4853049 50.2795652,34.9866685 50.0906522,35.433639 C49.9041304,35.8782445 49.4713043,36.1738598 48.9834783,36.1738598 L48.9834783,36.1738598 Z" id="Shape"></path>
                                </g>
                            </g>
                            <path d="M19,12.7463966 C19,14.5408148 17.5449254,15.9954781 15.75,15.9954781 C13.9550746,15.9954781 12.5,14.5408148 12.5,12.7463966 L14.5,12.7463966 C14.5,13.4361187 15.0595175,13.9954781 15.75,13.9954781 C16.4404825,13.9954781 17,13.4361187 17,12.7463966 L19,12.7463966 Z M17,12.7463966 L19,12.7463966 C19,14.5408148 17.5449254,15.9954781 15.75,15.9954781 C13.9550746,15.9954781 12.5,14.5408148 12.5,12.7463966 L14.5,12.7463966 C14.5,13.4361187 15.0595175,13.9954781 15.75,13.9954781 C16.4404825,13.9954781 17,13.4361187 17,12.7463966 Z" id="Oval-9" fill-rule="nonzero"></path>
                            <path d="M28.5,12.7463966 C28.5,14.4027826 27.1568542,15.7455488 25.5,15.7455488 C23.8431458,15.7455488 22.5,14.4027826 22.5,12.7463966 L24.5,12.7463966 C24.5,13.2980866 24.9475887,13.7455488 25.5,13.7455488 C26.0524113,13.7455488 26.5,13.2980866 26.5,12.7463966 L28.5,12.7463966 Z M26.5,12.7463966 L28.5,12.7463966 C28.5,14.4027826 27.1568542,15.7455488 25.5,15.7455488 C23.8431458,15.7455488 22.5,14.4027826 22.5,12.7463966 L24.5,12.7463966 C24.5,13.2980866 24.9475887,13.7455488 25.5,13.7455488 C26.0524113,13.7455488 26.5,13.2980866 26.5,12.7463966 Z" id="Oval-9" fill-rule="nonzero"></path>
                        </g>
                    </g>
                </g>
            </g>
        </g>
    </g>
</svg>