<?xml version="1.0" encoding="UTF-8"?>
<svg width="24px" height="20px" viewBox="0 0 24 20" version="1.1" xmlns="http://www.w3.org/2000/svg" xmlns:xlink="http://www.w3.org/1999/xlink">
    <!-- Generator: Sketch 44.1 (41455) - http://www.bohemiancoding.com/sketch -->
    <title>Group 16</title>
    <desc>Created with Sketch.</desc>
    <defs></defs>
    <g id="Icons" stroke="none" stroke-width="1" fill="none" fill-rule="evenodd">
        <g id="Artboard" transform="translate(-228.000000, -424.000000)" fill="#003057">
            <g id="Group-16" transform="translate(228.000000, 424.000000)">
                <path d="M17.6422326,9.835 C17.6252093,9.58444444 17.7170233,8.53861111 17.784,7.77472222 C17.8476279,7.05138889 17.9026047,6.42638889 17.9026047,6.15194444 C17.9026047,2.9125 15.2547907,0.276944444 12.0002791,0.276944444 C8.74548837,0.276944444 6.09795349,2.9125 6.09795349,6.15194444 C6.09795349,6.42638889 6.15293023,7.05138889 6.21683721,7.77527778 C6.28353488,8.53888889 6.37534884,9.58444444 6.35860465,9.835 C6.07534884,13.9486111 3.28604651,16.0630556 3.25981395,16.0827778 C3.02790698,16.2525 2.93190698,16.5511111 3.02148837,16.8233333 C3.11134884,17.0955556 3.36613953,17.2794444 3.65413953,17.2794444 L8.93581395,17.2794444 C9.25227907,18.6744444 10.5097674,19.7230556 12,19.7230556 C13.4910698,19.7230556 14.7488372,18.6747222 15.0650233,17.2794444 L20.3461395,17.2794444 C20.6330233,17.2794444 20.8869767,17.0958333 20.9773953,16.8247222 C21.067814,16.5536111 20.9726512,16.2547222 20.7424186,16.0841667 C20.7145116,16.0630556 17.9252093,13.9486111 17.6422326,9.835 L17.6422326,9.835 Z M12,18.3975 C11.247907,18.3975 10.5985116,17.9344444 10.3258605,17.2794444 L13.6744186,17.2794444 C13.4020465,17.9344444 12.7523721,18.3975 12,18.3975 L12,18.3975 Z M15.1487442,15.9541667 L8.85153488,15.9541667 L5.27469767,15.9541667 C6.25311628,14.795 7.48939535,12.7925 7.6864186,9.92583333 C7.70930233,9.59666667 7.64427907,8.815 7.54269767,7.66027778 C7.48688372,7.02527778 7.42911628,6.36888889 7.42911628,6.15222222 C7.42911628,3.64361111 9.47972093,1.6025 12,1.6025 C14.5202791,1.6025 16.5706047,3.64361111 16.5706047,6.15222222 C16.5706047,6.36861111 16.5131163,7.02527778 16.4575814,7.66 C16.3562791,8.815 16.2909767,9.59694444 16.3141395,9.92583333 C16.5108837,12.7925 17.7471628,14.795 18.7250233,15.9541667 L15.1487442,15.9541667 L15.1487442,15.9541667 Z" id="Shape"></path>
                <path d="M2.5827907,7.865 L0.442325581,7.28 C0.313953488,7.745 0.212093023,8.22388889 0.139534884,8.70388889 L2.33386047,9.03277778 C2.39386047,8.63972222 2.47702326,8.24666667 2.5827907,7.865 L2.5827907,7.865 Z" id="Shape"></path>
                <path d="M5.16474419,3.43944444 L3.59023256,1.88277778 C3.24725581,2.22611111 2.9215814,2.59305556 2.62297674,2.97305556 L4.37051163,4.33472222 C4.61581395,4.02305556 4.88288372,3.72138889 5.16474419,3.43944444 L5.16474419,3.43944444 Z" id="Shape"></path>
                <path d="M0.366139535,13.52 C0.483069767,13.9894444 0.630418605,14.4572222 0.802883721,14.91 L2.87776744,14.1255556 C2.73627907,13.755 2.616,13.3716667 2.51972093,12.9866667 L0.366139535,13.52 L0.366139535,13.52 Z" id="Shape"></path>
                <path d="M21.1222326,14.1255556 L23.1973953,14.91 C23.3698605,14.4572222 23.5169302,13.9897222 23.6341395,13.52 L21.48,12.9866667 C21.384,13.3716667 21.2634419,13.755 21.1222326,14.1255556 L21.1222326,14.1255556 Z" id="Shape"></path>
                <path d="M23.8604651,8.70388889 C23.788186,8.22388889 23.6857674,7.745 23.5576744,7.28 L21.4174884,7.865 C21.5226977,8.24638889 21.6061395,8.63944444 21.6658605,9.0325 L23.8604651,8.70388889 L23.8604651,8.70388889 Z" id="Shape"></path>
                <path d="M21.3773023,2.97277778 C21.0781395,2.59277778 20.7530233,2.22611111 20.4100465,1.8825 L18.8349767,3.43916667 C19.1168372,3.72138889 19.383907,4.02305556 19.6292093,4.33444444 L21.3773023,2.97277778 L21.3773023,2.97277778 Z" id="Shape"></path>
            </g>
        </g>
    </g>
</svg>