<?xml version="1.0" encoding="UTF-8"?>
<svg width="23px" height="24px" viewBox="0 0 23 24" version="1.1" xmlns="http://www.w3.org/2000/svg" xmlns:xlink="http://www.w3.org/1999/xlink">
    <!-- Generator: Sketch 44.1 (41455) - http://www.bohemiancoding.com/sketch -->
    <title>Group 21</title>
    <desc>Created with Sketch.</desc>
    <defs></defs>
    <g id="Icons" stroke="none" stroke-width="1" fill="none" fill-rule="evenodd">
        <g id="Artboard" transform="translate(-228.000000, -318.000000)" fill="#003057">
            <g id="Group-21" transform="translate(228.000000, 318.000000)">
                <g id="Group-9">
                    <path d="M11.375,17.7777778 L11.1875,17.7777778 C8.79125,17.7777778 6.66875,15.6933333 6.40375,13.1994667 C5.29625,12.8311111 4.50125,11.4896 4.50125,10.3111111 L4.50125,9.06666667 C4.50125,8.25528889 5.02375,7.56337778 5.75125,7.30702222 L5.75125,5.70666667 C5.75125,3.55502222 6.95875,2.09653333 8.7675,2.03804444 C9.1075,1.91982222 9.4625,1.78915556 9.82375,1.65102222 C11.14375,1.15573333 12.51,0.641777778 13.74125,0.641777778 C15.90375,0.641777778 17.00125,2.22097778 17.00125,5.33333333 L17.00125,7.44391111 C17.49625,7.72764444 18.25125,8.28888889 18.25125,9.06666667 L18.25125,10.3111111 C18.25125,11.4398222 17.32125,12.8261333 16.16,13.2019556 C15.8925,15.6933333 13.77125,17.7777778 11.375,17.7777778 L11.375,17.7777778 Z M13.73875,1.88622222 C12.73625,1.88622222 11.47875,2.35911111 10.2625,2.81208889 C9.855,2.96515556 9.45625,3.11448889 9.07625,3.2464 C9.01125,3.2688 8.94375,3.27751111 8.875,3.27751111 C7.4925,3.27751111 7,4.5344 7,5.70417778 L7,7.81973333 C7,8.16195556 6.72,8.44195556 6.375,8.44195556 C6.03,8.44195556 5.75,8.72195556 5.75,9.06417778 L5.75,10.3086222 C5.75,11.0540444 6.36875,12.0483556 7,12.0483556 C7.345,12.0483556 7.625,12.3296 7.625,12.6705778 C7.625,14.7251556 9.29,16.5308444 11.1875,16.5308444 L11.375,16.5308444 C13.2725,16.5308444 14.9375,14.7288889 14.9375,12.6705778 C14.9375,12.3296 15.21875,12.0483556 15.5625,12.0483556 C16.195,12.0483556 17,11.0739556 17,10.3086222 L17,9.06417778 C16.97375,8.91733333 16.52,8.5664 16.12,8.3872 C15.895,8.28764444 15.75,8.06488889 15.75,7.81973333 L15.75,5.33084444 C15.75,1.88622222 14.34125,1.88622222 13.73875,1.88622222 L13.73875,1.88622222 Z" id="Shape"></path>
                    <path d="M22.05875,24 L0.75,24 C0.405,24 0.125,23.7212444 0.125,23.3777778 C0.125,19.4752 3.10625,16.5333333 7.05875,16.5333333 C7.40375,16.5333333 7.68375,16.8120889 7.68375,17.1555556 C7.68375,17.4990222 7.40375,17.7777778 7.05875,17.7777778 C3.98,17.7777778 1.69,19.8360889 1.405,22.7555556 L21.405,22.7555556 C21.11875,19.8360889 18.82875,17.7777778 15.75125,17.7777778 C15.4075,17.7777778 15.12625,17.4990222 15.12625,17.1555556 C15.12625,16.8120889 15.4075,16.5333333 15.75125,16.5333333 C19.70375,16.5333333 22.685,19.4752 22.685,23.3777778 C22.68375,23.7212444 22.40375,24 22.05875,24 L22.05875,24 Z" id="Shape"></path>
                </g>
            </g>
        </g>
    </g>
</svg>