<?xml version="1.0" encoding="UTF-8"?>
<svg width="26px" height="26px" viewBox="0 0 26 26" version="1.1" xmlns="http://www.w3.org/2000/svg" xmlns:xlink="http://www.w3.org/1999/xlink">
    <!-- Generator: Sketch 44.1 (41455) - http://www.bohemiancoding.com/sketch -->
    <title>Group 39</title>
    <desc>Created with Sketch.</desc>
    <defs></defs>
    <g id="Icons" stroke="none" stroke-width="1" fill="none" fill-rule="evenodd">
        <g id="Artboard" transform="translate(-697.000000, -162.000000)" fill="#023259">
            <g id="Group-39" transform="translate(697.000000, 162.000000)">
                <path d="M24.3285714,10.3469388 C23.877551,10.2938776 23.3734694,10.2673469 22.8163265,10.2142857 C22.7102041,10.2142857 22.6571429,10.1346939 22.6040816,10.055102 C22.4183673,9.44489796 22.1795918,8.86122449 21.8612245,8.27755102 C21.8081633,8.19795918 21.8346939,8.09183673 21.8877551,8.0122449 C22.2591837,7.5877551 22.577551,7.21632653 22.8693878,6.87142857 C23.3734694,6.26122449 23.3469388,5.35918367 22.7632653,4.7755102 L21.2244898,3.21020408 C20.6408163,2.62653061 19.7653061,2.6 19.1285714,3.10408163 C18.7836735,3.39591837 18.3857143,3.71428571 17.9877551,4.08571429 C17.9081633,4.13877551 17.8285714,4.16530612 17.722449,4.1122449 C17.1653061,3.82040816 16.555102,3.55510204 15.944898,3.36938776 C15.8653061,3.34285714 15.7857143,3.26326531 15.7857143,3.15714286 C15.7591837,2.6 15.7061224,2.09591837 15.6530612,1.64489796 C15.5734694,0.848979592 14.9102041,0.23877551 14.1142857,0.23877551 L11.8857143,0.23877551 C11.0897959,0.23877551 10.4,0.848979592 10.3469388,1.64489796 C10.2938776,2.09591837 10.2673469,2.6 10.2142857,3.15714286 C10.2142857,3.26326531 10.1346939,3.31632653 10.055102,3.36938776 C9.44489796,3.55510204 8.86122449,3.79387755 8.27755102,4.1122449 C8.19795918,4.16530612 8.09183673,4.13877551 8.0122449,4.08571429 C7.61428571,3.71428571 7.21632653,3.39591837 6.87142857,3.10408163 C6.26122449,2.6 5.35918367,2.62653061 4.7755102,3.21020408 L3.21020408,4.7755102 C2.62653061,5.35918367 2.6,6.23469388 3.10408163,6.87142857 C3.39591837,7.21632653 3.71428571,7.61428571 4.08571429,8.0122449 C4.13877551,8.09183673 4.16530612,8.17142857 4.1122449,8.27755102 C3.82040816,8.83469388 3.55510204,9.44489796 3.36938776,10.055102 C3.34285714,10.1346939 3.26326531,10.2142857 3.15714286,10.2142857 C2.6,10.2408163 2.09591837,10.2938776 1.64489796,10.3469388 C0.848979592,10.4265306 0.23877551,11.0897959 0.23877551,11.8857143 L0.23877551,14.1142857 C0.23877551,14.9102041 0.848979592,15.6 1.64489796,15.6530612 C2.09591837,15.7061224 2.6,15.7326531 3.15714286,15.7857143 C3.26326531,15.7857143 3.31632653,15.8653061 3.36938776,15.944898 C3.55510204,16.555102 3.79387755,17.1387755 4.1122449,17.722449 C4.16530612,17.8020408 4.13877551,17.9081633 4.08571429,17.9877551 C3.71428571,18.4122449 3.39591837,18.7836735 3.10408163,19.1285714 C2.6,19.7387755 2.62653061,20.6408163 3.21020408,21.2244898 L4.7755102,22.7897959 C5.35918367,23.3734694 6.23469388,23.4 6.87142857,22.8959184 C7.21632653,22.6040816 7.61428571,22.2857143 8.0122449,21.9142857 C8.09183673,21.8612245 8.17142857,21.8346939 8.27755102,21.8877551 C8.83469388,22.1795918 9.44489796,22.444898 10.055102,22.6306122 C10.1346939,22.6571429 10.2142857,22.7367347 10.2142857,22.8428571 C10.2408163,23.4 10.2938776,23.9040816 10.3469388,24.355102 C10.4265306,25.1510204 11.0897959,25.7612245 11.8857143,25.7612245 L14.1142857,25.7612245 C14.9102041,25.7612245 15.6,25.1510204 15.6530612,24.355102 C15.7061224,23.9040816 15.7326531,23.4 15.7857143,22.8428571 C15.7857143,22.7367347 15.8653061,22.6836735 15.944898,22.6306122 C16.555102,22.444898 17.1387755,22.2061224 17.722449,21.8877551 C17.8020408,21.8346939 17.9081633,21.8612245 17.9877551,21.9142857 C18.3857143,22.2857143 18.7836735,22.6040816 19.1285714,22.8959184 C19.7387755,23.4 20.6408163,23.3734694 21.2244898,22.7897959 L22.7897959,21.2244898 C23.3734694,20.6408163 23.4,19.7653061 22.8959184,19.1285714 C22.6040816,18.7836735 22.2857143,18.3857143 21.9142857,17.9877551 C21.8612245,17.9081633 21.8346939,17.8285714 21.8877551,17.722449 C22.1795918,17.1653061 22.444898,16.555102 22.6306122,15.944898 C22.6571429,15.8653061 22.7367347,15.7857143 22.8428571,15.7857143 C23.4,15.7591837 23.9040816,15.7061224 24.355102,15.6530612 C25.1510204,15.5734694 25.7612245,14.9102041 25.7612245,14.1142857 L25.7612245,11.8857143 C25.7346939,11.0897959 25.1244898,10.4 24.3285714,10.3469388 Z M24.3816327,14.1142857 C24.3816327,14.2204082 24.3020408,14.3265306 24.1959184,14.3265306 C23.744898,14.3795918 23.2673469,14.4061224 22.7367347,14.4326531 C22.1,14.4857143 21.5428571,14.9102041 21.3571429,15.5469388 C21.1979592,16.077551 20.9857143,16.5816327 20.7204082,17.0857143 C20.4285714,17.6428571 20.5081633,18.3591837 20.9326531,18.8367347 C21.277551,19.2346939 21.5959184,19.6061224 21.8877551,19.9510204 C21.9673469,20.0306122 21.9408163,20.1632653 21.8612245,20.2428571 L20.2959184,21.8081633 C20.2163265,21.8877551 20.0836735,21.8877551 20.0040816,21.8346939 C19.6591837,21.5428571 19.2877551,21.2244898 18.8897959,20.8795918 C18.4122449,20.455102 17.6959184,20.3755102 17.1387755,20.6673469 C16.6612245,20.9326531 16.1306122,21.144898 15.6,21.3040816 C14.9897959,21.4897959 14.5387755,22.0469388 14.4857143,22.6836735 C14.4591837,23.2142857 14.4061224,23.7183673 14.3795918,24.1428571 C14.3795918,24.2489796 14.2734694,24.3285714 14.1673469,24.3285714 L11.9387755,24.3285714 C11.8326531,24.3285714 11.7265306,24.2489796 11.7265306,24.1428571 C11.6734694,23.6918367 11.6469388,23.2142857 11.6204082,22.6836735 C11.5673469,22.0469388 11.1428571,21.4897959 10.5061224,21.3040816 C9.9755102,21.144898 9.47142857,20.9326531 8.96734694,20.6673469 C8.72857143,20.5346939 8.48979592,20.4816327 8.2244898,20.4816327 C7.85306122,20.4816327 7.48163265,20.6142857 7.18979592,20.8530612 C6.79183673,21.1979592 6.42040816,21.5163265 6.0755102,21.8081633 C5.99591837,21.8877551 5.86326531,21.8612245 5.78367347,21.7816327 L4.21836735,20.2163265 C4.13877551,20.1367347 4.13877551,20.0040816 4.19183673,19.9244898 C4.48367347,19.5795918 4.80204082,19.2081633 5.14693878,18.8102041 C5.57142857,18.3326531 5.65102041,17.6163265 5.35918367,17.0591837 C5.09387755,16.5816327 4.88163265,16.0510204 4.72244898,15.5204082 C4.53673469,14.9102041 3.97959184,14.4591837 3.34285714,14.4061224 C2.8122449,14.3795918 2.30816327,14.3265306 1.88367347,14.3 C1.77755102,14.3 1.69795918,14.1938776 1.69795918,14.0877551 L1.69795918,11.8591837 C1.69795918,11.7530612 1.77755102,11.6469388 1.88367347,11.6469388 C2.33469388,11.5938776 2.8122449,11.5673469 3.34285714,11.5408163 C3.97959184,11.4877551 4.53673469,11.0632653 4.72244898,10.4265306 C4.88163265,9.89591837 5.09387755,9.39183673 5.35918367,8.8877551 C5.65102041,8.33061224 5.57142857,7.61428571 5.14693878,7.13673469 C4.80204082,6.73877551 4.45714286,6.34081633 4.19183673,6.02244898 C4.1122449,5.94285714 4.13877551,5.81020408 4.21836735,5.73061224 L5.78367347,4.16530612 C5.86326531,4.08571429 5.99591837,4.08571429 6.0755102,4.13877551 C6.42040816,4.43061224 6.79183673,4.74897959 7.18979592,5.09387755 C7.66734694,5.51836735 8.38367347,5.59795918 8.94081633,5.30612245 C9.41836735,5.04081633 9.94897959,4.82857143 10.4795918,4.66938776 C11.0897959,4.48367347 11.5408163,3.92653061 11.5938776,3.28979592 C11.6204082,2.75918367 11.6734694,2.25510204 11.7,1.83061224 C11.7,1.7244898 11.8061224,1.64489796 11.9122449,1.64489796 L14.1408163,1.64489796 C14.2469388,1.64489796 14.3530612,1.7244898 14.3530612,1.83061224 C14.4061224,2.28163265 14.4326531,2.75918367 14.4591837,3.28979592 C14.5122449,3.92653061 14.9367347,4.48367347 15.5734694,4.66938776 C16.1040816,4.82857143 16.6081633,5.04081633 17.1122449,5.30612245 C17.6693878,5.59795918 18.3857143,5.51836735 18.8632653,5.09387755 C19.2612245,4.74897959 19.6326531,4.43061224 19.977551,4.13877551 C20.0571429,4.05918367 20.1897959,4.08571429 20.2693878,4.16530612 L21.8346939,5.73061224 C21.9142857,5.81020408 21.9142857,5.94285714 21.8612245,6.02244898 C21.5693878,6.36734694 21.2510204,6.73877551 20.9061224,7.13673469 C20.4816327,7.61428571 20.4020408,8.33061224 20.6938776,8.8877551 C20.9591837,9.36530612 21.1714286,9.89591837 21.3306122,10.4265306 C21.5163265,11.0367347 22.0734694,11.4877551 22.7102041,11.5408163 C23.2408163,11.5673469 23.744898,11.6204082 24.1693878,11.6469388 C24.2755102,11.6469388 24.355102,11.7530612 24.355102,11.8591837 L24.355102,14.1142857 L24.3816327,14.1142857 Z" id="Shape"></path>
                <path d="M13,9.04693878 C10.8244898,9.04693878 9.04693878,10.8244898 9.04693878,13 C9.04693878,15.1755102 10.8244898,16.9530612 13,16.9530612 C15.1755102,16.9530612 16.9530612,15.1755102 16.9530612,13 C16.9530612,10.8244898 15.1755102,9.04693878 13,9.04693878 Z M13,15.6265306 C11.5673469,15.6265306 10.3734694,14.4591837 10.3734694,13 C10.3734694,11.5408163 11.5408163,10.3734694 13,10.3734694 C14.4591837,10.3734694 15.6265306,11.5408163 15.6265306,13 C15.6265306,14.4591837 14.4326531,15.6265306 13,15.6265306 Z" id="Shape"></path>
            </g>
        </g>
    </g>
</svg>