<?xml version="1.0" encoding="UTF-8"?>
<svg width="88px" height="87px" viewBox="0 0 88 87" version="1.1" xmlns="http://www.w3.org/2000/svg" xmlns:xlink="http://www.w3.org/1999/xlink">
    <!-- Generator: Sketch 44.1 (41455) - http://www.bohemiancoding.com/sketch -->
    <title>noun_496237_cc</title>
    <desc>Created with Sketch.</desc>
    <defs></defs>
    <g id="Icons" stroke="none" stroke-width="1" fill="none" fill-rule="evenodd">
        <g id="Artboard" transform="translate(-2788.000000, -299.000000)" fill="#003057">
            <g id="Group-17" transform="translate(2760.000000, 293.000000)">
                <g id="noun_496237_cc" transform="translate(28.000000, 6.000000)">
                    <g id="Group">
                        <g id="Shape">
                            <path d="M71.3166667,49.9315 L57.5011111,49.9315 L58.3733333,46.8420875 C58.4033333,46.7330625 58.4188889,46.622925 58.4188889,46.50945 L58.4188889,41.1772375 C58.4188889,37.8886875 55.7477778,35.2142375 52.4644444,35.2142375 L50.8888889,35.2142375 C50.8211111,35.2142375 50.7566667,35.2186875 50.6522222,35.2253625 C49.9922222,35.2476125 49.47,35.7882875 49.47,36.4491125 L49.47,43.3110125 L47.9033333,45.5204375 L41.0922222,52.97085 C40.1711111,53.9398375 39.4644444,55.095725 39.02,56.3539625 L38.4922222,56.3539625 L38.4922222,54.526125 L34.8,54.526125 L33.62,54.526125 L1.71777778,54.526125 C1.04333333,54.526125 0.495555556,55.073475 0.495555556,55.749875 C0.495555556,56.426275 1.04222222,56.973625 1.71777778,56.973625 L32.3544444,56.973625 L32.3544444,84.2866125 L9.49555556,84.2866125 C8.82111111,84.2866125 8.27333333,84.8339625 8.27333333,85.5103625 C8.27333333,86.1867625 8.82,86.7341125 9.49555556,86.7341125 L34.7988889,86.7341125 L34.7988889,83.371025 L38.4911111,83.371025 L38.4911111,79.3015 L40.7544444,79.3015 C42.5744444,81.444175 45.1844444,82.66125 48.01,82.66125 L61.5433333,82.66125 C61.5755556,82.66125 65.2711111,82.64345 65.2711111,82.64345 C68.0266667,82.64345 70.2711111,80.3962 70.2711111,77.6372 C70.2711111,76.63595 69.97,75.708125 69.4611111,74.924925 C71.6555556,74.3942625 73.2933333,72.42625 73.2933333,70.0688625 C73.2933333,68.7761375 72.7877778,67.6069 71.98,66.7157875 C73.3688889,65.8269 74.3,64.276075 74.3,62.504975 C74.3,61.3858 73.9177778,60.364525 73.2977778,59.53015 C75.0711111,58.7591875 76.3166667,56.9947625 76.3166667,54.9388625 C76.3188889,52.1754125 74.0744444,49.9315 71.3166667,49.9315 Z M36.0477778,80.9224125 L34.7988889,80.9224125 L34.7988889,56.973625 L36.0477778,56.973625 L36.0477778,80.9224125 Z M71.3166667,57.4965 L69.3022222,57.4965 L64.35,57.4965 C63.6755556,57.4965 63.1277778,58.04385 63.1277778,58.72025 C63.1277778,59.39665 63.6744444,59.944 64.35,59.944 L69.3022222,59.944 C70.7111111,59.944 71.8566667,61.0909875 71.8566667,62.5038625 C71.8566667,63.9145125 70.7111111,65.063725 69.3022222,65.063725 L64.35,65.063725 C63.6755556,65.063725 63.1277778,65.611075 63.1277778,66.287475 C63.1277778,66.963875 63.6744444,67.511225 64.35,67.511225 L68.2955556,67.511225 C69.7044444,67.511225 70.85,68.6582125 70.85,70.0688625 C70.85,71.4817375 69.7044444,72.63095 68.2955556,72.63095 L65.2722222,72.63095 L64.35,72.63095 L63.3433333,72.63095 C62.6688889,72.63095 62.1211111,73.1783 62.1211111,73.8547 C62.1211111,74.5311 62.6677778,75.07845 63.3433333,75.07845 L64.35,75.07845 L65.2722222,75.07845 C66.6811111,75.07845 67.8288889,76.2254375 67.8288889,77.6383125 C67.8288889,79.0489625 66.6811111,80.198175 65.2722222,80.198175 L57.7155556,80.198175 C57.6833333,80.198175 48.0111111,80.215975 48.0111111,80.215975 C45.7555556,80.215975 43.6822222,79.1713375 42.3233333,77.34795 L41.9566667,76.8573375 L38.4922222,76.8573375 L38.4922222,58.80035 L39.9288889,58.80035 C40.4922222,58.80035 40.9822222,58.4132 41.1155556,57.86585 C41.4077778,56.662125 42.0122222,55.554075 42.8788889,54.641825 L49.7577778,47.116875 C49.7922222,47.0779375 49.8233333,47.039 49.8533333,46.9978375 L51.6866667,44.4101625 C51.8344444,44.2010125 51.9122222,43.9562625 51.9122222,43.7015 L51.9122222,37.660625 L52.4633333,37.660625 C54.3988889,37.660625 55.9744444,39.23815 55.9744444,41.1772375 L55.9744444,46.34035 L54.75,50.6624125 C54.7366667,50.69245 54.69,50.87935 54.69,50.87935 C54.6722222,51.0250875 54.6444444,51.0851625 54.6444444,51.15525 C54.6666667,51.3788625 54.6944444,51.50235 54.74,51.62695 C54.8744444,51.985175 55.1455556,52.278875 55.5344444,52.390125 C55.7488889,52.4513125 55.9622222,52.4312875 56.1633333,52.379 L71.3155556,52.379 C72.7266667,52.379 73.8722222,53.5282125 73.8722222,54.9388625 C73.8722222,56.3495125 72.7266667,57.4965 71.3166667,57.4965 Z"></path>
                            <path d="M68.4771181,3.39304474 C68.4771181,1.73430695 67.1388748,0.389634291 65.4715434,0.389634291 L25.9433525,0.389634291 C24.2834194,0.389634291 22.9377778,1.72698067 22.9377778,3.38271274 L22.9377778,29.4542571 C22.9377778,31.6664296 24.7312026,33.4597498 26.9322987,33.4597498 L31.6956758,33.4597498 L41.5052133,43.2869601 L41.5052133,33.4597498 L58.2395752,33.4597498 L58.2395752,39.8240075 L75.3489823,39.8240075 L75.3489823,46.676325 L82.1905835,39.8240075 L83.9968743,39.8240075 C86.2077396,39.8240075 88,38.0361837 88,35.8169488 L88,21.9841636 C88,19.7711263 86.2157197,17.977105 84.0021433,17.977105 L68.4771181,17.977105 L68.4771181,3.39304474 Z M39.1274056,31.0789699 L39.1274056,37.5362944 L32.6792235,31.0789699 L28.3106589,31.0789699 C26.6565255,31.0789699 25.3155855,29.7325823 25.3155855,28.0761443 L25.3155855,5.77215767 C25.3155855,4.11374288 26.6493813,2.76933206 28.3145896,2.76933206 L63.1013871,2.76933206 C64.7576914,2.76933206 66.1003913,4.11571968 66.1003913,5.77215767 L66.1003913,28.0761443 C66.1003913,29.7345591 64.7627967,31.0789699 63.0977672,31.0789699 L39.1274056,31.0789699 Z M82.6170202,20.3568028 C84.2773279,20.3568028 85.6232731,21.6975459 85.6232731,23.3525831 L85.6232731,35.4497574 C85.6232731,36.5507206 84.7291442,37.4432275 83.6209164,37.4432275 L81.2048741,37.4432275 L77.7257092,40.9267414 L77.7257092,37.4432275 L60.6163021,37.4432275 L60.6163021,33.4586676 L65.4828561,33.4586676 C67.1365414,33.4586676 68.4771181,32.1058857 68.4771181,30.4528352 L68.4771181,20.3568028 L82.6170202,20.3568028 Z"></path>
                        </g>
                    </g>
                </g>
            </g>
        </g>
    </g>
</svg>