<?xml version="1.0" encoding="UTF-8"?>
<svg width="15px" height="23px" viewBox="0 0 15 23" version="1.1" xmlns="http://www.w3.org/2000/svg" xmlns:xlink="http://www.w3.org/1999/xlink">
    <!-- Generator: Sketch 44.1 (41455) - http://www.bohemiancoding.com/sketch -->
    <title>Shape</title>
    <desc>Created with Sketch.</desc>
    <defs></defs>
    <g id="Icons" stroke="none" stroke-width="1" fill="none" fill-rule="evenodd">
        <g id="Artboard" transform="translate(-701.000000, -525.000000)" fill-rule="nonzero" fill="#F00629">
            <path d="M708.3728,546.856147 L706.429906,547.330661 L701.911429,528.829769 L702.220909,528.445164 C702.455515,528.153609 702.863959,527.757016 703.442331,527.366309 C704.914686,526.371688 706.685304,525.994878 708.651403,526.613537 C710.33951,527.144722 711.228603,527.038866 712.180376,526.235737 L713.330995,525.264816 L715.834836,533.281906 L715.688682,533.621829 C714.962289,535.311261 712.089598,536.489988 709.67171,535.949851 C709.433057,535.896538 709.387345,535.886544 709.267511,535.86255 C708.575646,535.724023 707.981753,535.685748 707.440807,535.785833 C706.788197,535.906578 706.28827,536.220761 705.920973,536.817148 L708.3728,546.856147 Z M707.076944,533.81921 C707.914927,533.664168 708.740789,533.717393 709.660165,533.901473 C709.80036,533.929544 709.852789,533.941006 710.107747,533.997962 C711.467534,534.301727 713.099073,533.732872 713.679369,533.089159 L712.260706,528.546718 C711.070255,529.090314 709.752011,529.056534 708.051094,528.521319 C706.717746,528.101763 705.562578,528.347597 704.56188,529.023598 C704.382084,529.145056 704.228415,529.265298 704.103165,529.374137 L705.362108,534.528875 C705.865274,534.170688 706.442782,533.936542 707.076944,533.81921 Z" id="Shape"></path>
        </g>
    </g>
</svg>