<?xml version="1.0" encoding="utf-8"?>
<svg xmlns="http://www.w3.org/2000/svg" width="50" height="50" viewBox="0 0 50 50" fill="#022246"><path style="text-indent:0;text-align:start;line-height:normal;text-transform:none;block-progression:tb;-inkscape-font-specification:Bitstream Vera Sans" d="M 24.875 3 A 1.0001 1.0001 0 0 0 24.5625 3.09375 L 0.5625 15.09375 A 1.0063276 1.0063276 0 0 0 1.4375 16.90625 L 25 5.125 L 48.5625 16.90625 A 1.0063276 1.0063276 0 0 0 49.4375 15.09375 L 25.4375 3.09375 A 1.0001 1.0001 0 0 0 24.875 3 z M 14 16.03125 C 10.245628 16.03125 7.3836375 16.79217 5.4375 17.5625 C 3.4913625 18.33283 2.40625 19.15625 2.40625 19.15625 A 0.97809779 0.97809779 0 0 0 2.03125 19.90625 L 2.03125 41 L 2 41 L 2 45 A 1.0001 1.0001 0 0 0 3 46 L 20.5625 46 C 20.744889 46.264844 20.793679 46.416193 21.25 46.78125 C 22.027365 47.403142 23.277778 48 25 48 C 26.722222 48 27.972635 47.403142 28.75 46.78125 C 29.206321 46.416193 29.255111 46.264844 29.4375 46 L 47 46 A 1.0001 1.0001 0 0 0 48 45 L 48 41 L 47.96875 41 L 47.96875 19.90625 A 0.97809779 0.97809779 0 0 0 47.59375 19.15625 C 47.59375 19.15625 46.508637 18.33283 44.5625 17.5625 C 42.616363 16.79217 39.754372 16.03125 36 16.03125 C 32.245628 16.03125 29.383637 16.79217 27.4375 17.5625 C 26.228068 18.041224 25.490588 18.471888 25 18.78125 C 24.509412 18.471888 23.771932 18.041224 22.5625 17.5625 C 20.616363 16.79217 17.754372 16.03125 14 16.03125 z M 14 17.96875 C 17.491628 17.96875 20.101387 18.68533 21.84375 19.375 C 23.332394 19.964242 23.829638 20.352947 24.03125 20.5 L 24.03125 40.375 C 23.527142 40.070554 23.535262 39.965749 22.625 39.59375 C 20.685955 38.801316 17.799736 38.03125 14 38.03125 C 10.200264 38.03125 7.3140445 38.801316 5.375 39.59375 C 4.4647375 39.965749 4.4728585 40.070554 3.96875 40.375 L 3.96875 20.5 C 4.1703622 20.352947 4.6676057 19.964242 6.15625 19.375 C 7.8986125 18.68533 10.508372 17.96875 14 17.96875 z M 36 17.96875 C 39.491628 17.96875 42.101387 18.68533 43.84375 19.375 C 45.332394 19.964242 45.829638 20.352947 46.03125 20.5 L 46.03125 40.375 C 45.527142 40.070554 45.535262 39.965749 44.625 39.59375 C 42.685955 38.801316 39.799736 38.03125 36 38.03125 C 32.200264 38.03125 29.314045 38.801316 27.375 39.59375 C 26.464738 39.965749 26.472858 40.070554 25.96875 40.375 L 25.96875 20.5 C 26.170362 20.352947 26.667606 19.964242 28.15625 19.375 C 29.898613 18.68533 32.508372 17.96875 36 17.96875 z M 14 39.96875 C 17.533264 39.96875 20.147295 40.700184 21.875 41.40625 C 23.602705 42.112316 24.375 42.75 24.375 42.75 A 0.97809779 0.97809779 0 0 0 24.40625 42.75 A 0.97809779 0.97809779 0 0 0 24.46875 42.8125 A 0.97809779 0.97809779 0 0 0 24.5 42.8125 A 0.97809779 0.97809779 0 0 0 24.53125 42.84375 A 0.97809779 0.97809779 0 0 0 24.5625 42.875 A 0.97809779 0.97809779 0 0 0 24.625 42.90625 A 0.97809779 0.97809779 0 0 0 24.65625 42.90625 A 0.97809779 0.97809779 0 0 0 24.71875 42.9375 A 0.97809779 0.97809779 0 0 0 24.75 42.9375 A 0.97809779 0.97809779 0 0 0 24.8125 42.9375 A 0.97809779 0.97809779 0 0 0 24.84375 42.96875 A 0.97809779 0.97809779 0 0 0 24.90625 42.96875 A 0.97809779 0.97809779 0 0 0 24.9375 42.96875 A 0.97809779 0.97809779 0 0 0 25 42.96875 A 0.97809779 0.97809779 0 0 0 25.0625 42.96875 A 0.97809779 0.97809779 0 0 0 25.375 42.875 A 0.97809779 0.97809779 0 0 0 25.4375 42.875 A 0.97809779 0.97809779 0 0 0 25.46875 42.84375 A 0.97809779 0.97809779 0 0 0 25.5 42.84375 A 0.97809779 0.97809779 0 0 0 25.625 42.75 C 25.625 42.75 26.397295 42.112316 28.125 41.40625 C 29.852705 40.700184 32.466736 39.96875 36 39.96875 C 39.533264 39.96875 42.147295 40.700184 43.875 41.40625 C 45.061575 41.891171 45.655408 42.264013 46 42.5 L 46 44 L 29 44 A 1.0001 1.0001 0 0 0 28.09375 44.5625 C 28.09375 44.5625 27.972635 44.840642 27.5 45.21875 C 27.027365 45.596858 26.277778 46 25 46 C 23.722222 46 22.972635 45.596858 22.5 45.21875 C 22.027365 44.840642 21.90625 44.5625 21.90625 44.5625 A 1.0001 1.0001 0 0 0 21 44 L 4 44 L 4 42.5 C 4.3445916 42.264013 4.9384249 41.891171 6.125 41.40625 C 7.8527055 40.700184 10.466736 39.96875 14 39.96875 z" color="#000" overflow="visible" enable-background="accumulate" font-family="Bitstream Vera Sans" fill="#022246"/></svg>
