<?xml version="1.0" encoding="UTF-8"?>
<svg width="17px" height="17px" viewBox="0 0 17 17" version="1.1" xmlns="http://www.w3.org/2000/svg" xmlns:xlink="http://www.w3.org/1999/xlink">
    <!-- Generator: Sketch 44.1 (41455) - http://www.bohemiancoding.com/sketch -->
    <title>Search</title>
    <desc>Created with Sketch.</desc>
    <defs></defs>
    <g id="Icons" stroke="none" stroke-width="1" fill="none" fill-rule="evenodd">
        <g id="Artboard" transform="translate(-1192.000000, -322.000000)" fill="#003057">
            <path d="M1203.11331,334.66459 C1201.95859,335.504533 1200.53716,336 1199,336 C1195.13401,336 1192,332.865993 1192,329 C1192,325.134007 1195.13401,322 1199,322 C1202.86599,322 1206,325.134007 1206,329 C1206,330.790505 1205.32775,332.423998 1204.22189,333.661853 C1204.22812,333.667679 1204.23428,333.673632 1204.24036,333.679711 L1208.13069,337.570039 C1208.42324,337.86259 1208.42501,338.335144 1208.13007,338.630079 C1207.83718,338.922972 1207.361,338.921673 1207.07003,338.630699 L1203.1797,334.740371 C1203.1556,334.716266 1203.13347,334.690939 1203.11331,334.66459 Z M1199,334.5 C1202.03757,334.5 1204.5,332.037566 1204.5,329 C1204.5,325.962434 1202.03757,323.5 1199,323.5 C1195.96243,323.5 1193.5,325.962434 1193.5,329 C1193.5,332.037566 1195.96243,334.5 1199,334.5 Z" id="Search"></path>
        </g>
    </g>
</svg>