<?xml version="1.0" encoding="UTF-8"?>
<svg width="12px" height="19px" viewBox="0 0 12 19" version="1.1" xmlns="http://www.w3.org/2000/svg" xmlns:xlink="http://www.w3.org/1999/xlink">
    <!-- Generator: Sketch 44.1 (41455) - http://www.bohemiancoding.com/sketch -->
    <title>Group</title>
    <desc>Created with Sketch.</desc>
    <defs></defs>
    <g id="Messaging" stroke="none" stroke-width="1" fill="none" fill-rule="evenodd">
        <g id="15.-Chat-with-keyboard" transform="translate(-337.000000, -412.000000)" fill="#003057">
            <g id="Group-10" transform="translate(-20.000000, 391.000000)">
                <g id="Group" transform="translate(343.000000, 11.000000)">
                    <g id="noun_685143_cc" transform="translate(14.000000, 10.000000)">
                        <g id="Group">
                            <g transform="translate(0.000000, 0.248160)">
                                <path d="M6.05964072,0.329011512 L1.17918422,5.66481013 C0.957471868,5.9139299 0.931778154,6.31752394 1.15679194,6.60796357 C1.35794932,6.86762174 1.75027368,6.87409152 1.96871332,6.63397608 L5.88024405,2.35075017 L5.88024405,5.81557775 C5.88024405,6.18395485 6.13729603,6.48256508 6.45440527,6.48256508 C6.77151451,6.48256508 7.0285952,6.18395485 7.0285952,5.81557775 L7.0285952,2.35075017 L10.9401259,6.63397608 C11.1585369,6.87405817 11.5412153,6.85701664 11.7520186,6.60796357 C11.9745635,6.34500382 11.9547549,5.91012807 11.7296263,5.66481013 L6.84919853,0.329011512 C6.71682566,0.172236139 6.58933316,0.143589033 6.4545201,0.140954433 C6.3216592,0.140954433 6.14524816,0.234299311 6.05964072,0.329011512 Z" id="Shape"></path>
                                <path d="M0.360691517,16.7410256 L0.262729895,17.9370203 L0.860727286,17.9860012 C0.880395708,17.9875468 0.880395708,17.9875468 0.933613301,17.9902691 C1.2379853,18.0034624 1.62994362,17.9839099 2.07955206,17.9066597 C2.7530114,17.7909483 3.41926735,17.5656743 4.04534259,17.2035545 C6.10229966,16.0138172 7.2824822,13.6450458 7.17324461,9.89552205 C7.03807664,5.25595182 7.02131299,2.68877924 7.07291984,1.61401393 C7.08126743,1.44016677 7.0883016,1.37050857 7.08534552,1.38363723 L7.21714317,0.798291714 L6.04645213,0.534696407 L5.91465448,1.12004193 C5.89850357,1.19177207 5.88574548,1.31811331 5.87430082,1.55646002 C5.82081851,2.67028378 5.83774207,5.26194425 5.97375355,9.93046769 C6.07072128,13.2588346 5.09994151,15.2073089 3.4445275,16.164795 C2.57797723,16.6660049 1.6744098,16.8212527 0.985579442,16.7913948 C0.967561928,16.79046 0.960626064,16.7901001 0.958515399,16.7899922 L0.360691517,16.7410256 Z" id="Line" fill-rule="nonzero"></path>
                            </g>
                        </g>
                    </g>
                </g>
            </g>
        </g>
    </g>
</svg>