<?xml version="1.0" encoding="UTF-8"?>
<svg width="18px" height="16px" viewBox="0 0 18 16" version="1.1" xmlns="http://www.w3.org/2000/svg" xmlns:xlink="http://www.w3.org/1999/xlink">
    <!-- Generator: Sketch 44.1 (41455) - http://www.bohemiancoding.com/sketch -->
    <title>Group 8</title>
    <desc>Created with Sketch.</desc>
    <defs></defs>
    <g id="Icons" stroke="none" stroke-width="1" fill="none" fill-rule="evenodd">
        <g id="Artboard" transform="translate(-1191.000000, -374.000000)" fill="#003057">
            <g id="Group-8" transform="translate(1191.000000, 376.000000)">
                <rect id="Rectangle-8" x="13" y="1" width="5" height="2" rx="1"></rect>
                <rect id="Rectangle-8-Copy" x="0" y="1" width="9" height="2" rx="1"></rect>
                <path d="M11,4 C12.1045695,4 13,3.1045695 13,2 C13,0.8954305 12.1045695,0 11,0 C9.8954305,0 9,0.8954305 9,2 C9,3.1045695 9.8954305,4 11,4 Z M11,5.5 C9.06700338,5.5 7.5,3.93299662 7.5,2 C7.5,0.0670033757 9.06700338,-1.5 11,-1.5 C12.9329966,-1.5 14.5,0.0670033757 14.5,2 C14.5,3.93299662 12.9329966,5.5 11,5.5 Z" id="Oval" fill-rule="nonzero"></path>
                <rect id="Rectangle-8" x="9" y="9" width="9" height="2" rx="1"></rect>
                <rect id="Rectangle-8-Copy" x="0" y="9" width="5" height="2" rx="1"></rect>
                <path d="M7,12 C8.1045695,12 9,11.1045695 9,10 C9,8.8954305 8.1045695,8 7,8 C5.8954305,8 5,8.8954305 5,10 C5,11.1045695 5.8954305,12 7,12 Z M7,13.5 C5.06700338,13.5 3.5,11.9329966 3.5,10 C3.5,8.06700338 5.06700338,6.5 7,6.5 C8.93299662,6.5 10.5,8.06700338 10.5,10 C10.5,11.9329966 8.93299662,13.5 7,13.5 Z" id="Oval" fill-rule="nonzero"></path>
            </g>
        </g>
    </g>
</svg>