<?xml version="1.0" encoding="UTF-8"?>
<svg width="20px" height="25px" viewBox="0 0 20 25" version="1.1" xmlns="http://www.w3.org/2000/svg" xmlns:xlink="http://www.w3.org/1999/xlink">
    <!-- Generator: Sketch 44.1 (41455) - http://www.bohemiancoding.com/sketch -->
    <title>Group 11</title>
    <desc>Created with Sketch.</desc>
    <defs></defs>
    <g id="Icons" stroke="none" stroke-width="1" fill="none" fill-rule="evenodd">
        <g id="Artboard" transform="translate(-1702.000000, -578.000000)" fill="#03335A">
            <g id="Group-11" transform="translate(1702.000000, 578.000000)">
                <g id="Group-6">
                    <g id="Group-8">
                        <path d="M15.981428,7.63714256 C18.0745707,7.63714256 19.7999992,5.91171406 19.7999992,3.81857128 C19.7999992,1.72505136 18.0730622,2.30926389e-14 15.981428,2.30926389e-14 C13.887908,2.30926389e-14 12.1628567,1.72505136 12.1628567,3.81857128 C12.1628567,4.21457127 12.2186738,4.58153125 12.3321938,4.94999981 L5.91020549,9.7008682 C5.28867408,9.10724536 4.44010269,8.76857109 3.53571415,8.76857109 C1.5836228,8.76857109 0,10.3521939 0,12.3042852 C0,14.2559995 1.5836228,15.8399994 3.53571415,15.8399994 C4.46951983,15.8399994 5.31809122,15.4715308 5.93999977,14.9058166 L12.3321938,19.6585707 C12.2186738,20.0266621 12.1628567,20.3936221 12.1628567,20.7899992 C12.1628567,22.883142 13.887908,24.6085705 15.981428,24.6085705 C18.0745707,24.6085705 19.7999992,22.883142 19.7999992,20.7899992 C19.7999992,18.6964793 18.0745707,16.9714279 15.981428,16.9714279 C14.991428,16.9714279 14.0866623,17.3674279 13.4074281,17.9893364 L6.9579083,13.1807652 C7.04314259,12.8979081 7.0714283,12.6150509 7.0714283,12.3042852 C7.0714283,11.9931424 7.01523402,11.7102853 6.9579083,11.4274281 L13.4074281,6.61885689 C14.0572452,7.24076544 14.9616337,7.63714256 15.981428,7.63714256 Z M15.981428,1.97999992 C16.9993365,1.97999992 17.8199993,2.80028561 17.8199993,3.81857128 C17.8199993,4.83647981 16.9993365,5.65714264 15.981428,5.65714264 C14.9631423,5.65714264 14.1428566,4.83647981 14.1428566,3.81857128 C14.1428566,2.80028561 14.9616337,1.97999992 15.981428,1.97999992 Z M15.981428,18.9514278 C16.9993365,18.9514278 17.8199993,19.7717135 17.8199993,20.7899992 C17.8199993,21.8079077 16.9993365,22.6285706 15.981428,22.6285706 C14.9631423,22.6285706 14.1428566,21.8079077 14.1428566,20.7899992 C14.1428566,19.7717135 14.9616337,18.9514278 15.981428,18.9514278 Z" id="Page-1"></path>
                    </g>
                </g>
            </g>
        </g>
    </g>
</svg>