<?xml version="1.0" encoding="UTF-8"?>
<svg width="24px" height="14px" viewBox="0 0 24 14" version="1.1" xmlns="http://www.w3.org/2000/svg" xmlns:xlink="http://www.w3.org/1999/xlink">
    <!-- Generator: Sketch 44.1 (41455) - http://www.bohemiancoding.com/sketch -->
    <title>Group 3</title>
    <desc>Created with Sketch.</desc>
    <defs></defs>
    <g id="Icons" stroke="none" stroke-width="1" fill="none" fill-rule="evenodd">
        <g id="Artboard" transform="translate(-228.000000, -840.000000)" fill="#003057">
            <g id="Group-3" transform="translate(228.000000, 840.000000)">
                <path d="M19.7767895,0.37465779 C19.4302453,-0.0553530097 18.8009611,-0.126354793 18.3695949,0.219653897 C17.9382287,0.564662562 17.8691701,1.19467839 18.2144632,1.62468919 L20.9170075,4.99977395 L6.98492987,4.99977395 C3.55101464,4.99977395 0,7.24408032 0,10.9999247 L0,12.9999749 C0,13.5519887 0.448380654,14 1.00084967,14 C1.55331869,14 2.00169935,13.5519887 2.00169935,12.9999749 L2.00169935,10.9999247 C2.00169935,8.49586176 4.53585072,6.99982419 6.98492987,6.99982419 L20.9157565,6.99982419 L18.2134623,10.374909 C17.8681692,10.8071698 17.9392295,11.4359356 18.368594,11.7809443 C18.5545019,11.928948 18.774939,11.9999498 18.9941251,11.9999498 C19.287374,11.9999498 19.5786213,11.8719466 19.7757887,11.6249403 L23.7791874,6.62481477 C24.0734372,6.2598056 24.0734372,5.73979254 23.7801882,5.37478337 L19.7767895,0.37465779 Z" id="Shape"></path>
            </g>
        </g>
    </g>
</svg>