<?xml version="1.0" encoding="UTF-8"?>
<svg width="21px" height="13px" viewBox="0 0 21 13" version="1.1" xmlns="http://www.w3.org/2000/svg" xmlns:xlink="http://www.w3.org/1999/xlink">
    <!-- Generator: Sketch 44.1 (41455) - http://www.bohemiancoding.com/sketch -->
    <title>Icon 3</title>
    <desc>Created with Sketch.</desc>
    <defs></defs>
    <g id="Workbook" stroke="none" stroke-width="1" fill="none" fill-rule="evenodd">
        <g id="6.-Opened-workbook-(bottom-sheet)" transform="translate(-183.000000, -33.000000)" fill="#003057">
            <g id="Group-12">
                <g id="Group">
                    <path d="M189.849121,46 L189.17627,43.7910156 L185.792969,43.7910156 L185.120117,46 L183,46 L186.275391,36.6816406 L188.681152,36.6816406 L191.969238,46 L189.849121,46 Z M188.706543,42.140625 C188.08447,40.1389874 187.734294,39.007 187.656006,38.7446289 C187.577718,38.4822578 187.521647,38.2749031 187.487793,38.1225586 C187.348144,38.664228 186.948245,40.00357 186.288086,42.140625 L188.706543,42.140625 Z M201.637207,46 L200.354004,42.4316406 L195.440918,42.4316406 L194.184082,46 L191.969238,46 L196.776855,33.0976562 L199.062012,33.0976562 L203.869629,46 L201.637207,46 Z M199.800293,40.6210938 L198.596191,37.1230469 C198.5083,36.8886707 198.38672,36.5195338 198.231445,36.015625 C198.076171,35.5117162 197.969239,35.1425793 197.910645,34.9082031 C197.752441,35.6289099 197.520998,36.4169879 197.216309,37.2724609 L196.056152,40.6210938 L199.800293,40.6210938 Z" id="Icon-3"></path>
                </g>
            </g>
        </g>
    </g>
</svg>