<?xml version="1.0" standalone="no"?>
<!DOCTYPE svg PUBLIC "-//W3C//DTD SVG 20010904//EN"
 "http://www.w3.org/TR/2001/REC-SVG-20010904/DTD/svg10.dtd">
<svg version="1.0" xmlns="http://www.w3.org/2000/svg"
 width="72.000000pt" height="72.000000pt" viewBox="0 0 72.000000 72.000000"
 preserveAspectRatio="xMidYMid meet">
<metadata>
Created by potrace 1.15, written by Peter Selinger 2001-2017
</metadata>
<g transform="translate(0.000000,72.000000) scale(0.100000,-0.100000)"
fill="#003057" stroke="none">
<path d="M265 707 c-109 -37 -186 -103 -232 -202 -24 -51 -28 -73 -28 -145 0
-72 4 -94 28 -146 36 -77 104 -145 182 -181 51 -24 73 -28 145 -28 72 0 94 4
145 28 78 36 146 104 182 181 24 52 28 74 28 146 0 72 -4 94 -28 146 -57 123
-177 204 -311 211 -41 1 -88 -3 -111 -10z m248 -235 c15 -16 10 -25 -78 -127
-52 -61 -99 -111 -104 -113 -10 -3 -141 106 -141 118 0 4 8 14 18 24 18 15 21
14 64 -24 26 -22 48 -40 50 -40 2 0 39 41 82 90 43 50 81 90 85 90 4 0 15 -8
24 -18z"/>
</g>
</svg>
