<?xml version="1.0" encoding="UTF-8"?>
<svg width="80px" height="79px" viewBox="0 0 80 79" version="1.1" xmlns="http://www.w3.org/2000/svg" xmlns:xlink="http://www.w3.org/1999/xlink">
    <!-- Generator: Sketch 44.1 (41455) - http://www.bohemiancoding.com/sketch -->
    <title>Group 40</title>
    <desc>Created with Sketch.</desc>
    <defs></defs>
    <g id="Icons" stroke="none" stroke-width="1" fill="none" fill-rule="evenodd">
        <g id="Artboard" transform="translate(-2263.000000, -146.000000)" fill="#003057">
            <g id="Group-32" transform="translate(2235.000000, 118.000000)">
                <g id="Group-40" transform="translate(30.000000, 31.000000)">
                    <path d="M-0.410420665,44.7403227 L34.3002413,10.8829546 L47.8466689,-2.0859131 L51.5745179,1.55030381 L50.4692196,2.62401942 C49.6969651,3.3742075 49.6969651,4.56823616 50.4736257,5.32581049 C51.2620923,6.09806124 52.5528691,6.09806124 53.3467871,5.3236581 L54.3941682,4.30202202 L58.1317568,7.94773917 L57.0264539,9.02145471 C56.2556129,9.77026662 56.2556129,10.9656696 57.03086,11.7218653 C57.8207376,12.4954947 59.1101053,12.4954947 59.9054344,11.7197151 L60.9528156,10.698079 L64.6904019,14.3437939 L63.5851036,15.4175095 C62.8128491,16.1676976 62.8128491,17.3617263 63.5895097,18.1193006 C64.3779763,18.8915513 65.6687531,18.8915513 66.4626711,18.1171482 L67.5100522,17.0955121 L71.2476409,20.7412293 L70.1423379,21.8149448 C69.3714053,22.5638457 69.3714053,23.7582974 70.146744,24.5153554 C70.9366216,25.2889848 72.2259893,25.2889848 73.0213184,24.5132052 L74.0691982,23.4910827 L77.6976943,27.0337596 L29.5130959,74.0339605 C28.0826049,75.4292894 25.8848068,75.4292894 24.4543159,74.0339605 L-0.410420665,49.7804096 C-1.86319311,48.3633469 -1.86319311,46.1573853 -0.410420665,44.7403227 Z M36.3849331,13.0402362 L1.68434164,46.8878726 C1.43855279,47.1276199 1.43855279,47.3931124 1.68434164,47.6328596 L26.5490782,71.8864105 C26.814327,72.1451394 27.1530848,72.1451394 27.4183336,71.8864105 L74.5026219,25.9594737 L74.5021111,28.1065252 L73.0208076,26.6602567 L75.1160807,26.6607552 C74.9223461,26.8497277 74.7169964,27.0200339 74.5023335,27.1716731 C74.3123421,27.3058842 74.1150552,27.4254727 73.9120687,27.5304381 C73.4257012,27.7819414 72.906612,27.9494926 72.3767543,28.0330866 C70.84817,28.2742467 69.2299638,27.8166636 68.0492324,26.6602189 C66.5736734,25.2194551 66.1976784,23.1100869 66.9223876,21.3315685 C66.981127,21.1874154 67.0470974,21.0454358 67.1202995,20.9061619 C67.2366508,20.6847928 67.3712717,20.4702592 67.5241649,20.2646982 C67.6809025,20.0539685 67.8568427,19.8526682 68.0519882,19.6630996 L68.0497819,21.8127972 L66.4626711,20.2646982 L68.5574334,20.2646982 C68.3962264,20.4219426 68.2269466,20.5662532 68.0509264,20.69763 C67.828407,20.8637126 67.5951155,21.0091254 67.3537442,21.1338684 C67.2125441,21.2068419 67.0685789,21.272742 66.9223876,21.3315685 C65.1128203,22.0597275 62.9621727,21.704104 61.4925453,20.2646982 C60.0154351,18.823896 59.6390615,16.7142464 60.3643366,14.934984 C60.4232428,14.790474 60.489416,14.6481434 60.5628567,14.5085276 C60.6792568,14.2872433 60.8139135,14.0727786 60.9668287,13.8672651 C61.1236085,13.6565578 61.2995813,13.45526 61.4947493,13.2656687 L61.4925453,15.4153641 L59.9054344,13.8672651 L62.0001967,13.8672651 C61.8389632,14.0245355 61.6696847,14.1688771 61.4936885,14.30029 C61.271214,14.4664073 61.0380052,14.6118655 60.7967428,14.7366647 C60.6551989,14.8098818 60.5108831,14.8759882 60.3643366,14.934984 C58.5545398,15.6635598 56.4045347,15.3076535 54.9338979,13.8672651 C53.4577607,12.427412 53.0816932,10.3171116 53.8066085,8.53803618 C53.8653343,8.39391216 53.9312856,8.25196189 54.0044628,8.11271789 C54.1208111,7.89132647 54.2554263,7.67677638 54.4083101,7.47120808 C54.5650411,7.260467 54.7409717,7.05916542 54.9361042,6.86960946 L54.9338979,9.01930708 L53.3467871,7.47120808 L55.4415494,7.47120808 C55.2803424,7.62845248 55.1110626,7.77276308 54.9350424,7.9041399 C54.712523,8.07022253 54.4792315,8.21563533 54.2378602,8.3403783 C54.0966939,8.4133344 53.9527638,8.47922036 53.8066085,8.53803618 C51.9970194,9.26625111 49.8463171,8.91064174 48.3766613,7.47120808 C47.0940995,6.22017217 46.6414156,4.46487234 47.0192068,2.85943807 C47.1118511,2.46574346 47.2544368,2.08106115 47.4469727,1.71503753 C47.5624409,1.49552471 47.6958746,1.28272282 47.8472756,1.07871259 C48.0049775,0.866212107 48.1821733,0.663250274 48.3788653,0.472178569 L48.3766613,2.62187398 L46.7895504,1.07377499 L48.8742422,1.08350661 L36.3849331,13.0402362 Z" id="Fill-1" fill-rule="nonzero"></path>
                    <path d="M18.8181464,39.3381869 L16.9577948,36.7258823 L17.8806464,36.7258823 L19.2917792,38.7766635 L20.6980292,36.7258823 L21.6111151,36.7258823 L19.7507635,39.3381869 L21.7087714,42.0774448 L20.7908026,42.0774448 L19.2917792,39.909476 L17.7781073,42.0774448 L16.8601385,42.0774448 L18.8181464,39.3381869 Z M24.0574042,39.3381869 L22.1970526,36.7258823 L23.1199042,36.7258823 L24.531037,38.7766635 L25.937287,36.7258823 L26.8503729,36.7258823 L24.9900214,39.3381869 L26.9480292,42.0774448 L26.0300604,42.0774448 L24.531037,39.909476 L23.0173651,42.0774448 L22.0993964,42.0774448 L24.0574042,39.3381869 Z M27.5583807,39.7678744 L27.5583807,39.0256869 L29.9558417,39.0256869 L29.9558417,39.7678744 L27.5583807,39.7678744 Z M32.5144354,39.3381869 L30.6540839,36.7258823 L31.5769354,36.7258823 L32.9880682,38.7766635 L34.3943182,36.7258823 L35.3074042,36.7258823 L33.4470526,39.3381869 L35.4050604,42.0774448 L34.4870917,42.0774448 L32.9880682,39.909476 L31.4743964,42.0774448 L30.5564276,42.0774448 L32.5144354,39.3381869 Z M37.7536932,39.3381869 L35.8933417,36.7258823 L36.8161932,36.7258823 L38.227326,38.7766635 L39.633576,36.7258823 L40.546662,36.7258823 L38.6863104,39.3381869 L40.6443182,42.0774448 L39.7263495,42.0774448 L38.227326,39.909476 L36.7136542,42.0774448 L35.7956854,42.0774448 L37.7536932,39.3381869 Z M41.2546698,39.7678744 L41.2546698,39.0256869 L43.6521307,39.0256869 L43.6521307,39.7678744 L41.2546698,39.7678744 Z M46.2107245,39.3381869 L44.3503729,36.7258823 L45.2732245,36.7258823 L46.6843573,38.7766635 L48.0906073,36.7258823 L49.0036932,36.7258823 L47.1433417,39.3381869 L49.1013495,42.0774448 L48.1833807,42.0774448 L46.6843573,39.909476 L45.1706854,42.0774448 L44.2527167,42.0774448 L46.2107245,39.3381869 Z M51.4499823,39.3381869 L49.5896307,36.7258823 L50.5124823,36.7258823 L51.9236151,38.7766635 L53.3298651,36.7258823 L54.242951,36.7258823 L52.3825995,39.3381869 L54.3406073,42.0774448 L53.4226385,42.0774448 L51.9236151,39.909476 L50.4099432,42.0774448 L49.4919745,42.0774448 L51.4499823,39.3381869 Z" id="xx-xx-xx" transform="translate(35.600373, 39.401664) rotate(-45.000000) translate(-35.600373, -39.401664) "></path>
                </g>
            </g>
        </g>
    </g>
</svg>