<?xml version="1.0" encoding="UTF-8"?>
<svg width="18px" height="38px" viewBox="0 0 18 38" version="1.1" xmlns="http://www.w3.org/2000/svg" xmlns:xlink="http://www.w3.org/1999/xlink">
    <!-- Generator: Sketch 46.2 (44496) - http://www.bohemiancoding.com/sketch -->
    <title>Group 17</title>
    <desc>Created with Sketch.</desc>
    <defs></defs>
    <g id="Messaging" stroke="none" stroke-width="1" fill="none" fill-rule="evenodd" opacity="0.5">
        <g id="12.-Empty-Chat" transform="translate(0.000000, -618.000000)">
            <g id="Group-10" transform="translate(-20.000000, 607.000000)">
                <g id="Group-17" transform="translate(0.000000, 11.000000)">
                    <circle id="Oval-10" fill="#008638" cx="19" cy="19" r="19"></circle>
                    <g id="Group-7" transform="translate(9.000000, 11.000000)" fill="#FFFFFF">
                        <g id="noun_684931_cc">
                            <g id="Group">
                                <g id="Group-19">
                                    <path d="M18.7869114,2.56374162 C18.4432522,2.37555121 18.0297101,2.40403875 17.7115376,2.63798187 L14.1516231,5.25451908 L14.1516231,3.57461759 C14.1516231,2.07082088 12.9858127,0.84672 11.5536254,0.84672 L3.24085485,0.84672 C1.80866751,0.84672 0.642857143,2.07082088 0.642857143,3.57461759 L0.642857143,12.3030266 C0.642857143,13.8068233 1.80866751,15.0309242 3.24085485,15.0309242 L11.5536254,15.0309242 C12.9858127,15.0309242 14.1516231,13.8068233 14.1516231,12.3030266 L14.1516231,10.6239884 L17.7115376,13.2413889 C17.8899444,13.3726042 18.0979487,13.4390751 18.3075972,13.4390751 C18.4712053,13.4390751 18.6364577,13.3976387 18.7877335,13.3156291 C19.133037,13.1274387 19.3476185,12.7562375 19.3476185,12.3479161 L19.3476185,3.53145465 C19.3467963,3.12313327 19.133037,2.75279528 18.7869114,2.56374162 Z M13.112424,9.57599229 L13.112424,12.3038899 C13.112424,13.2059953 12.4135955,13.9406284 11.5536254,13.9406284 L3.24085485,13.9406284 C2.38170687,13.9406284 1.68205622,13.2068585 1.68205622,12.3038899 L1.68205622,3.57461759 C1.68205622,2.67251222 2.38088472,1.93787904 3.24085485,1.93787904 L11.5536254,1.93787904 C12.4127733,1.93787904 13.112424,2.67164896 13.112424,3.57461759 L13.112424,6.30251518 L13.112424,9.57599229 Z M18.3075972,12.3470528 L14.1508009,9.29198017 L14.1508009,6.5865273 L18.3075972,3.53145465 L18.3075972,12.3470528 Z" id="Shape"></path>
                                </g>
                            </g>
                        </g>
                    </g>
                </g>
            </g>
        </g>
    </g>
</svg>