<?xml version="1.0" encoding="UTF-8"?>
<svg width="24px" height="24px" viewBox="0 0 24 24" version="1.1" xmlns="http://www.w3.org/2000/svg" xmlns:xlink="http://www.w3.org/1999/xlink">
    <!-- Generator: Sketch 44.1 (41455) - http://www.bohemiancoding.com/sketch -->
    <title>Group 7</title>
    <desc>Created with Sketch.</desc>
    <defs></defs>
    <g id="Icons" stroke="none" stroke-width="1" fill="none" fill-rule="evenodd">
        <g id="Artboard" transform="translate(-138.000000, -215.000000)" fill-rule="nonzero" fill="#003057">
            <g id="Group-18" transform="translate(134.000000, 211.000000)">
                <g id="Group-7" transform="translate(4.000000, 4.090914)">
                    <path d="M14.6013185,10.0703356 L11.7433534,12.8930351 L12.5865977,13.7468145 L15.470691,10.8983091 C16.1911671,10.1867232 15.9291245,9.19458596 14.9527749,8.92255156 L6.98608604,6.70284104 C5.99512875,6.42673658 5.27461254,7.1543059 5.54918006,8.13974702 L7.76889058,16.1064359 C8.04277763,17.0894348 9.03118097,17.3467329 9.7443945,16.6246056 L8.89061327,15.7813633 C8.82557211,15.8472173 8.95150859,15.8800007 8.92485946,15.7843552 L6.72104021,7.87470119 L14.6013185,10.0703356 Z" id="Rectangle-10" transform="translate(10.685777, 11.840705) rotate(-225.000000) translate(-10.685777, -11.840705) "></path>
                    <path d="M12,23.6 C5.5934969,23.6 0.4,18.4065031 0.4,12 C0.4,5.5934969 5.5934969,0.4 12,0.4 C18.4065031,0.4 23.6,5.5934969 23.6,12 C23.6,18.4065031 18.4065031,23.6 12,23.6 Z M12,22.4 C17.7437614,22.4 22.4,17.7437614 22.4,12 C22.4,6.2562386 17.7437614,1.6 12,1.6 C6.2562386,1.6 1.6,6.2562386 1.6,12 C1.6,17.7437614 6.2562386,22.4 12,22.4 Z" id="Oval-4"></path>
                </g>
            </g>
        </g>
    </g>
</svg>