<?xml version="1.0" encoding="UTF-8"?>
<svg width="30px" height="20px" viewBox="0 0 30 20" version="1.1" xmlns="http://www.w3.org/2000/svg" xmlns:xlink="http://www.w3.org/1999/xlink">
    <!-- Generator: Sketch 44.1 (41455) - http://www.bohemiancoding.com/sketch -->
    <title>Group 6</title>
    <desc>Created with Sketch.</desc>
    <defs></defs>
    <g id="Icons" stroke="none" stroke-width="1" fill="none" fill-rule="evenodd">
        <g id="Artboard" transform="translate(-135.000000, -166.000000)" fill-rule="nonzero" fill="#003057">
            <g id="Group-8" transform="translate(134.000000, 159.000000)">
                <g id="Group-11" transform="translate(2.000000, 7.000000)">
                    <g id="Group-5">
                        <g id="Group-13">
                            <g id="Group-6">
                                <path d="M8.66027572,13.7218112 C7.27983842,13.7218112 5.78534297,13.9028652 4.20820573,14.2599298 L5.2549142,4.96214964 C6.45811149,4.49070275 7.66316553,4.17086701 8.60247382,4.17086701 C9.39055087,4.17086701 10.2473597,4.39677174 11.1047877,4.775834 C11.40641,4.90917891 11.6862809,5.05209113 11.9374828,5.19514196 C12.0865833,5.28004956 12.1916265,5.34514982 12.2698755,5.39603616 L13.5175975,6.25011322 L13.7984427,6.44207767 L15.3546939,5.38815809 C15.4050351,5.35492976 15.5121455,5.28891456 15.6629653,5.20362218 C15.9146043,5.06131394 16.1954839,4.91891803 16.4980832,4.78608386 C17.0907352,4.5259233 17.6915854,4.33534002 18.2747227,4.24310609 L18.1184964,3.25538481 C17.4423778,3.36232542 16.7619017,3.57816522 16.0961296,3.87042386 C15.761007,4.01753494 15.4503641,4.17501981 15.1707049,4.33317419 C14.9997891,4.42983138 14.8781198,4.5048196 14.802483,4.55451628 L13.8010703,5.23259135 L12.8073144,4.55333535 C12.726434,4.49995268 12.600969,4.42219607 12.4323353,4.32616498 C12.1530807,4.16713905 11.8433937,4.00900167 11.5091289,3.86122579 C10.5350579,3.43059654 9.54995872,3.17086701 8.60247382,3.17086701 C7.42711,3.17086701 6.00621027,3.56990764 4.60149377,4.14689446 L4.32771611,4.25934853 L3.05365022,15.5767162 L3.75519457,15.39761 C5.51366098,14.9486688 7.16467184,14.7218112 8.66027572,14.7218112 C10.2580654,14.7218112 11.9471839,15.2254323 13.5798858,16.0425709 L13.8038331,16.1546527 L14.0277131,16.0424364 C15.7761369,15.1660668 17.6248949,14.6466678 19.3043852,14.733207 L19.355844,13.7345319 C17.5497805,13.6414707 15.627035,14.1579889 13.8035635,15.038271 C12.1128503,14.2223895 10.3618925,13.7218112 8.66027572,13.7218112 Z" id="Fill-1"></path>
                                <path d="M14,1.74136712 C14.0496732,1.71142728 14.1034037,1.67957442 14.1610622,1.64601725 C14.5496932,1.41983468 14.9859981,1.19422896 15.4613754,0.98365112 C16.8295798,0.377577722 18.244525,0.0124592227 19.6408125,0.0124592227 C20.0281786,0.0124592227 20.4315664,0.0412119464 20.8494259,0.0965307424 C21.9162828,0.237767794 23.0446479,0.545567513 24.1877278,0.969714329 C24.7456535,1.17673609 25.2712942,1.3983793 25.7497118,1.62028696 C26.0386813,1.75432164 26.2495083,1.85963462 26.3669603,1.92189744 L26.6468256,2.0702576 L28.6575735,19.9693937 L27.70521,19.5535368 C27.5829109,19.500134 27.3460354,19.4035066 27.0114639,19.2780352 C26.4499764,19.0674655 25.824201,18.8565984 25.1511897,18.6597713 C23.2980457,18.1178055 21.4514564,17.7855272 19.7414938,17.765096 C19.6597703,17.7642801 19.6597703,17.7642801 19.578125,17.7641152 C19.4755036,17.7641152 19.3713698,17.7670076 19.2657851,17.7727441 C18.2461904,17.8281395 17.1323886,18.1424978 16.0066727,18.6338026 C15.5643199,18.8268619 15.1513089,19.0338993 14.7799117,19.2405468 C14.5593854,19.3632488 14.4038489,19.4571661 14.325241,19.5078731 L14,19.7176739 L13.674759,19.5078731 C13.5961511,19.4571661 13.4406146,19.3632488 13.2200883,19.2405468 C12.8486911,19.0338993 12.4356801,18.8268619 11.9933273,18.6338026 C10.8676114,18.1424978 9.75380962,17.8281395 8.73421492,17.7727441 C8.62863023,17.7670076 8.52449635,17.7641152 8.421875,17.7641152 C8.34022972,17.7642801 8.34022972,17.7642801 8.25850623,17.765096 C6.54854357,17.7855272 4.70195433,18.1178055 2.84881026,18.6597713 C2.17579899,18.8565984 1.55002362,19.0674655 0.988536081,19.2780352 C0.653964621,19.4035066 0.417089094,19.500134 0.294790022,19.5535368 L-0.657573462,19.9693937 L1.35317436,2.0702576 L1.63303969,1.92189744 C1.75049174,1.85963462 1.96131867,1.75432164 2.25028817,1.62028696 C2.72870576,1.3983793 3.25434649,1.17673609 3.81227219,0.969714329 C4.95535207,0.545567513 6.08371718,0.237767794 7.1505741,0.0965307424 C7.56843358,0.0412119464 7.97182138,0.0124592227 8.3591875,0.0124592227 C9.75547502,0.0124592227 11.1704202,0.377577722 12.5386246,0.98365112 C13.0140019,1.19422896 13.4503068,1.41983468 13.8389378,1.64601725 C13.8965963,1.67957442 13.9503268,1.71142728 14,1.74136712 Z M25.2447804,2.70888432 C24.7936765,2.49964575 24.296827,2.29014274 23.7702722,2.09476135 C22.7047464,1.69939144 21.6593441,1.41422265 20.6919366,1.28615133 C20.3243515,1.23748816 19.9732068,1.21245922 19.6408125,1.21245922 C18.4330453,1.21245922 17.1746742,1.53717469 15.9473902,2.08082456 C15.5143466,2.27264987 15.1168464,2.47819038 14.7646741,2.68315404 C14.5563619,2.80439141 14.4119215,2.8967363 14.3408656,2.94578832 L14,3.18109811 L13.6591344,2.94578832 C13.5880785,2.8967363 13.4436381,2.80439141 13.2353259,2.68315404 C12.8831536,2.47819038 12.4856534,2.27264987 12.0526098,2.08082456 C10.8253258,1.53717469 9.56695467,1.21245922 8.3591875,1.21245922 C8.02679318,1.21245922 7.6756485,1.23748816 7.30806336,1.28615133 C6.34065588,1.41422265 5.29525364,1.69939144 4.22972781,2.09476135 C3.70317304,2.29014274 3.20632354,2.49964575 2.75521964,2.70888432 C2.64921783,2.75805186 2.55516188,2.80274424 2.47401806,2.84207692 L0.761967255,18.0822926 C1.29854269,17.8859882 1.88572348,17.6911671 2.51197099,17.5080164 C4.4615798,16.9378388 6.41083304,16.587087 8.24416923,16.5651816 C8.33299395,16.5642947 8.33299395,16.5642947 8.421875,16.5641152 C8.5464665,16.5641152 8.67229659,16.5676103 8.79931581,16.5745113 C9.98235089,16.6387865 11.2272254,16.9901387 12.473329,17.5339851 C12.9529938,17.7433289 13.4000599,17.9674377 13.8035406,18.1919365 C13.8747919,18.2315811 13.9403718,18.2687863 14,18.3031973 C14.0596282,18.2687863 14.1252081,18.2315811 14.1964594,18.1919365 C14.5999401,17.9674377 15.0470062,17.7433289 15.526671,17.5339851 C16.7727746,16.9901387 18.0176491,16.6387865 19.2006842,16.5745113 C19.3277034,16.5676103 19.4535335,16.5641152 19.578125,16.5641152 C19.667006,16.5642947 19.667006,16.5642947 19.7558308,16.5651816 C21.589167,16.587087 23.5384202,16.9378388 25.488029,17.5080164 C26.1142765,17.6911671 26.7014573,17.8859882 27.2380327,18.0822926 L25.5259819,2.84207692 C25.4448381,2.80274424 25.3507822,2.75805186 25.2447804,2.70888432 Z" id="Stroke-2"></path>
                            </g>
                        </g>
                    </g>
                </g>
            </g>
        </g>
    </g>
</svg>