<?xml version="1.0" encoding="UTF-8"?>
<svg width="20px" height="22px" viewBox="0 0 20 22" version="1.1" xmlns="http://www.w3.org/2000/svg" xmlns:xlink="http://www.w3.org/1999/xlink">
    <!-- Generator: Sketch 44.1 (41455) - http://www.bohemiancoding.com/sketch -->
    <title>icon_workbookactivity</title>
    <desc>Created with Sketch.</desc>
    <defs></defs>
    <g id="Icons" stroke="none" stroke-width="1" fill="none" fill-rule="evenodd">
        <g id="Artboard" transform="translate(-1192.000000, -480.000000)" fill="#003057">
            <g id="activity" transform="translate(1094.000000, 464.000000)">
                <path d="M98.3348385,24.241079 C98.5581649,24.4423299 98.8671478,24.5429553 99.2617869,24.5429553 C99.6524948,24.5429553 99.9563368,24.4423299 100.173691,24.241079 C100.391045,24.0396014 100.499759,23.7596495 100.499759,23.4006942 C100.499759,23.03811 100.394976,22.7560412 100.185636,22.5546392 C99.9763711,22.3533883 99.6685979,22.2525361 99.2617869,22.2525361 C98.8511959,22.2525361 98.538055,22.3533883 98.3228179,22.5546392 C98.1075808,22.7560412 98,23.03811 98,23.4006942 C98,23.7596495 98.111512,24.0396014 98.3348385,24.241079 M100.208997,21.2158144 L100.481691,16.1580069 C100.486378,16.0721237 100.418034,16 100.332076,16 L98.2017045,16 C98.1158213,16 98.0474021,16.0721237 98.0520893,16.1580069 L98.3247835,21.2158144 C98.3290928,21.2953471 98.394866,21.3576426 98.4745498,21.3576426 L100.059306,21.3576426 C100.138914,21.3576426 100.204687,21.2953471 100.208997,21.2158144 M117.018509,19.4859038 C116.586825,18.5166186 115.438667,18.0902268 114.475505,18.552378 C113.549918,18.9966117 113.186804,20.1104467 113.584089,21.0571271 C113.651677,21.2181581 113.689856,21.3763918 113.718962,21.5337182 C113.749354,21.7023849 113.765003,21.8696151 113.769993,22.0358625 C113.775966,22.2021856 113.76833,22.3671478 113.753436,22.5315052 L113.711402,23.0247285 C113.653643,23.6821581 113.589533,24.3390584 113.51446,24.9948247 C113.440296,25.6507423 113.357588,26.3058282 113.262481,26.9597045 C113.187409,27.4635876 113.109313,27.9673196 113.016474,28.4695395 C113.016399,28.4700687 113.016247,28.4705223 113.015945,28.4709003 L110.316371,32.4828385 C110.31554,32.4841237 110.313876,32.4847285 110.31244,32.4841993 C109.982137,32.3841031 109.632103,32.3298969 109.269216,32.3298969 L104.058997,32.3298969 C102.072948,32.3298969 100.462942,33.9399038 100.462942,35.9259519 L100.462942,37.9963711 C100.462942,37.9983368 100.464605,38 100.46657,38 L112.858014,38 C112.859979,38 112.861567,37.9983368 112.861567,37.9963711 L112.861567,37.2312096 C112.861567,36.8568316 112.938983,36.4869141 113.088825,36.1438351 C113.779746,34.5624055 115.796186,29.7878007 115.796186,29.7878007 L115.915787,29.5028591 C115.953361,29.4120619 115.973546,29.3123436 115.972412,29.2078625 C115.964625,28.5440825 115.988591,27.8834021 116.016866,27.2231753 C116.047485,26.5630997 116.090426,25.9042337 116.141911,25.2461237 C116.192488,24.5880137 116.254103,23.9308866 116.322144,23.2744399 L116.374234,22.7821993 C116.39079,22.6180687 116.414605,22.454543 116.451952,22.292378 C116.488392,22.1301375 116.535491,21.9688797 116.597258,21.8090584 C116.659856,21.6493127 116.733038,21.4905498 116.841601,21.335189 C117.205698,20.8107423 117.2971,20.111732 117.018509,19.4859038 M102.315175,26.7353952 C102.315175,24.3553883 104.244522,22.4261168 106.624454,22.4261168 C109.00446,22.4261168 110.933732,24.3553883 110.933732,26.7353952 C110.933732,29.1153265 109.00446,31.0446735 106.624454,31.0446735 C104.244522,31.0446735 102.315175,29.1153265 102.315175,26.7353952" id="icon_workbookactivity"></path>
            </g>
        </g>
    </g>
</svg>