<?xml version="1.0" encoding="UTF-8"?>
<svg width="58px" height="65px" viewBox="0 0 58 65" version="1.1" xmlns="http://www.w3.org/2000/svg" xmlns:xlink="http://www.w3.org/1999/xlink">
    <!-- Generator: Sketch 44.1 (41455) - http://www.bohemiancoding.com/sketch -->
    <title>Page 1</title>
    <desc>Created with Sketch.</desc>
    <defs></defs>
    <g id="Icons" stroke="none" stroke-width="1" fill="none" fill-rule="evenodd">
        <g id="Artboard" transform="translate(-2628.000000, -153.000000)" fill="#003057">
            <g id="Group-31" transform="translate(2585.000000, 118.000000)">
                <path d="M98.3011333,77.8046667 L90.8495333,70.3539333 L90.8495333,35.4905333 L48.2069333,35.4905333 C45.3365333,35.4905333 43,37.8262 43,40.6974667 L43,94.7930667 C43,97.6634667 45.3365333,100 48.2069333,100 L90.8495333,100 L90.8495333,87.6838 C91.7638667,88.2046667 95.1802667,89.7794 98.3011333,86.6542 C101.019867,83.9224667 100.7148,80.2148667 98.3011333,77.8046667 Z M53.4,37.5722667 L88.7712667,37.5722667 L88.7712667,68.2713333 L88.0094667,67.5095333 L86.537,68.9828667 L84.6546,67.1004667 C85.9476667,64.8289333 86.6990667,62.2116 86.6990667,59.4183333 C86.6990667,50.8132 79.7050667,43.8148667 71.0956,43.8148667 C62.4904667,43.8148667 55.493,50.8097333 55.493,59.4183333 C55.493,68.0243333 62.487,75.0218 71.0956,75.0218 C73.8888667,75.0218 76.5062,74.2738667 78.7777333,72.9773333 L80.6696667,74.8692667 L79.1972,76.3426 L88.7816667,85.9262 L88.7816667,89.5826667 L53.4,89.5826667 L53.4,37.5722667 Z M83.4733333,68.8676 L85.0610667,70.4553333 L82.1152667,73.4002667 L80.5275333,71.7995333 C81.6446667,70.9597333 82.637,69.9708667 83.4733333,68.8676 Z M71.0826,72.9435333 C63.631,72.9435333 57.5608667,66.8768667 57.5608667,59.4218 C57.5608667,51.9710667 63.6275333,45.9009333 71.0826,45.9009333 C78.5333333,45.9009333 84.6034667,51.9676 84.6034667,59.4218 C84.6173333,66.8734 78.5506667,72.9435333 71.0826,72.9435333 Z M48.2069333,37.5722667 L51.3286667,37.5722667 L51.3286667,89.5861333 L48.2069333,89.5861333 C47.0256667,89.5861333 45.9596667,89.9926 45.0860667,90.6521333 L45.0826,40.694 C45.0826,38.9676 46.4805333,37.5722667 48.2069333,37.5722667 Z M88.7678,93.7366 L56.3189333,93.7366 L56.3189333,95.8183333 L88.7678,95.8183333 L88.7678,97.9009333 L48.2069333,97.9009333 C46.4805333,97.9009333 45.0826,96.5056 45.0826,94.7792 C45.0826,93.0528 46.4770667,91.6583333 48.2034667,91.6583333 L88.7643333,91.6583333 L88.7643333,93.7366 L88.7678,93.7366 Z M96.8416667,85.1678667 C95.2678,86.7426 92.5256667,86.7426 90.9648,85.1678667 L82.143,76.3460667 L88.0198667,70.4683333 L96.8416667,79.291 C98.7344667,81.1699333 98.2266,83.7699333 96.8416667,85.1678667 Z" id="Page-1"></path>
            </g>
        </g>
    </g>
</svg>